<?xml version="1.0" encoding="UTF-8"?>
<svg version="1.1" xmlns="http://www.w3.org/2000/svg" width="332" height="320">
<path d="M0 0 C3.62386478 2.16286 6.81373999 4.84808996 8 9 C8 11.64 8 14.28 8 17 C27.14 17 46.28 17 66 17 C66 13.7 66 10.4 66 7 C67.30220904 3.256149 69.1967466 1.62861272 72.5 -0.375 C78.83873224 -3.26368425 85.28020002 -1.98475516 91.625 0.3125 C94 2 94 2 94.875 4.1875 C94.91625 4.785625 94.9575 5.38375 95 6 C95.66 6 96.32 6 97 6 C98.28317892 9.84953676 98.06643637 12.94738135 98 17 C98.56847656 16.98839844 99.13695312 16.97679688 99.72265625 16.96484375 C104.60670484 16.90776806 109.18503965 17.18043228 114 18 C114 18.66 114 19.32 114 20 C114.83402344 20.14695312 115.66804687 20.29390625 116.52734375 20.4453125 C125.74532303 22.28257298 132.45332254 25.20013612 139 32 C139.825 32.825 140.65 33.65 141.5 34.5 C142.325 35.325 143.15 36.15 144 37 C144.515625 37.45375 145.03125 37.9075 145.5625 38.375 C149.72302049 43.07819707 152.24525128 49.39623359 155 55 C155.50563477 55.86842529 156.01126953 56.73685059 156.53222656 57.6315918 C158.2225156 61.51065331 158.47559919 64.82966007 158.51171875 68.984375 C158.52980591 69.7966153 158.54789307 70.60885559 158.56652832 71.44570923 C158.62259056 74.21376646 158.65579141 76.98156279 158.6875 79.75 C158.71947177 81.74561088 158.7517925 83.7412162 158.78442383 85.73681641 C158.89328297 93.15761026 158.95050151 100.57862433 159 108 C159.00809692 109.18382011 159.00809692 109.18382011 159.01635742 110.39155579 C159.10217829 123.1212626 159.15254093 135.8508674 159.18033218 148.58082581 C159.18748952 151.37091364 159.19780538 154.1609748 159.20883179 156.9510498 C159.22557984 161.40611606 159.23146849 165.86107756 159.22938538 170.31617355 C159.23009875 171.97538117 159.23416261 173.63459126 159.24183655 175.29378128 C159.31730343 192.87551217 156.1501062 208.9798847 143.8125 222.375 C143.214375 222.91125 142.61625 223.4475 142 224 C141.525625 224.53625 141.05125 225.0725 140.5625 225.625 C138.56285539 227.38468725 136.49516067 228.12332193 134 229 C134 229.66 134 230.32 134 231 C132.27473958 231.68359375 130.54947917 232.3671875 128.82421875 233.05078125 C126.93637143 233.89213875 126.93637143 233.89213875 125.71484375 235.47265625 C123.10303317 237.79889301 120.22765159 238.25069455 116.875 239.125 C112.62013567 239.92951743 112.62013567 239.92951743 109 242 C107.11089111 242.10312281 105.21788774 242.13522087 103.32597351 242.14044189 C102.09349884 242.14615204 100.86102417 242.15186218 99.59120178 242.15774536 C98.21273814 242.15899086 96.83427438 242.16011592 95.45581055 242.16113281 C94.01389437 242.16575868 92.57197942 242.17078302 91.13006592 242.17617798 C87.20229635 242.18932765 83.2745439 242.19575209 79.34675574 242.20018864 C76.89454208 242.20311566 74.44233314 242.20721979 71.99012184 242.21169281 C64.32279662 242.22537544 56.65548212 242.23503794 48.98814553 242.2388947 C40.12817894 242.24337538 31.26836663 242.26092044 22.40844697 242.2898953 C15.56680409 242.31149518 8.72520467 242.3215981 1.88352805 242.32293582 C-2.20565632 242.32398521 -6.29469581 242.3299211 -10.38384438 242.34775543 C-14.23092361 242.36420663 -18.07774864 242.36640613 -21.92485046 242.35761642 C-23.33739082 242.35684442 -24.74994467 242.36121033 -26.16245079 242.37107468 C-28.08993344 242.38374643 -30.01751769 242.37614307 -31.94502258 242.36749268 C-33.02406514 242.36895924 -34.1031077 242.3704258 -35.21484852 242.3719368 C-38.36720631 241.95096226 -39.62989171 241.04738512 -42 239 C-44.23811121 238.25992396 -44.23811121 238.25992396 -46.625 237.75 C-52.68355035 236.06111207 -57.0286266 232.73066919 -62 229 C-63.18181969 228.26166234 -64.36833929 227.53070644 -65.5625 226.8125 C-68.29191271 224.7829367 -68.36803307 224.15983467 -69 221 C-69.60714844 220.72285156 -70.21429688 220.44570313 -70.83984375 220.16015625 C-77.45551975 216.60707167 -81.57082982 204.80577637 -84 198 C-85.1759416 193.11940028 -84.04250826 189.54072606 -81.5 185.3125 C-77.70363513 180.11605731 -73.2882375 177.22353023 -67.3125 175 C-64.09170267 175 -62.61452802 176.15069969 -60 178 C-59.02675781 178.55945313 -58.05351563 179.11890625 -57.05078125 179.6953125 C-53.45757873 182.40976767 -52.40302448 184.58540799 -50.625 188.6875 C-47.61670003 195.25738009 -43.71960445 202.64019778 -37 206 C-35.09006356 206.10226829 -33.17652734 206.13950136 -31.26387024 206.14717102 C-29.43222069 206.15790398 -29.43222069 206.15790398 -27.56356812 206.16885376 C-26.20294215 206.17169417 -24.84231591 206.17440589 -23.48168945 206.17700195 C-22.05434503 206.18326581 -20.62700225 206.18991254 -19.19966125 206.19691467 C-15.31514173 206.21433431 -11.43063452 206.22487958 -7.5460856 206.2331202 C-5.11880228 206.23826954 -2.69152279 206.24434537 -0.26424217 206.25063133 C7.33100149 206.26968823 14.92623541 206.28391691 22.52149838 206.2922433 C31.28695093 206.30201111 40.05215065 206.32831647 48.81751412 206.36874419 C55.5929815 206.39892055 62.36837648 206.41371371 69.14390975 206.41702431 C73.19019233 206.41937356 77.23620495 206.42831692 81.28241539 206.45348549 C85.09181573 206.47679729 88.90076901 206.48098721 92.71022224 206.47072411 C94.10538598 206.47022934 95.50057194 206.47653231 96.89566803 206.49028015 C105.69859186 206.57214521 111.28898082 206.27933217 117.9609375 200.21875 C118.42757812 199.6515625 118.89421875 199.084375 119.375 198.5 C119.85710937 197.9328125 120.33921875 197.365625 120.8359375 196.78125 C124.2239421 191.59692082 123.36673774 184.49321337 123.55859375 178.55078125 C123.60084579 177.27753494 123.64309784 176.00428864 123.68663025 174.69245911 C124.17272272 158.98450529 124.11405009 143.2730074 124.06866455 127.55938721 C124.05818832 123.52852939 124.05381653 119.49766455 124.04882812 115.46679688 C124.03829952 107.64451258 124.02094429 99.82226385 124 92 C123.10359425 92.07142275 122.20718849 92.1428455 121.28361893 92.21643257 C111.8224329 92.91598807 102.41866795 93.12232032 92.93261719 93.06591797 C91.38849543 93.06070823 89.8443719 93.0560035 88.30024719 93.05175781 C85.01014301 93.04191861 81.72006932 93.02911108 78.42998505 93.01403427 C73.22760653 92.99075046 68.02523161 92.97760586 62.82281494 92.96633911 C48.04181959 92.93307549 33.26088345 92.89099147 18.47998047 92.82861328 C10.29012291 92.79413544 2.10030675 92.77030265 -6.08961558 92.75840485 C-11.26303039 92.7503044 -16.43617199 92.72905954 -21.6094985 92.69819999 C-24.81636375 92.68223197 -28.02314984 92.67877996 -31.23005104 92.67897034 C-32.71882457 92.67654283 -34.20759978 92.66893894 -35.69631767 92.65584183 C-37.72409107 92.63874058 -39.75200496 92.64179804 -41.77984619 92.64596558 C-42.91537052 92.64190138 -44.05089485 92.63783718 -45.22082901 92.63364983 C-48.00551504 92.76923391 -48.00551504 92.76923391 -49.83333969 94.37808418 C-51.31775908 96.44175539 -51.93243902 98.45143842 -52.6875 100.875 C-54.47117582 105.4444167 -56.21477126 107.9245046 -60.58203125 110.21875 C-65.38029543 111.76907768 -70.05521527 111.90228112 -75 111 C-78.48242391 108.47353559 -79.65226822 107.04319535 -81 103 C-81.66 103 -82.32 103 -83 103 C-85.15971284 95.98950355 -85.30008433 89.42896447 -85.25 82.125 C-85.25773437 81.00480469 -85.26546875 79.88460937 -85.2734375 78.73046875 C-85.25277685 69.87738103 -84.96944926 61.55356288 -80 54 C-79.47561956 52.65508643 -78.9774261 51.29978913 -78.5 49.9375 C-77.38791187 46.83413364 -76.10608928 44.56393478 -74 42 C-73.71125 41.360625 -73.4225 40.72125 -73.125 40.0625 C-68.67236788 31.89934112 -56.91612062 23.8881236 -48.24609375 21.12109375 C-46.85583984 20.78271484 -46.85583984 20.78271484 -45.4375 20.4375 C-41.60150901 19.50944357 -41.60150901 19.50944357 -38.01953125 17.91796875 C-35.33921784 16.69964447 -33.17813432 16.80528252 -30.25 16.875 C-29.26515625 16.89304687 -28.2803125 16.91109375 -27.265625 16.9296875 C-26.51796875 16.95289062 -25.7703125 16.97609375 -25 17 C-25.0825 16.154375 -25.165 15.30875 -25.25 14.4375 C-24.84241613 8.83322173 -22.12369241 5.29656816 -18.5625 1.1875 C-12.23375915 -4.21508365 -7.3047204 -2.8918981 0 0 Z " fill="#5D91C8" transform="translate(126,42)"/>
<path d="M0 0 C2.75 1.75 2.75 1.75 3.62890625 3.625 C5.09073131 6.39584611 6.92842712 7.64028901 9.4375 9.5 C13.56702083 12.68937055 16.90538449 16.00525205 20.23046875 20.0078125 C22.17362822 22.23570227 24.43410706 23.92166347 26.75 25.75 C28.49219658 27.69441583 30.10741542 29.71838223 31.75 31.75 C32.306875 32.28625 32.86375 32.8225 33.4375 33.375 C35.96537838 36.02325354 36.69104605 38.17225126 37.0625 41.8125 C36.75 44.75 36.75 44.75 35.375 46.625 C33.75 47.75 33.75 47.75 31.75 47.75 C31.37875 48.6471875 31.37875 48.6471875 31 49.5625 C29.57997292 52.04754739 28.02294041 53.06362486 25.75 54.75 C25.42 55.74 25.09 56.73 24.75 57.75 C23.12897032 59.46108689 21.45496537 61.12253306 19.75 62.75 C18.5125 64.0184375 18.5125 64.0184375 17.25 65.3125 C14.85821597 67.64448943 12.35605661 69.66515471 9.75 71.75 C7.34156463 74.09969304 4.9956298 76.48948354 2.6875 78.9375 C0.13157253 81.32852893 -1.9030742 82.72154382 -5.46875 82.796875 C-6.2215625 82.69890625 -6.974375 82.6009375 -7.75 82.5 C-8.5028125 82.41234375 -9.255625 82.3246875 -10.03125 82.234375 C-12.41858184 81.71319692 -14.19080523 81.06860718 -16.25 79.75 C-17.15238747 77.04283758 -17.36851302 75.51223232 -17.34765625 72.73828125 C-17.34282227 71.60229492 -17.34282227 71.60229492 -17.33789062 70.44335938 C-17.32532227 69.26483398 -17.32532227 69.26483398 -17.3125 68.0625 C-17.30798828 67.26521484 -17.30347656 66.46792969 -17.29882812 65.64648438 C-17.2870585 63.68095743 -17.26912348 61.71546915 -17.25 59.75 C-17.96996658 59.74413376 -18.68993317 59.73826752 -19.43171692 59.73222351 C-26.21513026 59.67433137 -32.99826098 59.60227486 -39.78134632 59.51428509 C-43.2686768 59.46954792 -46.75588957 59.43029968 -50.2434082 59.40356445 C-54.25241787 59.37259149 -58.26079367 59.31780184 -62.26953125 59.26171875 C-63.52272659 59.25532883 -64.77592194 59.2489389 -66.0670929 59.24235535 C-67.22806992 59.22256119 -68.38904694 59.20276703 -69.58520508 59.18237305 C-70.60890701 59.17126999 -71.63260895 59.16016693 -72.68733215 59.14872742 C-75.64871468 58.68796368 -76.37284371 57.99721614 -78.25 55.75 C-79.4875 55.069375 -79.4875 55.069375 -80.75 54.375 C-84.44113313 51.97576347 -85.79651495 49.70096448 -86.79296875 45.4140625 C-87.46075068 41.01066882 -87.62054748 38.50534678 -85.625 34.4375 C-76.4447844 24.0493613 -76.4447844 24.0493613 -71.6050415 23.38923645 C-70.60132507 23.39589828 -69.59760864 23.40256012 -68.56347656 23.40942383 C-67.42259583 23.40965042 -66.28171509 23.40987701 -65.10626221 23.41011047 C-63.88010193 23.42559433 -62.65394165 23.44107819 -61.390625 23.45703125 C-59.50135284 23.46339851 -59.50135284 23.46339851 -57.57391357 23.46989441 C-54.23311462 23.48383879 -50.89293416 23.51077075 -47.55230713 23.54400635 C-44.14039442 23.57475161 -40.7284177 23.58840921 -37.31640625 23.60351562 C-30.62743351 23.63660186 -23.93875246 23.68681476 -17.25 23.75 C-17.28480469 22.50863281 -17.31960937 21.26726562 -17.35546875 19.98828125 C-17.38361584 18.34636774 -17.41091501 16.70443954 -17.4375 15.0625 C-17.46263672 14.24587891 -17.48777344 13.42925781 -17.51367188 12.58789062 C-17.57171136 7.80930651 -17.40275518 4.61174798 -14.25 0.75 C-9.4242414 -1.98894407 -5.11744086 -1.96824648 0 0 Z " fill="#A4C1E0" transform="translate(128.25,144.25)"/>
<path d="M0 0 C3.62386478 2.16286 6.81373999 4.84808996 8 9 C8 11.64 8 14.28 8 17 C27.14 17 46.28 17 66 17 C66 13.7 66 10.4 66 7 C67.30220904 3.256149 69.1967466 1.62861272 72.5 -0.375 C78.83873224 -3.26368425 85.28020002 -1.98475516 91.625 0.3125 C94 2 94 2 94.875 4.1875 C94.91625 4.785625 94.9575 5.38375 95 6 C95.66 6 96.32 6 97 6 C98.28317892 9.84953676 98.06643637 12.94738135 98 17 C98.56847656 16.98839844 99.13695312 16.97679688 99.72265625 16.96484375 C104.60670484 16.90776806 109.18503965 17.18043228 114 18 C114 18.66 114 19.32 114 20 C114.83402344 20.14695312 115.66804687 20.29390625 116.52734375 20.4453125 C125.74532303 22.28257298 132.45332254 25.20013612 139 32 C139.825 32.825 140.65 33.65 141.5 34.5 C142.325 35.325 143.15 36.15 144 37 C144.515625 37.45375 145.03125 37.9075 145.5625 38.375 C149.72302049 43.07819707 152.24525128 49.39623359 155 55 C155.50563477 55.86842529 156.01126953 56.73685059 156.53222656 57.6315918 C158.2225156 61.51065331 158.47559919 64.82966007 158.51171875 68.984375 C158.52980591 69.7966153 158.54789307 70.60885559 158.56652832 71.44570923 C158.62259056 74.21376646 158.65579141 76.98156279 158.6875 79.75 C158.71947177 81.74561088 158.7517925 83.7412162 158.78442383 85.73681641 C158.89328297 93.15761026 158.95050151 100.57862433 159 108 C159.00809692 109.18382011 159.00809692 109.18382011 159.01635742 110.39155579 C159.10217829 123.1212626 159.15254093 135.8508674 159.18033218 148.58082581 C159.18748952 151.37091364 159.19780538 154.1609748 159.20883179 156.9510498 C159.22557984 161.40611606 159.23146849 165.86107756 159.22938538 170.31617355 C159.23009875 171.97538117 159.23416261 173.63459126 159.24183655 175.29378128 C159.31730343 192.87551217 156.1501062 208.9798847 143.8125 222.375 C143.214375 222.91125 142.61625 223.4475 142 224 C141.525625 224.53625 141.05125 225.0725 140.5625 225.625 C138.56285539 227.38468725 136.49516067 228.12332193 134 229 C134 229.66 134 230.32 134 231 C132.27473958 231.68359375 130.54947917 232.3671875 128.82421875 233.05078125 C126.93637143 233.89213875 126.93637143 233.89213875 125.71484375 235.47265625 C123.10303317 237.79889301 120.22765159 238.25069455 116.875 239.125 C112.62013567 239.92951743 112.62013567 239.92951743 109 242 C107.11089111 242.10312281 105.21788774 242.13522087 103.32597351 242.14044189 C102.09349884 242.14615204 100.86102417 242.15186218 99.59120178 242.15774536 C98.21273814 242.15899086 96.83427438 242.16011592 95.45581055 242.16113281 C94.01389437 242.16575868 92.57197942 242.17078302 91.13006592 242.17617798 C87.20229635 242.18932765 83.2745439 242.19575209 79.34675574 242.20018864 C76.89454208 242.20311566 74.44233314 242.20721979 71.99012184 242.21169281 C64.32279662 242.22537544 56.65548212 242.23503794 48.98814553 242.2388947 C40.12817894 242.24337538 31.26836663 242.26092044 22.40844697 242.2898953 C15.56680409 242.31149518 8.72520467 242.3215981 1.88352805 242.32293582 C-2.20565632 242.32398521 -6.29469581 242.3299211 -10.38384438 242.34775543 C-14.23092361 242.36420663 -18.07774864 242.36640613 -21.92485046 242.35761642 C-23.33739082 242.35684442 -24.74994467 242.36121033 -26.16245079 242.37107468 C-28.08993344 242.38374643 -30.01751769 242.37614307 -31.94502258 242.36749268 C-33.02406514 242.36895924 -34.1031077 242.3704258 -35.21484852 242.3719368 C-38.36720631 241.95096226 -39.62989171 241.04738512 -42 239 C-44.23811121 238.25992396 -44.23811121 238.25992396 -46.625 237.75 C-52.68355035 236.06111207 -57.0286266 232.73066919 -62 229 C-63.18181969 228.26166234 -64.36833929 227.53070644 -65.5625 226.8125 C-68.29191271 224.7829367 -68.36803307 224.15983467 -69 221 C-69.60714844 220.72285156 -70.21429688 220.44570313 -70.83984375 220.16015625 C-77.45551975 216.60707167 -81.57082982 204.80577637 -84 198 C-85.1759416 193.11940028 -84.04250826 189.54072606 -81.5 185.3125 C-77.70363513 180.11605731 -73.2882375 177.22353023 -67.3125 175 C-64.09170267 175 -62.61452802 176.15069969 -60 178 C-59.02675781 178.55945313 -58.05351563 179.11890625 -57.05078125 179.6953125 C-53.45757873 182.40976767 -52.40302448 184.58540799 -50.625 188.6875 C-47.61670003 195.25738009 -43.71960445 202.64019778 -37 206 C-35.09006356 206.10226829 -33.17652734 206.13950136 -31.26387024 206.14717102 C-29.43222069 206.15790398 -29.43222069 206.15790398 -27.56356812 206.16885376 C-26.20294215 206.17169417 -24.84231591 206.17440589 -23.48168945 206.17700195 C-22.05434503 206.18326581 -20.62700225 206.18991254 -19.19966125 206.19691467 C-15.31514173 206.21433431 -11.43063452 206.22487958 -7.5460856 206.2331202 C-5.11880228 206.23826954 -2.69152279 206.24434537 -0.26424217 206.25063133 C7.33100149 206.26968823 14.92623541 206.28391691 22.52149838 206.2922433 C31.28695093 206.30201111 40.05215065 206.32831647 48.81751412 206.36874419 C55.5929815 206.39892055 62.36837648 206.41371371 69.14390975 206.41702431 C73.19019233 206.41937356 77.23620495 206.42831692 81.28241539 206.45348549 C85.09181573 206.47679729 88.90076901 206.48098721 92.71022224 206.47072411 C94.10538598 206.47022934 95.50057194 206.47653231 96.89566803 206.49028015 C105.69859186 206.57214521 111.28898082 206.27933217 117.9609375 200.21875 C118.42757812 199.6515625 118.89421875 199.084375 119.375 198.5 C119.85710937 197.9328125 120.33921875 197.365625 120.8359375 196.78125 C124.2239421 191.59692082 123.36673774 184.49321337 123.55859375 178.55078125 C123.60084579 177.27753494 123.64309784 176.00428864 123.68663025 174.69245911 C124.17272272 158.98450529 124.11405009 143.2730074 124.06866455 127.55938721 C124.05818832 123.52852939 124.05381653 119.49766455 124.04882812 115.46679688 C124.03829952 107.64451258 124.02094429 99.82226385 124 92 C123.10359425 92.07142275 122.20718849 92.1428455 121.28361893 92.21643257 C111.8224329 92.91598807 102.41866795 93.12232032 92.93261719 93.06591797 C91.38849543 93.06070823 89.8443719 93.0560035 88.30024719 93.05175781 C85.01014301 93.04191861 81.72006932 93.02911108 78.42998505 93.01403427 C73.22760653 92.99075046 68.02523161 92.97760586 62.82281494 92.96633911 C48.04181959 92.93307549 33.26088345 92.89099147 18.47998047 92.82861328 C10.29012291 92.79413544 2.10030675 92.77030265 -6.08961558 92.75840485 C-11.26303039 92.7503044 -16.43617199 92.72905954 -21.6094985 92.69819999 C-24.81636375 92.68223197 -28.02314984 92.67877996 -31.23005104 92.67897034 C-32.71882457 92.67654283 -34.20759978 92.66893894 -35.69631767 92.65584183 C-37.72409107 92.63874058 -39.75200496 92.64179804 -41.77984619 92.64596558 C-42.91537052 92.64190138 -44.05089485 92.63783718 -45.22082901 92.63364983 C-48.00551504 92.76923391 -48.00551504 92.76923391 -49.83333969 94.37808418 C-51.31775908 96.44175539 -51.93243902 98.45143842 -52.6875 100.875 C-54.47117582 105.4444167 -56.21477126 107.9245046 -60.58203125 110.21875 C-65.38029543 111.76907768 -70.05521527 111.90228112 -75 111 C-78.48242391 108.47353559 -79.65226822 107.04319535 -81 103 C-81.66 103 -82.32 103 -83 103 C-85.15971284 95.98950355 -85.30008433 89.42896447 -85.25 82.125 C-85.25773437 81.00480469 -85.26546875 79.88460937 -85.2734375 78.73046875 C-85.25277685 69.87738103 -84.96944926 61.55356288 -80 54 C-79.47561956 52.65508643 -78.9774261 51.29978913 -78.5 49.9375 C-77.38791187 46.83413364 -76.10608928 44.56393478 -74 42 C-73.71125 41.360625 -73.4225 40.72125 -73.125 40.0625 C-68.67236788 31.89934112 -56.91612062 23.8881236 -48.24609375 21.12109375 C-46.85583984 20.78271484 -46.85583984 20.78271484 -45.4375 20.4375 C-41.60150901 19.50944357 -41.60150901 19.50944357 -38.01953125 17.91796875 C-35.33921784 16.69964447 -33.17813432 16.80528252 -30.25 16.875 C-29.26515625 16.89304687 -28.2803125 16.91109375 -27.265625 16.9296875 C-26.51796875 16.95289062 -25.7703125 16.97609375 -25 17 C-25.0825 16.154375 -25.165 15.30875 -25.25 14.4375 C-24.84241613 8.83322173 -22.12369241 5.29656816 -18.5625 1.1875 C-12.23375915 -4.21508365 -7.3047204 -2.8918981 0 0 Z M-17.9375 2.6875 C-18.618125 3.780625 -19.29875 4.87375 -20 6 C-20.5775 6.804375 -21.155 7.60875 -21.75 8.4375 C-23.29118076 11.59692056 -23.56176291 14.53062304 -24 18 C-24.89460938 18.10957031 -25.78921875 18.21914063 -26.7109375 18.33203125 C-44.4721908 20.66106553 -57.63577233 25.75900365 -70 39 C-79.80445124 51.85960611 -83.35181619 66.73380369 -83.3125 82.5625 C-83.32861328 83.86380859 -83.34472656 85.16511719 -83.36132812 86.50585938 C-83.36197266 87.76333984 -83.36261719 89.02082031 -83.36328125 90.31640625 C-83.36626221 91.45537354 -83.36924316 92.59434082 -83.37231445 93.76782227 C-82.66820673 99.88040072 -79.72574626 104.10640614 -75.01953125 107.8515625 C-71.33753744 109.9453849 -68.05845129 110.06655546 -64 109 C-60.99116116 107.35063651 -58.36860872 105.49123424 -56 103 C-56 102.34 -56 101.68 -56 101 C-55.34 101 -54.68 101 -54 101 C-53.97287934 99.56260487 -53.95354933 98.12506137 -53.9375 96.6875 C-53.92589844 95.88699219 -53.91429688 95.08648437 -53.90234375 94.26171875 C-53.90342145 91.83138666 -53.90342145 91.83138666 -55 89 C-53.515 89.495 -53.515 89.495 -52 90 C-49.61603267 90.09269327 -47.22947233 90.12192405 -44.84370422 90.12025452 C-43.7434255 90.12153615 -43.7434255 90.12153615 -42.62091893 90.12284368 C-40.15651572 90.12449428 -37.69218017 90.11898397 -35.2277832 90.11352539 C-33.46381634 90.1132434 -31.69984936 90.11340148 -29.93588257 90.1139679 C-25.14074836 90.11425542 -20.34563905 90.10836599 -15.55051064 90.10139394 C-10.54166556 90.09515287 -5.53281993 90.094556 -0.52397156 90.09336853 C8.96387169 90.09025744 18.45170345 90.08204704 27.93954164 90.07201904 C38.73988784 90.06085102 49.54023458 90.05534571 60.34058511 90.05032361 C82.56039649 90.03986425 104.78019752 90.02226909 127 90 C126.96192031 102.90038772 126.90252484 115.80048574 126.81609726 128.70064545 C126.77662897 134.69106626 126.74443711 140.68134022 126.72900391 146.671875 C126.71383336 152.45570502 126.67937993 158.23913127 126.63169098 164.02278137 C126.61688144 166.22667425 126.60895923 168.43062478 126.60811615 170.63456726 C126.60574355 173.72751653 126.57863893 176.81935265 126.54589844 179.91210938 C126.55344398 181.27157684 126.55344398 181.27157684 126.56114197 182.6585083 C126.4382418 190.18837869 124.06145841 196.08118812 119.125 201.8125 C118.67382812 202.35519531 118.22265625 202.89789063 117.7578125 203.45703125 C113.49529949 207.19857045 109.30687325 208.37506825 103.73143005 208.38095093 C101.87457581 208.39364014 101.87457581 208.39364014 99.98020935 208.40658569 C98.62148915 208.40075374 97.26277026 208.39460929 95.90405273 208.38818359 C94.46301883 208.39225181 93.02198804 208.3975951 91.58096313 208.40411377 C87.67813646 208.41776229 83.77554833 208.41249932 79.87271762 208.40297651 C75.78444713 208.39536857 71.69619673 208.40242854 67.60792542 208.40713501 C60.74419496 208.41258864 53.88056143 208.40541062 47.0168457 208.39111328 C39.08466914 208.37478098 31.15272384 208.38008099 23.22055286 208.3965925 C16.40510341 208.41021081 9.58972353 208.41212554 2.77426487 208.40427649 C-1.29417553 208.3996027 -5.36250724 208.39896715 -9.43094063 208.40888596 C-13.25514036 208.41755863 -17.07904211 208.41152845 -20.90320969 208.39420319 C-22.30564695 208.3902402 -23.70810934 208.39136921 -25.11053658 208.39799118 C-27.02648644 208.40620315 -28.94249118 208.39407368 -30.8584137 208.38095093 C-31.93004037 208.37981985 -33.00166704 208.37868877 -34.10576725 208.37752342 C-38.10944961 207.85528351 -40.77606709 206.27621145 -43.5546875 203.37890625 C-46.47300739 199.36405788 -48.97689189 195.28679606 -51.375 190.9375 C-54.4466393 185.58755871 -57.64728253 181.21819824 -63 178 C-67.7598621 177.04802758 -70.94014969 178.45079167 -75 181 C-75.33 181.99 -75.66 182.98 -76 184 C-76.99 184.33 -77.98 184.66 -79 185 C-82.08987784 189.4141112 -82.31441652 192.72011233 -81.50390625 197.84765625 C-80.78303087 200.92674409 -79.61306436 203.27447745 -78 206 C-77.61070313 206.72703125 -77.22140625 207.4540625 -76.8203125 208.203125 C-70.20519788 220.08790719 -61.28884332 229.16006683 -49 235 C-46.13925582 235.78059287 -43.98190505 236 -41 236 C-41 236.66 -41 237.32 -41 238 C-38.27960354 239.36019823 -36.14953339 239.12281473 -33.10287476 239.12025452 C-31.84641647 239.12162918 -30.58995819 239.12300385 -29.29542542 239.12442017 C-27.89535499 239.12088079 -26.4952848 239.11724597 -25.09521484 239.11352539 C-23.62695823 239.11324344 -22.15870148 239.1134014 -20.69044495 239.1139679 C-16.69687681 239.11425558 -12.70333853 239.10836358 -8.70977736 239.10139394 C-4.53907388 239.09515553 -0.36836977 239.09455621 3.80233765 239.09336853 C11.70357997 239.09025666 19.6048085 239.0820452 27.50604475 239.07201904 C36.49987216 239.06085345 45.49370023 239.05534633 54.48753285 239.05032361 C72.99169639 239.03986247 91.49584709 239.0222658 110 239 C110 238.34 110 237.68 110 237 C111.2375 236.95875 112.475 236.9175 113.75 236.875 C125.67872893 235.54123661 136.199174 227.55433611 143.6875 218.625 C145.14286671 216.76383397 146.58198687 214.88978041 148 213 C148.51949219 212.31808594 149.03898438 211.63617188 149.57421875 210.93359375 C155.9354567 201.78334456 156.44737864 190.70373976 156.41992188 179.91040039 C156.42839142 178.6615657 156.43686096 177.41273102 156.44558716 176.12605286 C156.46482406 172.73738982 156.47074544 169.34928049 156.46883965 165.96060109 C156.46871894 163.1155021 156.47732325 160.27045312 156.48561716 157.42536825 C156.50476927 150.70582594 156.50776459 143.98640781 156.50097656 137.2668457 C156.4943365 130.3695315 156.51721715 123.47275214 156.55429029 116.57554632 C156.58512178 110.62013013 156.59633303 104.66488485 156.59245348 98.70939058 C156.5904004 95.16715501 156.59563931 91.6253364 156.62034607 88.08317757 C156.64702799 84.12824168 156.63278319 80.17399175 156.61523438 76.21899414 C156.62849762 75.06898926 156.64176086 73.91898437 156.65542603 72.73413086 C156.52532968 60.03220436 151.79434125 49.84731506 144 40 C143.505 39.35289063 143.01 38.70578125 142.5 38.0390625 C134.06284573 27.53847376 120.87662423 20.91150603 107.49609375 19.3359375 C103.9974225 19.04961263 100.51087997 18.96375198 97 19 C96.94392578 18.12988281 96.94392578 18.12988281 96.88671875 17.2421875 C96.46698278 12.25473656 95.87044012 8.25250388 93 4 C90.92309422 3.03955898 90.92309422 3.03955898 89 3 C89 2.34 89 1.68 89 1 C84.34965799 -0.31025803 79.79349737 -0.70034864 75 0 C71.97769298 2.10501871 71.97769298 2.10501871 70 5 C69.01 6.32 68.02 7.64 67 9 C67.33 12.3 67.66 15.6 68 19 C47.87 19 27.74 19 7 19 C7 16.03 7 13.06 7 10 C5.10566996 6.03668539 1.79276552 3.55853934 -1.75 1.0625 C-7.80275691 -0.91628591 -13.03391393 -1.7987596 -17.9375 2.6875 Z " fill="#F5F9FD" transform="translate(126,42)"/>
<path d="M0 0 C2.47456702 0.41846337 4.23509647 1.16496287 6.40234375 2.40625 C6.07234375 3.06625 5.74234375 3.72625 5.40234375 4.40625 C4.51546875 4.24125 3.62859375 4.07625 2.71484375 3.90625 C-0.13362517 3.47629243 -2.72770427 3.32183965 -5.59765625 3.40625 C-5.86578125 3.98503906 -6.13390625 4.56382813 -6.41015625 5.16015625 C-7.61892247 7.44647394 -8.99393092 9.31904678 -10.59765625 11.34375 C-12.47341199 13.75929157 -13.57782183 15.34542444 -14.53515625 18.28125 C-15.59765625 20.40625 -15.59765625 20.40625 -18.47265625 21.59375 C-22.87405857 22.58522378 -27.36453014 23.2020008 -31.828125 23.84375 C-34.4396544 24.37415936 -36.2970934 25.09969426 -38.59765625 26.40625 C-40.90631552 27.56057963 -43.21665495 28.70916426 -45.53515625 29.84375 C-47.05109375 30.6171875 -47.05109375 30.6171875 -48.59765625 31.40625 C-49.89703125 32.0559375 -49.89703125 32.0559375 -51.22265625 32.71875 C-54.26375737 34.87953238 -55.60719346 37.24492675 -57.59765625 40.40625 C-59.44694643 42.67583341 -61.31292617 44.92781812 -63.20703125 47.16015625 C-64.85647936 49.82429294 -64.61804282 51.34316737 -64.59765625 54.40625 C-65.58765625 55.06625 -66.57765625 55.72625 -67.59765625 56.40625 C-69.13826882 60.2951402 -69.13826882 60.2951402 -69.59765625 64.40625 C-70.08588867 64.79876953 -70.57412109 65.19128906 -71.07714844 65.59570312 C-73.41410566 68.37843832 -72.95221961 70.79943996 -72.92578125 74.375 C-72.92390808 75.05171753 -72.92203491 75.72843506 -72.92010498 76.42565918 C-72.91339062 77.85462378 -72.89948812 79.2835702 -72.87890625 80.71240234 C-72.84776969 82.89828604 -72.83793559 85.0834478 -72.83203125 87.26953125 C-72.9680136 94.44274612 -72.9680136 94.44274612 -71.59765625 101.40625 C-70.60765625 102.06625 -69.61765625 102.72625 -68.59765625 103.40625 C-68.59765625 104.06625 -68.59765625 104.72625 -68.59765625 105.40625 C-63.39212114 106.28854409 -60.46787024 106.69811541 -55.59765625 104.40625 C-54.93765625 104.73625 -54.27765625 105.06625 -53.59765625 105.40625 C-53.59765625 104.74625 -53.59765625 104.08625 -53.59765625 103.40625 C-52.93765625 103.40625 -52.27765625 103.40625 -51.59765625 103.40625 C-50.21505688 99.99041627 -49.49851461 97.9570369 -50.16015625 94.28125 C-50.59765625 91.40625 -50.59765625 91.40625 -49.4050293 89.26464844 C-47.18369296 86.98059978 -46.25513703 86.87954466 -43.1171875 86.796875 C-42.19744141 86.76464844 -41.27769531 86.73242188 -40.33007812 86.69921875 C-39.36650391 86.68503906 -38.40292969 86.67085938 -37.41015625 86.65625 C-36.52779297 86.62660156 -35.64542969 86.59695312 -34.73632812 86.56640625 C-13.54013505 85.96038848 7.69719835 86.47833538 28.89429665 86.81010818 C32.58572037 86.86748764 36.27717582 86.92275352 39.96862793 86.97827148 C46.91646405 87.08307115 53.86427092 87.18969156 60.81206846 87.29701519 C68.73990085 87.4193852 76.66776477 87.53965075 84.5956316 87.65976524 C100.86457108 87.9063005 117.13347029 88.15539498 133.40234375 88.40625 C133.40234375 89.06625 133.40234375 89.72625 133.40234375 90.40625 C110.24584033 90.42958865 87.08933883 90.44723394 63.93282604 90.45806217 C53.18136897 90.46322307 42.42991919 90.47026186 31.6784668 90.48168945 C22.3098029 90.49164257 12.94114429 90.49810493 3.57247525 90.50033849 C-1.39022042 90.50164453 -6.35290097 90.50472366 -11.31559181 90.51198006 C-15.98335895 90.51875014 -20.65110469 90.52086493 -25.31887627 90.51935768 C-27.03499086 90.51963356 -28.75110614 90.52163284 -30.46721649 90.52545547 C-32.80461236 90.53040812 -35.14192671 90.52924243 -37.47932434 90.52650452 C-38.78919217 90.52742631 -40.09906 90.5283481 -41.4486208 90.52929783 C-44.59765625 90.40625 -44.59765625 90.40625 -47.59765625 89.40625 C-47.26765625 90.39625 -46.93765625 91.38625 -46.59765625 92.40625 C-46.5302476 93.96743428 -46.51251169 95.5312752 -46.53515625 97.09375 C-46.54417969 97.90199219 -46.55320312 98.71023437 -46.5625 99.54296875 C-46.57410156 100.15785156 -46.58570312 100.77273437 -46.59765625 101.40625 C-47.25765625 101.40625 -47.91765625 101.40625 -48.59765625 101.40625 C-48.90703125 102.2725 -48.90703125 102.2725 -49.22265625 103.15625 C-51.21775809 106.42096209 -53.18794347 107.67039622 -56.59765625 109.40625 C-60.84549295 110.40343163 -64.11162727 110.31564893 -67.8828125 108.0078125 C-72.63997812 104.05358046 -75.28037295 100.70812929 -75.88818359 94.3828125 C-75.93776229 90.72358501 -75.96897827 87.06583878 -75.97265625 83.40625 C-75.99714844 82.15457031 -76.02164063 80.90289062 -76.046875 79.61328125 C-76.09716623 63.43626891 -70.4274244 46.90877718 -58.91015625 35.21875 C-57.50295216 33.91444932 -56.06536247 32.64207445 -54.59765625 31.40625 C-53.79972656 30.72046875 -53.00179687 30.0346875 -52.1796875 29.328125 C-42.3070707 21.97967195 -28.66340292 19.1652666 -16.59765625 18.40625 C-16.49453125 17.354375 -16.39140625 16.3025 -16.28515625 15.21875 C-15.59450779 11.38879037 -14.83527008 9.52292641 -12.59765625 6.40625 C-11.91703125 5.313125 -11.23640625 4.22 -10.53515625 3.09375 C-6.83220343 -0.2940579 -4.84039084 -0.1789975 0 0 Z " fill="#98BEDE" transform="translate(118.59765625,41.59375)"/>
<path d="M0 0 C2.75 1.75 2.75 1.75 3.62890625 3.625 C5.09073131 6.39584611 6.92842712 7.64028901 9.4375 9.5 C13.56702083 12.68937055 16.90538449 16.00525205 20.23046875 20.0078125 C22.17362822 22.23570227 24.43410706 23.92166347 26.75 25.75 C28.49219658 27.69441583 30.10741542 29.71838223 31.75 31.75 C32.306875 32.28625 32.86375 32.8225 33.4375 33.375 C35.96537838 36.02325354 36.69104605 38.17225126 37.0625 41.8125 C36.75 44.75 36.75 44.75 35.375 46.625 C33.75 47.75 33.75 47.75 31.75 47.75 C31.37875 48.6471875 31.37875 48.6471875 31 49.5625 C29.57997292 52.04754739 28.02294041 53.06362486 25.75 54.75 C25.42 55.74 25.09 56.73 24.75 57.75 C23.12897032 59.46108689 21.45496537 61.12253306 19.75 62.75 C18.5125 64.0184375 18.5125 64.0184375 17.25 65.3125 C14.85821597 67.64448943 12.35605661 69.66515471 9.75 71.75 C7.34156463 74.09969304 4.9956298 76.48948354 2.6875 78.9375 C0.13157253 81.32852893 -1.9030742 82.72154382 -5.46875 82.796875 C-6.2215625 82.69890625 -6.974375 82.6009375 -7.75 82.5 C-8.5028125 82.41234375 -9.255625 82.3246875 -10.03125 82.234375 C-12.41858184 81.71319692 -14.19080523 81.06860718 -16.25 79.75 C-17.15238747 77.04283758 -17.36851302 75.51223232 -17.34765625 72.73828125 C-17.34282227 71.60229492 -17.34282227 71.60229492 -17.33789062 70.44335938 C-17.32532227 69.26483398 -17.32532227 69.26483398 -17.3125 68.0625 C-17.30798828 67.26521484 -17.30347656 66.46792969 -17.29882812 65.64648438 C-17.2870585 63.68095743 -17.26912348 61.71546915 -17.25 59.75 C-17.96996658 59.74413376 -18.68993317 59.73826752 -19.43171692 59.73222351 C-26.21513026 59.67433137 -32.99826098 59.60227486 -39.78134632 59.51428509 C-43.2686768 59.46954792 -46.75588957 59.43029968 -50.2434082 59.40356445 C-54.25241787 59.37259149 -58.26079367 59.31780184 -62.26953125 59.26171875 C-63.52272659 59.25532883 -64.77592194 59.2489389 -66.0670929 59.24235535 C-67.22806992 59.22256119 -68.38904694 59.20276703 -69.58520508 59.18237305 C-70.60890701 59.17126999 -71.63260895 59.16016693 -72.68733215 59.14872742 C-75.64871468 58.68796368 -76.37284371 57.99721614 -78.25 55.75 C-79.4875 55.069375 -79.4875 55.069375 -80.75 54.375 C-84.44113313 51.97576347 -85.79651495 49.70096448 -86.79296875 45.4140625 C-87.46075068 41.01066882 -87.62054748 38.50534678 -85.625 34.4375 C-76.4447844 24.0493613 -76.4447844 24.0493613 -71.6050415 23.38923645 C-70.60132507 23.39589828 -69.59760864 23.40256012 -68.56347656 23.40942383 C-67.42259583 23.40965042 -66.28171509 23.40987701 -65.10626221 23.41011047 C-63.88010193 23.42559433 -62.65394165 23.44107819 -61.390625 23.45703125 C-59.50135284 23.46339851 -59.50135284 23.46339851 -57.57391357 23.46989441 C-54.23311462 23.48383879 -50.89293416 23.51077075 -47.55230713 23.54400635 C-44.14039442 23.57475161 -40.7284177 23.58840921 -37.31640625 23.60351562 C-30.62743351 23.63660186 -23.93875246 23.68681476 -17.25 23.75 C-17.28480469 22.50863281 -17.31960937 21.26726562 -17.35546875 19.98828125 C-17.38361584 18.34636774 -17.41091501 16.70443954 -17.4375 15.0625 C-17.46263672 14.24587891 -17.48777344 13.42925781 -17.51367188 12.58789062 C-17.57171136 7.80930651 -17.40275518 4.61174798 -14.25 0.75 C-9.4242414 -1.98894407 -5.11744086 -1.96824648 0 0 Z M-12.6875 3.0625 C-15.33184401 7.6107717 -15.5389751 11.80330309 -15.8125 16.9375 C-15.87727539 18.06188477 -15.87727539 18.06188477 -15.94335938 19.20898438 C-16.04922685 21.05578375 -16.1500976 22.90286834 -16.25 24.75 C-17.33541832 24.76759872 -17.33541832 24.76759872 -18.44276428 24.78555298 C-25.28438715 24.90168268 -32.12490735 25.04598661 -38.96524906 25.22142982 C-42.48153962 25.31063633 -45.99737784 25.38918542 -49.5144043 25.44287109 C-53.56415847 25.50516636 -57.61146518 25.61471977 -61.66015625 25.7265625 C-62.91458023 25.73934235 -64.16900421 25.75212219 -65.46144104 25.76528931 C-71.95977075 25.98317606 -76.28150145 26.38772541 -81.00120544 31.08285522 C-84.75742673 36.09742281 -84.84735445 40.66083852 -84.25 46.75 C-82.80009803 51.35557098 -80.8244564 53.59643812 -76.57907104 55.91174316 C-71.49456081 57.74171116 -66.00055906 57.35414438 -60.66015625 57.359375 C-58.71066322 57.38417938 -58.71066322 57.38417938 -56.7217865 57.40948486 C-53.2875781 57.45296134 -49.85362417 57.47311302 -46.41918945 57.48822021 C-42.90626093 57.50786314 -39.3936044 57.54982467 -35.88085938 57.58984375 C-29.00400928 57.66493145 -22.12716962 57.71535214 -15.25 57.75 C-15.23541748 58.34014893 -15.22083496 58.93029785 -15.20581055 59.53833008 C-15.13131156 62.21371229 -15.03466005 64.88784892 -14.9375 67.5625 C-14.91494141 68.49126953 -14.89238281 69.42003906 -14.86914062 70.37695312 C-14.8159668 71.7159668 -14.8159668 71.7159668 -14.76171875 73.08203125 C-14.72244263 74.31530151 -14.72244263 74.31530151 -14.68237305 75.57348633 C-14.15845469 78.21082804 -13.34957551 79.11703255 -11.25 80.75 C-7.41314032 81.70921492 -3.71702081 81.62322667 -0.28125 79.578125 C1.51529539 78.0494855 3.1290887 76.46385346 4.75 74.75 C5.4821875 74.02683594 6.214375 73.30367188 6.96875 72.55859375 C11.28659275 68.1983003 15.45255871 63.69647799 19.63647461 59.20800781 C24.07280873 54.4684435 28.58532046 49.9219356 33.44140625 45.609375 C35.02581174 43.77942941 35.02581174 43.77942941 34.54296875 41.203125 C32.07304166 33.5621683 27.62979646 29.3639094 21.6875 24.25 C18.65044943 21.63460373 16.25450126 18.88062658 13.75 15.75 C13.12609375 15.45738281 12.5021875 15.16476563 11.859375 14.86328125 C8.62264934 13.15500937 6.80398286 10.43492426 4.53125 7.625 C2.86070589 5.65005937 2.86070589 5.65005937 0.59375 4.6875 C-1.25 3.75 -1.25 3.75 -2.25 0.75 C-8.07303303 0.03861344 -8.07303303 0.03861344 -12.6875 3.0625 Z " fill="#F0F5FA" transform="translate(128.25,144.25)"/>
<path d="M0 0 C0.99 0 1.98 0 3 0 C3 2.64 3 5.28 3 8 C3.85271484 7.98259766 3.85271484 7.98259766 4.72265625 7.96484375 C9.60670484 7.90776806 14.18503965 8.18043228 19 9 C19 9.66 19 10.32 19 11 C20.25103516 11.22042969 20.25103516 11.22042969 21.52734375 11.4453125 C30.74532303 13.28257298 37.45332254 16.20013612 44 23 C44.825 23.825 45.65 24.65 46.5 25.5 C47.325 26.325 48.15 27.15 49 28 C49.515625 28.45375 50.03125 28.9075 50.5625 29.375 C54.72302049 34.07819707 57.24525128 40.39623359 60 46 C60.51040329 46.76855316 61.02080658 47.53710632 61.54667664 48.32894897 C63.71430006 53.80430043 63.36207515 58.99199518 63.28051758 64.82666016 C63.27441467 66.11833603 63.26831177 67.4100119 63.26202393 68.74082947 C63.24473858 72.27183127 63.20843567 75.8024021 63.16811585 79.33320665 C63.1285674 83.03215324 63.10477799 86.73120533 63.07878113 90.43026733 C63.0327178 96.63918561 62.97457646 102.84790024 62.90893555 109.05664062 C62.83318214 116.23319944 62.77515269 123.40973179 62.72690278 130.58652461 C62.68015937 137.49574638 62.62223717 144.40482832 62.55875206 151.31391525 C62.5318677 154.2523988 62.50865646 157.19087746 62.48835182 160.1294136 C62.45930025 164.23049002 62.41377637 168.33122265 62.36645508 172.43212891 C62.35958176 173.65196976 62.35270844 174.87181061 62.34562683 176.12861633 C62.33012787 177.24452652 62.31462891 178.36043671 62.29866028 179.51016235 C62.28923306 180.47947001 62.27980585 181.44877766 62.27009296 182.44745827 C61.99149858 185.0803436 61.33961215 186.7381971 60 189 C59.67 188.34 59.34 187.68 59 187 C59.33 186.01 59.66 185.02 60 184 C60.10054156 182.2659587 60.1435929 180.52833538 60.15390015 178.79141235 C60.16250061 177.71223541 60.17110107 176.63305847 60.17996216 175.5211792 C60.18422211 174.3367926 60.18848206 173.15240601 60.19287109 171.93212891 C60.20104858 170.68460846 60.20922607 169.43708801 60.21765137 168.15176392 C60.24252539 164.01003336 60.25918693 159.86833943 60.2734375 155.7265625 C60.27879964 154.297011 60.28417715 152.86745956 60.28956985 151.43790817 C60.31120477 145.48444048 60.3299352 139.53097546 60.34119225 133.57747841 C60.35738738 125.07000243 60.39044905 116.56298638 60.44759309 108.05568373 C60.48646353 102.06226388 60.50584557 96.06896608 60.51111281 90.0754236 C60.51474577 86.50282794 60.52654291 82.93072296 60.55921555 79.35826492 C60.59526268 75.35917751 60.59088235 71.3610598 60.58349609 67.36181641 C60.59990143 66.19767212 60.61630676 65.03352783 60.63320923 63.83410645 C60.53713952 51.04508814 55.80144602 40.93734075 48 31 C47.57847656 30.42636719 47.15695312 29.85273437 46.72265625 29.26171875 C39.26709281 19.54689366 26.6699457 13.64696455 14.7265625 11.61279297 C11.38596073 11.24499985 8.1085287 11.12012635 4.74609375 11.0703125 C2 11 2 11 1 10 C0.76712992 8.31816052 0.58735834 6.6287584 0.4375 4.9375 C0.35371094 4.01839844 0.26992187 3.09929688 0.18359375 2.15234375 C0.09271484 1.08693359 0.09271484 1.08693359 0 0 Z " fill="#CBD7E9" transform="translate(221,51)"/>
<path d="M0 0 C3.62386478 2.16286 6.81373999 4.84808996 8 9 C8 11.64 8 14.28 8 17 C27.14 17 46.28 17 66 17 C66 13.7 66 10.4 66 7 C67.30220904 3.256149 69.1967466 1.62861272 72.5 -0.375 C78.83873224 -3.26368425 85.28020002 -1.98475516 91.625 0.3125 C94 2 94 2 94.875 4.1875 C94.91625 4.785625 94.9575 5.38375 95 6 C95.66 6 96.32 6 97 6 C97 6.99 97 7.98 97 9 C96.01 9 95.02 9 94 9 C93.9175 8.38125 93.835 7.7625 93.75 7.125 C93.18741541 4.81562433 93.18741541 4.81562433 90.9375 3.75 C90.298125 3.5025 89.65875 3.255 89 3 C89 2.34 89 1.68 89 1 C83.72 1 78.44 1 73 1 C72.34 2.32 71.68 3.64 71 5 C70.01 6.32 69.02 7.64 68 9 C68 12.3 68 15.6 68 19 C47.87 19 27.74 19 7 19 C6.505 14.545 6.505 14.545 6 10 C3.04160527 5.43561956 0.16305115 2.75348907 -5 1 C-8.43405967 0.51019751 -11.57874952 0.36992461 -15 1 C-17.5714939 3.0684887 -17.5714939 3.0684887 -19 6 C-19.556875 6.78375 -20.11375 7.5675 -20.6875 8.375 C-22.28295622 11.56591244 -22.59350345 14.47702993 -23 18 C-24.81115956 19.81115956 -27.61278227 19.38199448 -30.0625 19.5625 C-31.71958984 19.68818359 -31.71958984 19.68818359 -33.41015625 19.81640625 C-34.26480469 19.87699219 -35.11945313 19.93757813 -36 20 C-35.67 19.34 -35.34 18.68 -35 18 C-31.7 18 -28.4 18 -25 18 C-25.0825 16.989375 -25.165 15.97875 -25.25 14.9375 C-24.87211121 8.98575154 -22.333711 5.53889731 -18.5625 1.1875 C-12.23375915 -4.21508365 -7.3047204 -2.8918981 0 0 Z " fill="#EFF5F9" transform="translate(126,42)"/>
<path d="M0 0 C1.134375 0.12375 2.26875 0.2475 3.4375 0.375 C4.4275 1.86 4.4275 1.86 5.4375 3.375 C-1.53263276 6.58126107 -7.63224356 7.52942432 -15.33203125 7.5078125 C-16.10182816 7.50913177 -16.87162506 7.51045105 -17.66474915 7.5118103 C-20.23487175 7.51374694 -22.80488807 7.50731167 -25.375 7.5 C-26.26257996 7.49911377 -27.15015991 7.49822754 -28.06463623 7.49731445 C-54.23386423 7.46723289 -80.39951761 6.90295351 -106.5625 6.375 C-102.76251247 3.87617175 -98.9060594 4.09961827 -94.52441406 4.13208008 C-93.31386353 4.12923256 -93.31386353 4.12923256 -92.07885742 4.12632751 C-89.41184764 4.1226243 -86.7451106 4.13332153 -84.078125 4.14453125 C-82.21970654 4.14572394 -80.36128747 4.14617602 -78.50286865 4.1459198 C-74.60571523 4.14748414 -70.70865373 4.1557671 -66.81152344 4.16918945 C-61.83066441 4.18613184 -56.84990683 4.19000501 -51.86902237 4.18924427 C-48.02902264 4.18951712 -44.18904483 4.19501755 -40.34905243 4.20224571 C-38.51354895 4.20541572 -36.67804299 4.20739587 -34.84253693 4.20813942 C-32.26770364 4.21032345 -29.69297467 4.21911307 -27.11816406 4.22973633 C-26.36774841 4.22928314 -25.61733276 4.22882996 -24.84417725 4.22836304 C-21.23382281 4.24998942 -17.75144071 4.43887815 -14.17230225 4.93095398 C-10.5767218 5.37325056 -9.39935337 5.47637287 -6.5625 3.375 C-6.129375 2.83875 -5.69625 2.3025 -5.25 1.75 C-3.5625 0.375 -3.5625 0.375 0 0 Z " fill="#547ABA" transform="translate(243.5625,272.625)"/>
<path d="M0 0 C0.77810813 11.80995227 0.77810813 11.80995227 -2.125 16.25 C-5.84813188 18.51625419 -8.80348555 19.49891034 -13.13037109 18.51611328 C-17.07076828 17.8074184 -20.91849033 17.85729832 -24.9140625 17.8671875 C-25.76551849 17.86623077 -26.61697449 17.86527405 -27.49423218 17.86428833 C-29.28782221 17.86360979 -31.08141473 17.8654413 -32.875 17.86962891 C-35.62245165 17.87499502 -38.36974082 17.86966609 -41.1171875 17.86328125 C-42.86197953 17.86394183 -44.60677145 17.86522258 -46.3515625 17.8671875 C-47.5844249 17.86415115 -47.5844249 17.86415115 -48.8421936 17.86105347 C-52.14863552 17.87468747 -54.84127989 17.9470933 -58 19 C-60.35188447 18.40206327 -62.68925595 17.74118205 -65 17 C-65 16.34 -65 15.68 -65 15 C-44.87 15 -24.74 15 -4 15 C-4.33 11.7 -4.66 8.4 -5 5 C-2 0 -2 0 0 0 Z " fill="#81AACD" transform="translate(198,46)"/>
<path d="M0 0 C86.625 0.495 86.625 0.495 175 1 C175 1.33 175 1.66 175 2 C117.91 2 60.82 2 2 2 C2 3.98 2 5.96 2 8 C1.67 8 1.34 8 1 8 C0.67 5.36 0.34 2.72 0 0 Z " fill="#DCE8F5" transform="translate(71,131)"/>
<path d="M0 0 C0.66 0 1.32 0 2 0 C2.05878077 3.64576392 2.0938558 7.29140352 2.125 10.9375 C2.14175781 11.95908203 2.15851563 12.98066406 2.17578125 14.03320312 C2.27832291 30.08097302 -3.30943592 39.2110903 -14 51 C-15.63177714 52.3758121 -17.29548842 53.71540051 -19 55 C-20.010625 55.763125 -21.02125 56.52625 -22.0625 57.3125 C-25 59 -25 59 -27.18359375 58.60546875 C-27.78300781 58.40566406 -28.38242188 58.20585937 -29 58 C-28.50628906 57.66226563 -28.01257813 57.32453125 -27.50390625 56.9765625 C-26.86324219 56.53054688 -26.22257813 56.08453125 -25.5625 55.625 C-24.92441406 55.18414062 -24.28632813 54.74328125 -23.62890625 54.2890625 C-21.86259072 53.07839147 -21.86259072 53.07839147 -21 51 C-20.01 51 -19.02 51 -18 51 C-16.70261912 49.54044651 -15.41047035 48.07308598 -14.20703125 46.53515625 C-12.91620175 44.89342165 -11.51539236 43.43563487 -10 42 C-10.66 41.67 -11.32 41.34 -12 41 C-11.195625 40.278125 -10.39125 39.55625 -9.5625 38.8125 C-6.84856318 36.32215316 -6.84856318 36.32215316 -6.53125 33.609375 C-5.91261631 30.57079188 -4.70212951 28.96972248 -2.9375 26.4375 C1.75356037 18.30931425 0.4791042 9.05861826 0 0 Z " fill="#405CA3" transform="translate(279,215)"/>
<path d="M0 0 C0.66 0.33 1.32 0.66 2 1 C0.76302083 2.43229167 -0.47395833 3.86458333 -1.7109375 5.296875 C-4.29102846 8.70572246 -5.33195606 11.08384127 -4.8125 15.375 C-4.22886531 19.45381063 -3.11717865 22.42269815 -1 26 C-0.59910156 26.73863281 -0.19820312 27.47726563 0.21484375 28.23828125 C6.98372807 40.29477049 16.35459847 50.17530484 29.609375 54.9375 C31.95914329 55.57430179 31.95914329 55.57430179 35 56 C35 56.33 35 56.66 35 57 C26.33958284 57.99381836 21.89738401 54.98606073 15 50 C14.2678125 49.525625 13.535625 49.05125 12.78125 48.5625 C8.10564451 45.49652919 8.10564451 45.49652919 7.5703125 42.98046875 C7.38210937 42.32691406 7.19390625 41.67335938 7 41 C5.67615576 40.31468354 4.34162809 39.6498125 3 39 C-2.15381014 32.26445785 -7.95428559 22.4689549 -8.6875 13.875 C-7.76305458 8.66448947 -5.39231498 5.01629002 -2 1 C-1.34 0.67 -0.68 0.34 0 0 Z " fill="#E9F1F9" transform="translate(50,222)"/>
<path d="M0 0 C0.33 0 0.66 0 1 0 C1 36.96 1 73.92 1 112 C0.67 112 0.34 112 0 112 C-0.94820871 92.04222412 -1.08475432 72.13114487 -0.96289062 52.15380859 C-0.95866089 51.17347656 -0.95443115 50.19314453 -0.95007324 49.18310547 C-0.94187282 47.32614714 -0.92945884 45.46920121 -0.91223145 43.61230469 C-0.90896851 42.78424316 -0.90570557 41.95618164 -0.90234375 41.10302734 C-0.89710693 40.37997406 -0.89187012 39.65692078 -0.88647461 38.91195679 C-0.93029272 36.77671969 -0.93029272 36.77671969 -2 34 C-1.69030796 32.32877897 -1.35396342 30.66240753 -1 29 C-0.93276254 27.14693573 -0.91479619 25.29164471 -0.9375 23.4375 C-0.94523437 22.39335937 -0.95296875 21.34921875 -0.9609375 20.2734375 C-0.97382813 19.19320312 -0.98671875 18.11296875 -1 17 C-1.02560599 14.85421831 -1.04660463 12.70837559 -1.0625 10.5625 C-1.07410156 9.61503906 -1.08570313 8.66757813 -1.09765625 7.69140625 C-1.00078694 5.0216881 -0.59907073 2.5991179 0 0 Z " fill="#5F7AAF" transform="translate(281,123)"/>
<path d="M0 0 C2.25008577 4.50017155 2.25008577 4.50017155 2.25396729 8.05393982 C2.25960693 8.85155731 2.26524658 9.6491748 2.27105713 10.47096252 C2.26700867 11.33704636 2.26296021 12.20313019 2.25878906 13.09545898 C2.2622937 14.01460083 2.26579834 14.93374268 2.26940918 15.8807373 C2.27821197 18.91926627 2.27238193 21.95756241 2.265625 24.99609375 C2.26697218 27.1083226 2.26891316 29.22055114 2.27142334 31.33277893 C2.27437273 35.76037548 2.27008328 40.18789134 2.26074219 44.61547852 C2.24935479 50.28945314 2.25590384 55.96323842 2.26788712 61.63720608 C2.27511661 65.99951095 2.27281264 70.361771 2.26763153 74.72407722 C2.26629769 76.81605108 2.26793345 78.908029 2.27259064 80.99999809 C2.27767292 83.92515709 2.26992123 86.85001024 2.25878906 89.77514648 C2.26283752 90.63920609 2.26688599 91.50326569 2.27105713 92.39350891 C2.24061513 96.71415225 2.01341633 100.06363305 0 104 C-0.33 104 -0.66 104 -1 104 C-0.67 69.68 -0.34 35.36 0 0 Z " fill="#4F74B1" transform="translate(254,132)"/>
<path d="M0 0 C0.33 0.66 0.66 1.32 1 2 C-0.32 2 -1.64 2 -3 2 C-3 2.66 -3 3.32 -3 4 C-4.0828125 4.309375 -4.0828125 4.309375 -5.1875 4.625 C-8.83484641 6.40814713 -10.51893497 8.8191474 -13 12 C-14.31543863 13.35099103 -15.64175118 14.69205669 -17 16 C-16.04867187 16.29003906 -16.04867187 16.29003906 -15.078125 16.5859375 C-13 18 -13 18 -12.171875 21.0390625 C-12.03265625 22.22242188 -11.8934375 23.40578125 -11.75 24.625 C-11.60046875 25.81351563 -11.4509375 27.00203125 -11.296875 28.2265625 C-11.19890625 29.14179688 -11.1009375 30.05703125 -11 31 C-11.66 31.33 -12.32 31.66 -13 32 C-16.38952886 26.00891394 -19.73208214 20.08550924 -19 13 C-17.93430882 10.32590454 -16.67185381 8.38112512 -15 6 C-14.34 6 -13.68 6 -13 6 C-12.773125 5.38125 -12.54625 4.7625 -12.3125 4.125 C-9.5019848 -0.42535794 -4.91864174 -0.22877403 0 0 Z " fill="#85B1D0" transform="translate(63,220)"/>
<path d="M0 0 C2.47456702 0.41846337 4.23509647 1.16496287 6.40234375 2.40625 C6.07234375 3.06625 5.74234375 3.72625 5.40234375 4.40625 C4.51546875 4.24125 3.62859375 4.07625 2.71484375 3.90625 C-0.13362517 3.47629243 -2.72770427 3.32183965 -5.59765625 3.40625 C-5.86578125 3.98503906 -6.13390625 4.56382813 -6.41015625 5.16015625 C-7.61892247 7.44647394 -8.99393092 9.31904678 -10.59765625 11.34375 C-12.47341199 13.75929157 -13.57782183 15.34542444 -14.53515625 18.28125 C-15.59765625 20.40625 -15.59765625 20.40625 -18.84765625 21.71875 C-22.21691183 22.33644686 -25.18622434 22.57266131 -28.59765625 22.40625 C-28.59765625 21.74625 -28.59765625 21.08625 -28.59765625 20.40625 C-26.16377872 19.18931124 -24.17926779 19.08665104 -21.47265625 18.84375 C-20.56257813 18.75996094 -19.6525 18.67617188 -18.71484375 18.58984375 C-18.01617187 18.52925781 -17.3175 18.46867187 -16.59765625 18.40625 C-16.44296875 16.8284375 -16.44296875 16.8284375 -16.28515625 15.21875 C-15.59450779 11.38879037 -14.83527008 9.52292641 -12.59765625 6.40625 C-11.91703125 5.313125 -11.23640625 4.22 -10.53515625 3.09375 C-6.83220343 -0.2940579 -4.84039084 -0.1789975 0 0 Z " fill="#84B8D3" transform="translate(118.59765625,41.59375)"/>
<path d="M0 0 C1.134375 0.12375 2.26875 0.2475 3.4375 0.375 C4.0975 1.365 4.7575 2.355 5.4375 3.375 C-2.22986865 6.90198958 -8.95723821 7.52137017 -17.3359375 7.47265625 C-18.2596817 7.4712413 -19.1834259 7.46982635 -20.13516235 7.46836853 C-23.06930862 7.46279609 -26.00337701 7.45024869 -28.9375 7.4375 C-30.93359264 7.43248144 -32.92968649 7.42791915 -34.92578125 7.42382812 C-39.80471725 7.41283569 -44.68359545 7.3955901 -49.5625 7.375 C-49.5625 7.045 -49.5625 6.715 -49.5625 6.375 C-48.40202148 6.35518066 -47.24154297 6.33536133 -46.04589844 6.31494141 C-41.73692266 6.23882088 -37.42828172 6.15011334 -33.11962891 6.05761719 C-31.25543838 6.0193541 -29.3911747 5.98449654 -27.52685547 5.953125 C-24.84576284 5.90741644 -22.16517267 5.84943178 -19.484375 5.7890625 C-18.65194275 5.77751129 -17.8195105 5.76596008 -16.96185303 5.75405884 C-11.46468567 5.67552 -11.46468567 5.67552 -6.5625 3.375 C-6.129375 2.83875 -5.69625 2.3025 -5.25 1.75 C-3.5625 0.375 -3.5625 0.375 0 0 Z " fill="#5D81BF" transform="translate(243.5625,272.625)"/>
<path d="M0 0 C1 3 1 3 0.3125 4.75 C-0.120625 5.4925 -0.55375 6.235 -1 7 C-1.61875 8.155 -2.2375 9.31 -2.875 10.5 C-4.57823051 13.46324118 -6.44938773 15.69622118 -9 18 C-9.474375 18.53625 -9.94875 19.0725 -10.4375 19.625 C-12.43714461 21.38468725 -14.50483933 22.12332193 -17 23 C-17 23.66 -17 24.32 -17 25 C-19.24435445 26.03516348 -21.49406867 27.05314977 -23.75 28.0625 C-24.38421875 28.35705078 -25.0184375 28.65160156 -25.671875 28.95507812 C-30.45095438 31.07081639 -30.45095438 31.07081639 -33.453125 30.68359375 C-33.96359375 30.45800781 -34.4740625 30.23242188 -35 30 C-34.09378906 29.64808594 -33.18757812 29.29617188 -32.25390625 28.93359375 C-17.44411224 22.93131745 -7.5047197 14.38404608 0 0 Z " fill="#D7E2F1" transform="translate(277,248)"/>
<path d="M0 0 C2.89953622 3.08580193 4.49034534 6.82181892 6.25366211 10.62255859 C8.56397168 15.58437654 11.293882 19.77741931 14.82421875 23.94140625 C8.89650244 21.61266056 6.40004381 16.36006036 3.51171875 11.00390625 C0.66401699 6.06910683 -2.06255727 1.71648162 -7.17578125 -1.05859375 C-11.04335741 -1.60005441 -14.39181044 -0.94893982 -18.17578125 -0.05859375 C-12.00909666 -6.88599454 -7.14731996 -5.19382253 0 0 Z " fill="#EEF6FB" transform="translate(70.17578125,222.05859375)"/>
<path d="M0 0 C1.13763197 3.43727375 0.88590871 6.02164469 0.25 9.5625 C0.01023437 10.98755859 0.01023437 10.98755859 -0.234375 12.44140625 C-1.05543315 15.18524855 -1.87641596 16.16142329 -4 18 C-5.39560045 20.79120091 -5.21808288 23.20205692 -5.31640625 26.3203125 C-5.35830078 27.57714844 -5.40019531 28.83398438 -5.44335938 30.12890625 C-5.48267578 31.44761719 -5.52199219 32.76632813 -5.5625 34.125 C-5.60569512 35.46485751 -5.64930973 36.80470156 -5.69335938 38.14453125 C-5.79970981 41.42957815 -5.90173808 44.71470281 -6 48 C-6.33 48 -6.66 48 -7 48 C-7.10059445 44.10815548 -7.17225841 40.21683746 -7.21972656 36.32397461 C-7.24919327 34.36610224 -7.30007758 32.40858901 -7.3515625 30.45117188 C-7.46636009 19.17230833 -5.18646107 9.99888065 0 0 Z " fill="#A4CFE8" transform="translate(50,91)"/>
<path d="M0 0 C6.17347067 1.76384876 8.88070316 6.16842335 12.0625 11.375 C13.81117407 14.56915061 15.45640981 17.81424283 17.046875 21.08984375 C17.90184117 22.80328005 18.85176146 24.46855423 19.8125 26.125 C21.22870215 29.55369995 20.92702568 31.46044742 20 35 C18.25197916 31.72542702 17.04691392 28.37180394 15.8125 24.875 C13.37292511 18.46752831 10.17673646 13.39495126 6 8 C4.85353208 6.45880519 3.70765142 4.91717326 2.5625 3.375 C1.71000764 2.24873073 0.85652351 1.12320665 0 0 Z " fill="#ECF2F9" transform="translate(263,74)"/>
<path d="M0 0 C2.52898234 0.38152751 3.75207468 0.74587655 5.5625 2.6015625 C7.06700579 4.71931794 8.55628496 6.84020231 10 9 C10.43183594 9.63035156 10.86367188 10.26070312 11.30859375 10.91015625 C13.13425566 13.78446825 14.04276947 15.49745869 13.75 18.9375 C13.5025 19.618125 13.255 20.29875 13 21 C12.67 20.34 12.34 19.68 12 19 C11.01 19.33 10.02 19.66 9 20 C8.67 17.69 8.34 15.38 8 13 C7.01 13 6.02 13 5 13 C5.1546875 11.700625 5.1546875 11.700625 5.3125 10.375 C4.88537434 5.76204283 3.11199385 4.34539339 0 1 C0 0.67 0 0.34 0 0 Z " fill="#5777AF" transform="translate(264,78)"/>
<path d="M0 0 C0.33 0.99 0.66 1.98 1 3 C1.66 3 2.32 3 3 3 C3 5.97 3 8.94 3 12 C2.34 12 1.68 12 1 12 C0.7525 12.598125 0.505 13.19625 0.25 13.8125 C-1.22581597 16.39517795 -2.46556671 17.45117966 -5 19 C-7.578125 19.29296875 -7.578125 19.29296875 -10.25 19.1875 C-11.14203125 19.16042969 -12.0340625 19.13335937 -12.953125 19.10546875 C-13.62859375 19.07066406 -14.3040625 19.03585938 -15 19 C-12.04245816 17.5086438 -9.13948098 16.07403297 -6 15 C-5.34 15.33 -4.68 15.66 -4 16 C-4 15.34 -4 14.68 -4 14 C-3.34 14 -2.68 14 -2 14 C-0.17171602 9.4830631 -0.03060526 6.73926319 -1 2 C-0.67 1.34 -0.34 0.68 0 0 Z " fill="#85B8D9" transform="translate(69,131)"/>
<path d="M0 0 C0.66 0.33 1.32 0.66 2 1 C0.76302083 2.43229167 -0.47395833 3.86458333 -1.7109375 5.296875 C-4.97886742 9.61450362 -5.19663655 12.37608951 -4.49609375 17.6171875 C-3.99911 20.00427483 -3.2801703 22.11415989 -2.375 24.375 C-1 28 -1 28 -2 31 C-9.33561644 16.67808219 -9.33561644 16.67808219 -8 10 C-3.71428571 1.85714286 -3.71428571 1.85714286 0 0 Z " fill="#F2F8FC" transform="translate(50,222)"/>
<path d="M0 0 C0 4.28535967 -2.2516278 5.84942699 -5 9 C-6.23689062 11.47378124 -6.13310087 13.17915317 -6.125 15.9375 C-6.12757812 16.81277344 -6.13015625 17.68804687 -6.1328125 18.58984375 C-6.09822003 21.14459056 -6.09822003 21.14459056 -5 24 C-5.99 24 -6.98 24 -8 24 C-9.76988436 18.89856862 -10.50412745 15.35845403 -9 10 C-6.50415652 5.8900781 -4.01551092 2.67700728 0 0 Z " fill="#F2F6FA" transform="translate(51,170)"/>
<path d="M0 0 C3.39540434 1.13180145 4.15357852 2.10357199 6.375 4.8125 C9.039335 7.96380379 11.75796527 10.4404989 15 13 C16.75370342 14.94211784 18.36959412 16.95034689 20 19 C19.67 19.66 19.34 20.32 19 21 C18.360625 20.34 17.72125 19.68 17.0625 19 C14.65210862 16.56900699 12.09745573 14.35386852 9.5 12.125 C5.62660895 8.71719185 2.75513823 5.35489591 0 1 C0 0.67 0 0.34 0 0 Z " fill="#F7FAFD" transform="translate(140,157)"/>
<path d="M0 0 C2.41796875 0.5859375 2.41796875 0.5859375 5 2 C5.92578125 5.0390625 5.92578125 5.0390625 6.3125 8.625 C6.45300781 9.81351563 6.59351563 11.00203125 6.73828125 12.2265625 C6.82464844 13.14179688 6.91101562 14.05703125 7 15 C6.01 15.495 6.01 15.495 5 16 C-0.74031891 5.62642369 -0.74031891 5.62642369 0 0 Z " fill="#76AACF" transform="translate(45,236)"/>
<path d="M0 0 C0.66 0 1.32 0 2 0 C0.14124814 4.13994732 -2.61496071 7.25224981 -5.5390625 10.68359375 C-7.23183258 13.36758482 -7.29655972 14.8861229 -7 18 C-8.98 18.99 -8.98 18.99 -11 20 C-10.91253716 18.56138706 -10.80434652 17.12402492 -10.6875 15.6875 C-10.62949219 14.88699219 -10.57148437 14.08648437 -10.51171875 13.26171875 C-9.91161175 10.60933741 -9.14291033 9.63496121 -7 8 C-6.34 8 -5.68 8 -5 8 C-4.731875 7.4225 -4.46375 6.845 -4.1875 6.25 C-2.97070811 3.94449957 -1.69666121 1.97943808 0 0 Z " fill="#83C3E0" transform="translate(61,78)"/>
<path d="M0 0 C0.33 0 0.66 0 1 0 C1.05813173 4.56244637 1.09364122 9.12479724 1.125 13.6875 C1.15013672 15.62786133 1.15013672 15.62786133 1.17578125 17.60742188 C1.18222656 18.85458984 1.18867188 20.10175781 1.1953125 21.38671875 C1.20578613 22.53358154 1.21625977 23.68044434 1.22705078 24.86206055 C1.00058489 27.99191655 0.33456032 30.18079905 -1 33 C-1.33 33 -1.66 33 -2 33 C-1.88146154 28.94301181 -1.75719418 24.88624306 -1.62768555 20.82958984 C-1.5844545 19.45040622 -1.54277134 18.07117315 -1.50268555 16.69189453 C-1.44469597 14.70593062 -1.38062277 12.72014731 -1.31640625 10.734375 C-1.27974854 9.54038086 -1.24309082 8.34638672 -1.20532227 7.11621094 C-1.03791006 4.57536745 -0.73682141 2.4228576 0 0 Z " fill="#4B6EAE" transform="translate(255,203)"/>
<path d="M0 0 C0.99 0 1.98 0 3 0 C1.93445434 3.19663699 0.74062844 4.28785727 -1.625 6.5625 C-3.11520377 7.78890217 -3.11520377 7.78890217 -3 9 C-4.98 9.33 -6.96 9.66 -9 10 C-9 8.68 -9 7.36 -9 6 C-8.071875 5.566875 -7.14375 5.13375 -6.1875 4.6875 C-3.07352146 3.23894475 -3.07352146 3.23894475 -1.3125 1.3125 C-0.879375 0.879375 -0.44625 0.44625 0 0 Z " fill="#4565A2" transform="translate(246,243)"/>
<path d="M0 0 C3.85036851 1.51264477 5.88348422 3.44727709 8 7 C8.32555094 10.03169311 8.23810803 12.96412257 8 16 C7.34 15.67 6.68 15.34 6 15 C5.59270772 12.67843403 5.25561323 10.3431213 5 8 C4.34 8 3.68 8 3 8 C2.690625 7.05125 2.38125 6.1025 2.0625 5.125 C1.12605258 2.13919592 1.12605258 2.13919592 0 0 Z " fill="#91BCD9" transform="translate(125,45)"/>
<path d="M0 0 C1.134375 0.144375 2.26875 0.28875 3.4375 0.4375 C4.0975 1.4275 4.7575 2.4175 5.4375 3.4375 C1.44189392 6.26772097 -1.98987323 5.19960446 -6.5625 4.4375 C-4.72123692 0.97159302 -4.0056632 0.49192355 0 0 Z " fill="#315AA5" transform="translate(243.5625,272.5625)"/>
<path d="M0 0 C6.15222436 0.43173504 9.81917949 1.65405342 15 5 C15 5.99 15 6.98 15 8 C14.01 8.33 13.02 8.66 12 9 C11.67 8.01 11.34 7.02 11 6 C8.70401807 4.91698965 6.36522558 3.92203709 4 3 C2.65986503 2.34711373 1.32258472 1.68774405 0 1 C0 0.67 0 0.34 0 0 Z " fill="#5B83B9" transform="translate(244,66)"/>
<path d="M0 0 C2.60423592 -0.02697137 5.20819244 -0.04682489 7.8125 -0.0625 C8.55048828 -0.07087891 9.28847656 -0.07925781 10.04882812 -0.08789062 C13.29922068 -0.10259828 15.89404895 -0.03531702 19 1 C19 1.66 19 2.32 19 3 C13.06 2.67 7.12 2.34 1 2 C0.67 1.34 0.34 0.68 0 0 Z " fill="#5885B5" transform="translate(222,62)"/>
<path d="M0 0 C5.24458384 1.74819461 8.92525905 6.50614785 12 11 C11.67 11.99 11.34 12.98 11 14 C9.53618641 12.42173185 8.07914837 10.83717771 6.625 9.25 C5.81289063 8.36828125 5.00078125 7.4865625 4.1640625 6.578125 C2.3374152 4.40197479 1.10212006 2.59179881 0 0 Z " fill="#6DA1C9" transform="translate(51,253)"/>
<path d="M0 0 C2.33965571 2.22723982 4.27099166 4.58956647 6.1875 7.1875 C6.71730469 7.90292969 7.24710937 8.61835938 7.79296875 9.35546875 C8.39044922 10.16951172 8.39044922 10.16951172 9 11 C7.68 11.33 6.36 11.66 5 12 C4.731875 11.401875 4.46375 10.80375 4.1875 10.1875 C3.13819956 7.95707307 3.13819956 7.95707307 1.375 6.5625 C0 5 0 5 -0.1875 2.3125 C-0.125625 1.549375 -0.06375 0.78625 0 0 Z " fill="#82A9CC" transform="translate(75,236)"/>
<path d="M0 0 C0.33 0.66 0.66 1.32 1 2 C-0.32 2 -1.64 2 -3 2 C-3 2.66 -3 3.32 -3 4 C-6.33333333 4 -9.66666667 4 -13 4 C-8.17526734 1.07976708 -5.69755995 -0.12386 0 0 Z " fill="#95BBD6" transform="translate(63,220)"/>
<path d="M0 0 C7.59 0 15.18 0 23 0 C19.69857556 2.20094963 18.80630045 2.20410344 15 2.0625 C11.8658849 1.95523118 10.01639328 1.99453557 7 3 C4.64811553 2.40206327 2.31074405 1.74118205 0 1 C0 0.67 0 0.34 0 0 Z " fill="#6E9FC6" transform="translate(133,62)"/>
<path d="M0 0 C1 3 1 3 0.3125 4.75 C-0.120625 5.4925 -0.55375 6.235 -1 7 C-1.70846927 8.24992296 -2.41679385 9.49992794 -3.125 10.75 C-3.74375 11.8225 -4.3625 12.895 -5 14 C-5.66 14 -6.32 14 -7 14 C-6.34097701 10.42959697 -4.83770842 7.82267745 -2.9375 4.75 C-2.38964844 3.85796875 -1.84179688 2.9659375 -1.27734375 2.046875 C-0.64505859 1.03367188 -0.64505859 1.03367188 0 0 Z " fill="#E2E8F5" transform="translate(277,248)"/>
<path d="M0 0 C2.45391569 3.68087353 2.22802759 6.44355588 2.125 10.6875 C2.11597656 11.38939453 2.10695313 12.09128906 2.09765625 12.81445312 C2.07413704 14.54311525 2.03826713 16.27160145 2 18 C1.34 17.67 0.68 17.34 0 17 C0.01740234 16.07767578 0.01740234 16.07767578 0.03515625 15.13671875 C0.04417969 14.32847656 0.05320312 13.52023438 0.0625 12.6875 C0.07410156 11.88699219 0.08570313 11.08648437 0.09765625 10.26171875 C0.09657855 7.83138666 0.09657855 7.83138666 -1 5 C-0.5625 2.3125 -0.5625 2.3125 0 0 Z " fill="#5472AE" transform="translate(280,152)"/>
<path d="M0 0 C0 0.66 0 1.32 0 2 C-10.37357631 6.59225513 -10.37357631 6.59225513 -16 6 C-13.07256305 3.56954653 -10.52876737 2.3431896 -6.875 1.3125 C-6.00617188 1.06113281 -5.13734375 0.80976562 -4.2421875 0.55078125 C-2 0 -2 0 0 0 Z " fill="#9CCDE2" transform="translate(90,62)"/>
<path d="M0 0 C0.33 0 0.66 0 1 0 C1.33292585 4.24480464 1.43885872 6.35542625 -1 9.9375 C-1.66 10.618125 -2.32 11.29875 -3 12 C-3.66 11.67 -4.32 11.34 -5 11 C-3.55049545 7.2089881 -1.84827434 3.6125362 0 0 Z " fill="#6880B8" transform="translate(252,232)"/>
<path d="M0 0 C0.33 0 0.66 0 1 0 C0.64766839 5.4611399 0.64766839 5.4611399 0 8 C-2.0625 9.5 -2.0625 9.5 -4 10 C-4.40717933 6.43718089 -4.14368753 5.20857868 -2.0625 2.1875 C-1.381875 1.465625 -0.70125 0.74375 0 0 Z " fill="#7FA6CC" transform="translate(197,46)"/>
<path d="M0 0 C0.33 0 0.66 0 1 0 C1.125 7.75 1.125 7.75 0 10 C-0.66 10 -1.32 10 -2 10 C-3.05236973 6.65155086 -3.20005388 5.40920111 -1.625 2.1875 C-1.08875 1.465625 -0.5525 0.74375 0 0 Z " fill="#334FA2" transform="translate(275,243)"/>
<path d="M0 0 C0 0.33 0 0.66 0 1 C-1.794375 1.0928125 -1.794375 1.0928125 -3.625 1.1875 C-8.40730383 1.74912287 -10.60507231 3.68994551 -14 7 C-14.66 6.67 -15.32 6.34 -16 6 C-10.96409536 0.55927987 -7.38045188 -0.9037288 0 0 Z " fill="#B2C7DD" transform="translate(62,171)"/>
<path d="M0 0 C1.30324219 0.00773437 1.30324219 0.00773437 2.6328125 0.015625 C3.49648437 0.01046875 4.36015625 0.0053125 5.25 0 C7.86254827 0.27671851 9.5078213 0.9470255 11.7578125 2.265625 C11.4278125 2.925625 11.0978125 3.585625 10.7578125 4.265625 C10.2628125 3.935625 9.7678125 3.605625 9.2578125 3.265625 C5.64843887 1.82187555 2.64503129 2.14222123 -1.2421875 2.265625 C-2.2321875 2.265625 -3.2221875 2.265625 -4.2421875 2.265625 C-2.2421875 0.265625 -2.2421875 0.265625 0 0 Z " fill="#9EC5DA" transform="translate(113.2421875,41.734375)"/>
<path d="M0 0 C1.75 0.0625 1.75 0.0625 4 1 C5.59501537 3.24164322 6.74543018 5.53566643 8 8 C7.01 8.495 7.01 8.495 6 9 C4.99712471 7.68969568 3.99777175 6.37669473 3 5.0625 C2.443125 4.33160156 1.88625 3.60070312 1.3125 2.84765625 C0 1 0 1 0 0 Z " fill="#6280B8" transform="translate(264,78)"/>
<path d="M0 0 C2.54288247 1.27144124 2.85625863 2.4011826 4.0625 4.9375 C4.40410156 5.64777344 4.74570312 6.35804688 5.09765625 7.08984375 C5.39542969 7.72019531 5.69320312 8.35054688 6 9 C6.33 9.66 6.66 10.32 7 11 C6.01 11 5.02 11 4 11 C1.31900734 7.49408652 0.50483662 4.34159496 0 0 Z " fill="#D7E9F5" transform="translate(48,248)"/>
<path d="M0 0 C0.78375 0.04125 1.5675 0.0825 2.375 0.125 C0.01207344 2.65088702 -1.28962511 4.01320837 -4.625 5.125 C-4.625 1.22254579 -3.95783286 0.18846823 0 0 Z " fill="#80BED8" transform="translate(74.625,67.875)"/>
<path d="M0 0 C1.23556641 0.01740234 1.23556641 0.01740234 2.49609375 0.03515625 C3.32238281 0.04417969 4.14867187 0.05320313 5 0.0625 C5.63808594 0.07410156 6.27617187 0.08570313 6.93359375 0.09765625 C4.90048339 1.1184648 2.86715007 2.12892386 0.80859375 3.09765625 C-1.23191776 4.06906002 -1.23191776 4.06906002 -3.06640625 6.09765625 C-3.10912725 4.4315372 -3.10704457 2.7638274 -3.06640625 1.09765625 C-2.06640625 0.09765625 -2.06640625 0.09765625 0 0 Z " fill="#6D9CC8" transform="translate(201.06640625,43.90234375)"/>
<path d="M0 0 C0.99 0.33 1.98 0.66 3 1 C2.375 2.9375 2.375 2.9375 1 5 C-2.125 5.75 -2.125 5.75 -5 6 C-3.35 4.02 -1.7 2.04 0 0 Z " fill="#EBF5FA" transform="translate(70,143)"/>
<path d="M0 0 C2.475 0.495 2.475 0.495 5 1 C5 1.66 5 2.32 5 3 C5.99 3 6.98 3 8 3 C8.33 3.99 8.66 4.98 9 6 C5.06326356 4.68775452 2.77280706 3.08089673 0 0 Z " fill="#79A3C9" transform="translate(63,267)"/>
<path d="M0 0 C-3.98060777 1.17076699 -7.91621717 2.25749403 -12 3 C-7.99490028 -1.43421755 -5.41473933 -3.28752031 0 0 Z " fill="#F8FBFD" transform="translate(64,219)"/>
<path d="M0 0 C0.99 0.33 1.98 0.66 3 1 C2.34 1 1.68 1 1 1 C0.731875 1.598125 0.46375 2.19625 0.1875 2.8125 C-0.98493467 4.97224808 -2.19369282 6.35790256 -4 8 C-3.6875 5.125 -3.6875 5.125 -3 2 C-2.01 1.34 -1.02 0.68 0 0 Z " fill="#E8F1F9" transform="translate(198,42)"/>
<path d="M0 0 C1.0326802 2.78823655 1.04509293 3.8677274 0.0625 6.75 C-0.288125 7.4925 -0.63875 8.235 -1 9 C-1.33 9 -1.66 9 -2 9 C-2 6.36 -2 3.72 -2 1 C-1.34 0.67 -0.68 0.34 0 0 Z " fill="#4566A8" transform="translate(255,227)"/>
<path d="M0 0 C0.99 0.33 1.98 0.66 3 1 C0.63707344 3.52588702 -0.66462511 4.88820837 -4 6 C-3.6875 4.125 -3.6875 4.125 -3 2 C-2.01 1.34 -1.02 0.68 0 0 Z " fill="#78ABCC" transform="translate(53,223)"/>
<path d="M0 0 C0.99 0.66 1.98 1.32 3 2 C5.32387947 2.39387788 7.65793749 2.73486085 10 3 C8.5 4.1875 8.5 4.1875 6 5 C3.21175762 4.27101296 0.62334908 3.1843275 -2 2 C-1.34 1.34 -0.68 0.68 0 0 Z " fill="#EDF3F8" transform="translate(114,222)"/>
<path d="M0 0 C-1.09818901 3.29456702 -1.91003854 4.45501927 -5 6 C-5.33 5.01 -5.66 4.02 -6 3 C-3.375 0 -3.375 0 0 0 Z " fill="#4D68AD" transform="translate(249,243)"/>
<path d="M0 0 C0.66 0.66 1.32 1.32 2 2 C1.34 2 0.68 2 0 2 C0 1.34 0 0.68 0 0 Z " fill="#FFFFFF" transform="translate(148,301)"/>
<path d="" fill="#FFFFFF" transform="translate(0,0)"/>
<path d="M0 0 C2 1 2 1 2 1 Z " fill="#FFFFFF" transform="translate(290,293)"/>
<path d="" fill="#FFFFFF" transform="translate(0,0)"/>
<path d="" fill="#FFFFFF" transform="translate(0,0)"/>
<path d="M0 0 C2 1 2 1 2 1 Z " fill="#FFFFFF" transform="translate(311,90)"/>
<path d="M0 0 C2 1 2 1 2 1 Z " fill="#FFFFFF" transform="translate(301,79)"/>
<path d="" fill="#FFFFFF" transform="translate(0,0)"/>
<path d="M0 0 C2 1 2 1 2 1 Z " fill="#FFFFFF" transform="translate(126,11)"/>
<path d="" fill="#FFFFFF" transform="translate(0,0)"/>
<path d="" fill="#FEFEFE" transform="translate(0,0)"/>
<path d="" fill="#FEFEFE" transform="translate(0,0)"/>
<path d="" fill="#FFFFFF" transform="translate(0,0)"/>
<path d="" fill="#FFFFFF" transform="translate(0,0)"/>
<path d="" fill="#FEFEFE" transform="translate(0,0)"/>
<path d="" fill="#FEFEFE" transform="translate(0,0)"/>
<path d="" fill="#FFFFFF" transform="translate(0,0)"/>
<path d="" fill="#FFFFFF" transform="translate(0,0)"/>
<path d="" fill="#FFFFFF" transform="translate(0,0)"/>
<path d="" fill="#FEFEFE" transform="translate(0,0)"/>
<path d="" fill="#FEFEFE" transform="translate(0,0)"/>
<path d="" fill="#FFFFFF" transform="translate(0,0)"/>
<path d="" fill="#FEFEFE" transform="translate(0,0)"/>
<path d="" fill="#FEFEFE" transform="translate(0,0)"/>
<path d="" fill="#FFFFFF" transform="translate(0,0)"/>
<path d="" fill="#FFFFFF" transform="translate(0,0)"/>
<path d="" fill="#FEFEFE" transform="translate(0,0)"/>
<path d="" fill="#FEFEFE" transform="translate(0,0)"/>
<path d="" fill="#FEFEFE" transform="translate(0,0)"/>
<path d="" fill="#FEFEFE" transform="translate(0,0)"/>
<path d="" fill="#FEFEFE" transform="translate(0,0)"/>
<path d="" fill="#FFFFFF" transform="translate(0,0)"/>
<path d="" fill="#FFFFFF" transform="translate(0,0)"/>
</svg>
