<?xml version="1.0" encoding="UTF-8"?>
<svg version="1.1" xmlns="http://www.w3.org/2000/svg" width="307" height="302">
<path d="M0 0 C2.62725674 1.42351363 3.96016659 2.73964406 6 5 C6 5.66 6 6.32 6 7 C6.66 7 7.32 7 8 7 C9.35148541 11.30785975 10 14.41957592 10 19 C30.13 19 50.26 19 71 19 C71 17.02 71 15.04 71 13 C72.67905798 7.87445459 74.37715626 4.86176041 79 2 C81.8125 1.25 81.8125 1.25 84 1 C84 0.34 84 -0.32 84 -1 C87.3 -1 90.6 -1 94 -1 C94 -0.34 94 0.32 94 1 C94.721875 1.185625 95.44375 1.37125 96.1875 1.5625 C99.98700512 3.50446928 101.94979526 6.30090719 104 10 C104 10.66 104 11.32 104 12 C104.66 12 105.32 12 106 12 C106 14.31 106 16.62 106 19 C107.14597656 19.10957031 108.29195312 19.21914063 109.47265625 19.33203125 C111.00266527 19.49160274 112.53260995 19.65179195 114.0625 19.8125 C114.81466797 19.88275391 115.56683594 19.95300781 116.34179688 20.02539062 C121.44142256 20.57729817 125.36743183 21.80069996 130 24 C131.32276056 24.37308631 132.65232077 24.73046415 134 25 C134 25.66 134 26.32 134 27 C134.70125 27.268125 135.4025 27.53625 136.125 27.8125 C141.81848932 30.16415863 145.7803611 32.43822822 150 37 C150.598125 37.556875 151.19625 38.11375 151.8125 38.6875 C153 40 153 40 153 42 C153.99 42.33 154.98 42.66 156 43 C167.98625632 56.78296415 170.3346456 70.65582307 170.22705078 88.47949219 C170.22734283 89.76871582 170.22763489 91.05793945 170.22793579 92.38623047 C170.22850372 95.88133376 170.2168415 99.37629649 170.20278788 102.87136745 C170.19018584 106.53885094 170.18910262 110.20633854 170.18673706 113.87384033 C170.18054988 120.80083458 170.16417693 127.72776482 170.14403808 134.65473104 C170.12159251 142.54844138 170.110664 150.44215497 170.10064721 158.33588934 C170.07980787 174.55729688 170.04468631 190.77864024 170 207 C169.34 207 168.68 207 168 207 C167.9175 208.299375 167.835 209.59875 167.75 210.9375 C167.19661737 216.14094865 165.35320007 220.37021568 163 225 C162.34 225 161.68 225 161 225 C160.75507813 225.72445312 160.51015625 226.44890625 160.2578125 227.1953125 C156.94740075 234.57691386 149.84374072 240.40452166 143.7265625 245.52734375 C141.97555662 246.97490008 141.97555662 246.97490008 140.4140625 248.62890625 C138.48404911 250.50027282 136.52277752 251.08262636 134 252 C132.96875 252.474375 131.9375 252.94875 130.875 253.4375 C119.3082635 258.26441012 108.55913555 258.41323427 96.21875 258.328125 C94.26333236 258.32547671 92.3079127 258.32407084 90.35249329 258.32382202 C85.14233198 258.31904958 79.93243253 258.29506482 74.72235489 258.26630402 C70.42066825 258.24453895 66.11897804 258.23305676 61.81725407 258.22139931 C48.21123236 258.18357604 34.60567234 258.10303378 21 258 C20.11274483 257.99336838 19.22548965 257.98673676 18.31134796 257.97990417 C7.47777303 257.89761615 -3.35471793 257.77980441 -14.1875 257.625 C-15.4142041 257.6098938 -16.6409082 257.5947876 -17.90478516 257.57922363 C-21.28446413 257.5348996 -24.66359554 257.47719552 -28.04296875 257.4140625 C-29.01127121 257.40249115 -29.97957367 257.3909198 -30.97721863 257.3789978 C-31.85509537 257.35914825 -32.73297211 257.33929871 -33.63745117 257.31884766 C-34.39015793 257.30552399 -35.14286469 257.29220032 -35.91838074 257.2784729 C-38.29396792 256.96067384 -39.90277029 256.13252952 -42 255 C-43.69713048 254.59554367 -45.40722459 254.24259742 -47.125 253.9375 C-51.80555556 253.09722222 -51.80555556 253.09722222 -54 252 C-54 251.34 -54 250.68 -54 250 C-54.87269531 249.92523438 -55.74539062 249.85046875 -56.64453125 249.7734375 C-60.66213965 248.84737643 -62.58083116 247.30271457 -65.6875 244.625 C-66.61949219 243.83351563 -67.55148438 243.04203125 -68.51171875 242.2265625 C-72.73273026 238.44951923 -72.73273026 238.44951923 -74 237 C-74 236.34 -74 235.68 -74 235 C-74.99 234.67 -75.98 234.34 -77 234 C-78.38671875 231.78515625 -78.38671875 231.78515625 -79.6875 229.0625 C-80.12449219 228.16660156 -80.56148437 227.27070313 -81.01171875 226.34765625 C-82 224 -82 224 -82 222 C-82.66 222 -83.32 222 -84 222 C-87.07708804 216.06561592 -88.48736475 211.70126536 -88 205 C-87.34 205 -86.68 205 -86 205 C-86.00902344 204.41992188 -86.01804687 203.83984375 -86.02734375 203.2421875 C-85.8929927 199.70232947 -85.77507615 196.99652648 -83.55078125 194.13671875 C-79.21890173 190.34984793 -75.49557654 188 -69.625 188 C-65.08015529 189.25375026 -62.09375549 191.45487593 -59 195 C-59 195.66 -59 196.32 -59 197 C-58.34 197 -57.68 197 -57 197 C-56.566875 197.886875 -56.13375 198.77375 -55.6875 199.6875 C-54.07996119 202.9510585 -54.07996119 202.9510585 -52.3125 205.75 C-51 208 -51 208 -51 210 C-50.34 210 -49.68 210 -49 210 C-46 213.46153846 -46 213.46153846 -46 216 C-44.35 216.33 -42.7 216.66 -41 217 C-41 217.66 -41 218.32 -41 219 C-38.17577028 219.78610692 -35.55639665 220.17168344 -32.63034058 220.30926514 C-31.32606456 220.37065107 -31.32606456 220.37065107 -29.99543953 220.43327713 C-29.04674429 220.47173122 -28.09804905 220.51018532 -27.12060547 220.54980469 C-26.11016111 220.59177349 -25.09971676 220.63374229 -24.05865288 220.67698288 C-11.41507755 221.15578917 1.2314342 221.18289239 13.88260031 221.20018864 C15.95874497 221.20316668 18.03488469 221.20727808 20.11102676 221.21169281 C26.64260504 221.22524911 33.17417142 221.23498341 39.70576274 221.2388947 C47.18558755 221.24340346 54.66523221 221.26113018 62.14500225 221.2898953 C67.98080618 221.31154669 73.81655935 221.32160015 79.652403 221.32293582 C83.11712454 221.32397759 86.58167389 221.32975535 90.04635239 221.34775543 C93.89538157 221.36738214 97.74418381 221.36293342 101.59326172 221.35644531 C102.72166473 221.3656601 103.85006775 221.37487488 105.01266479 221.3843689 C112.84597624 221.3430631 119.39757419 220.40161721 126 216 C126.33 215.01 126.66 214.02 127 213 C127.66 213 128.32 213 129 213 C129.66 210.03 130.32 207.06 131 204 C131.66 204 132.32 204 133 204 C132.99777939 202.7015213 132.99555878 201.4030426 132.99327087 200.06521606 C132.97303328 187.85143916 132.95802487 175.63766565 132.94818783 163.42387581 C132.94296058 157.14406767 132.93586578 150.86427303 132.92456055 144.58447266 C132.91372609 138.52854148 132.90772197 132.47262331 132.90512276 126.4166832 C132.90326952 124.10173208 132.89965084 121.7867817 132.89426994 119.47183609 C132.88705213 116.23918344 132.88600938 113.00658514 132.88647461 109.77392578 C132.88287933 108.80863953 132.87928406 107.84335327 132.87557983 106.84881592 C132.8769545 105.97099457 132.87832916 105.09317322 132.87974548 104.18875122 C132.87836279 103.04111896 132.87836279 103.04111896 132.87695217 101.8703022 C133 100 133 100 134 98 C133.01 98.33 132.02 98.66 131 99 C129.55500672 99.09064568 128.10618917 99.12627541 126.65835571 99.12698364 C125.32669876 99.13121338 125.32669876 99.13121338 123.96813965 99.13552856 C122.50978699 99.13249222 122.50978699 99.13249222 121.02197266 99.12939453 C119.9952243 99.13114685 118.96847595 99.13289917 117.91061401 99.13470459 C114.49507989 99.13912466 111.07959721 99.13617896 107.6640625 99.1328125 C105.27159617 99.13348683 102.87912991 99.13445794 100.48666382 99.13571167 C95.44764561 99.13718993 90.40864506 99.1350349 85.36962891 99.13037109 C78.99639664 99.12475255 72.62320685 99.12798796 66.24997616 99.13382244 C20.42649612 99.16925129 20.42649612 99.16925129 -1.96875 98.22265625 C-12.24555828 97.80246451 -22.52930633 97.89272067 -32.8125 97.9375 C-34.89648325 97.9425436 -36.98046774 97.94710127 -39.06445312 97.95117188 C-44.04300078 97.96190874 -49.0214855 97.97900179 -54 98 C-54.33 101.63 -54.66 105.26 -55 109 C-55.66 109 -56.32 109 -57 109 C-57.495 110.98 -57.495 110.98 -58 113 C-58.99 113 -59.98 113 -61 113 C-61.268125 113.639375 -61.53625 114.27875 -61.8125 114.9375 C-63 117 -63 117 -66 118 C-71.00827619 118.65293082 -75.87707512 119.15205424 -80.42578125 116.68359375 C-85.19753849 112.66669076 -89.42586723 107.87328261 -90.36474609 101.53930664 C-90.50319899 98.70205172 -90.50178654 95.90236972 -90.4375 93.0625 C-90.4257373 92.04994141 -90.41397461 91.03738281 -90.40185547 89.99414062 C-89.97270955 71.03969574 -85.48871315 52.07971347 -72 38 C-71.34 38 -70.68 38 -70 38 C-69.67 37.01 -69.34 36.02 -69 35 C-65.5776566 31.96878156 -61.83583761 29.47731179 -58 27 C-57.236875 26.484375 -56.47375 25.96875 -55.6875 25.4375 C-52.51808642 23.74223227 -49.31843159 22.70402032 -45.890625 21.6484375 C-44.01259944 21.15908543 -44.01259944 21.15908543 -43 20 C-36.69502258 18.98670006 -30.36939251 18.89726786 -24 19 C-24 16.36 -24 13.72 -24 11 C-23.34 11 -22.68 11 -22 11 C-21.79375 10.113125 -21.5875 9.22625 -21.375 8.3125 C-19.59133836 4.01549696 -17.76147182 2.68676558 -14 0 C-9.30042386 -1.56652538 -4.80848045 -1.0206034 0 0 Z " fill="#D62045" transform="translate(111,27)"/>
<path d="M0 0 C3.94275478 1.34560071 7.01385438 2.72730658 9.60058594 6.06567383 C11.40676316 9.85291109 11.33027567 13.21593665 11.1875 17.3125 C11.16719727 18.42334961 11.16719727 18.42334961 11.14648438 19.55664062 C11.11135979 21.37141075 11.05755972 23.18580288 11 25 C11.71996658 24.99777939 12.43993317 24.99555878 13.18171692 24.99327087 C19.96492087 24.97323834 26.7481204 24.95801071 33.53134632 24.94818783 C37.01871311 24.94296804 40.50605547 24.93588676 43.9934082 24.92456055 C48.00211828 24.91162246 52.01080267 24.90676431 56.01953125 24.90234375 C57.27272659 24.89718246 58.52592194 24.89202118 59.8170929 24.88670349 C61.55855843 24.88659019 61.55855843 24.88659019 63.33520508 24.88647461 C64.35890701 24.884254 65.38260895 24.88203339 66.43733215 24.87974548 C71.61597334 25.1227559 73.54543113 27.37691558 77 31 C77.763125 31.721875 78.52625 32.44375 79.3125 33.1875 C81 35 81 35 81 37 C81.66 37 82.32 37 83 37 C84.97891839 40.95783679 84.56132824 45.69648347 84 50 C81.75 52.9375 81.75 52.9375 79 55 C78.278125 55.763125 77.55625 56.52625 76.8125 57.3125 C75 59 75 59 73 59 C73 59.66 73 60.32 73 61 C68.9905112 61.74258321 65.16181633 62.1419273 61.08642578 62.20532227 C59.94569611 62.22526749 58.80496643 62.24521271 57.62966919 62.26576233 C55.80591263 62.29083107 55.80591263 62.29083107 53.9453125 62.31640625 C52.68862762 62.33718735 51.43194275 62.35796844 50.13717651 62.37937927 C46.81314299 62.43354612 43.48909743 62.48383793 40.16497803 62.53222656 C36.76618283 62.58266496 33.36747184 62.63823383 29.96875 62.69335938 C23.31256728 62.80028257 16.65632114 62.90209464 10 63 C10.01160156 64.04800781 10.02320313 65.09601563 10.03515625 66.17578125 C10.04453655 67.55468572 10.0536365 68.93359211 10.0625 70.3125 C10.07087891 71.00279297 10.07925781 71.69308594 10.08789062 72.40429688 C10.10307906 75.5483025 10.00193327 77.99420019 9 81 C8.01 81.495 8.01 81.495 7 82 C6.505 83.485 6.505 83.485 6 85 C3.39080172 86.30459914 1.41057385 86.1326594 -1.5 86.125 C-2.4796875 86.12757813 -3.459375 86.13015625 -4.46875 86.1328125 C-7 86 -7 86 -9 85 C-9 84.34 -9 83.68 -9 83 C-10.32 82.34 -11.64 81.68 -13 81 C-13 80.34 -13 79.68 -13 79 C-14.32 78.34 -15.64 77.68 -17 77 C-17 76.34 -17 75.68 -17 75 C-18.32 74.34 -19.64 73.68 -21 73 C-21 72.34 -21 71.68 -21 71 C-21.58265625 70.73058594 -22.1653125 70.46117187 -22.765625 70.18359375 C-25.01108176 68.99412977 -26.80694844 67.69416509 -28.75 66.0625 C-29.36359375 65.55847656 -29.9771875 65.05445313 -30.609375 64.53515625 C-32 63 -32 63 -32 60 C-33.32 59.34 -34.64 58.68 -36 58 C-36 57.34 -36 56.68 -36 56 C-36.99 55.67 -37.98 55.34 -39 55 C-40.28933253 53.51726759 -41.57509837 52.02942026 -42.7890625 50.484375 C-44.02012986 48.8886738 -44.02012986 48.8886738 -45.875 47.375 C-47 46 -47 46 -46.9375 44.25 C-44.79985491 39.11965179 -42.3040263 34.58668858 -38 31 C-37.34 31 -36.68 31 -36 31 C-35.73703125 30.42121094 -35.4740625 29.84242188 -35.203125 29.24609375 C-32.51521343 24.22807703 -28.30112344 19.91819208 -23.875 16.375 C-20.89610253 14.06294649 -20.89610253 14.06294649 -18.5 11 C-15.85927219 7.83112663 -13.20461037 5.57762138 -10 3 C-9.525625 2.401875 -9.05125 1.80375 -8.5625 1.1875 C-5.77533068 -0.93074868 -3.37206343 -0.3869581 0 0 Z " fill="#DE8297" transform="translate(102,137)"/>
<path d="M0 0 C0.99 0.33 1.98 0.66 3 1 C1.71186658 1.83878455 0.41936744 2.67086783 -0.875 3.5 C-1.59429687 3.9640625 -2.31359375 4.428125 -3.0546875 4.90625 C-5 6 -5 6 -7 6 C-7.226875 6.70125 -7.45375 7.4025 -7.6875 8.125 C-9.27874832 11.61059155 -11.55352872 14.06423446 -14 17 C-14.33 17.928125 -14.66 18.85625 -15 19.8125 C-15.33 20.534375 -15.66 21.25625 -16 22 C-18.5625 22.63671875 -18.5625 22.63671875 -21 23 C-23.22836236 31.26028089 -23.22836236 31.26028089 -24.625 39.6875 C-25 43 -25 43 -26 44 C-26.09908783 45.78940972 -26.12970379 47.58285508 -26.125 49.375 C-26.12757812 50.35210937 -26.13015625 51.32921875 -26.1328125 52.3359375 C-26.11434035 55.10464416 -26.11434035 55.10464416 -25 58 C-24.92026524 59.33525717 -24.89228662 60.67412083 -24.90234375 62.01171875 C-24.90556641 62.76904297 -24.90878906 63.52636719 -24.91210938 64.30664062 C-24.92467773 65.48516602 -24.92467773 65.48516602 -24.9375 66.6875 C-24.94201172 67.48478516 -24.94652344 68.28207031 -24.95117188 69.10351562 C-24.9629415 71.06904257 -24.98087652 73.03453085 -25 75 C-24.01 75 -23.02 75 -22 75 C-21.67 75.99 -21.34 76.98 -21 78 C-20.01 78.33 -19.02 78.66 -18 79 C-16.57553843 81.6352539 -15.83154913 83.19404974 -16.453125 86.16796875 C-16.63359375 86.77253906 -16.8140625 87.37710938 -17 88 C-15.08135229 87.74357696 -13.16509006 87.46926564 -11.25 87.1875 C-10.18265625 87.03667969 -9.1153125 86.88585937 -8.015625 86.73046875 C-4.71847864 85.93180765 -3.3590293 85.41541437 -1 83 C-0.38398 80.34123445 0.00896456 78.00155162 0.25 75.3125 C0.32734375 74.61060547 0.4046875 73.90871094 0.484375 73.18554688 C0.67233049 71.45870582 0.83832477 69.72949947 1 68 C18.16665847 67.9692086 35.33331764 67.94895583 52.5 67.9375 C54.41047182 67.93621597 54.41047182 67.93621597 56.35953903 67.93490601 C91.26373793 67.9141944 126.16141788 68.01429036 161.0625 68.5 C161.92239532 68.51195782 162.78229065 68.52391563 163.66824341 68.53623581 C173.77904095 68.67795965 183.8896128 68.8314111 194 69 C194.02335113 82.7688674 194.04092362 96.53773174 194.05181217 110.30661488 C194.05703734 116.69961546 194.06412839 123.09260276 194.07543945 129.4855957 C194.08628128 135.65175698 194.0922796 141.81790547 194.09487724 147.98407555 C194.09672914 150.34006642 194.10034528 152.69605656 194.10573006 155.05204201 C194.11295762 158.34436192 194.11399021 161.63662854 194.11352539 164.92895508 C194.11712067 165.90934753 194.12071594 166.88973999 194.12442017 167.89984131 C194.1230455 168.79586563 194.12167084 169.69188995 194.12025452 170.61506653 C194.12163721 171.78343914 194.12163721 171.78343914 194.12304783 172.97541523 C194 175 194 175 193 178 C192.34 178 191.68 178 191 178 C190.938125 178.845625 190.87625 179.69125 190.8125 180.5625 C189.79572236 184.86425154 188.04211975 187.80619561 185 191 C182.1875 192.4375 182.1875 192.4375 180 193 C180.639375 192.401875 181.27875 191.80375 181.9375 191.1875 C184.20310389 189.09189663 184.20310389 189.09189663 185 186 C185.66 186 186.32 186 187 186 C187.66 183.03 188.32 180.06 189 177 C189.66 177 190.32 177 191 177 C190.99777939 175.7015213 190.99555878 174.4030426 190.99327087 173.06521606 C190.97303328 160.85143916 190.95802487 148.63766565 190.94818783 136.42387581 C190.94296058 130.14406767 190.93586578 123.86427303 190.92456055 117.58447266 C190.91372609 111.52854148 190.90772197 105.47262331 190.90512276 99.4166832 C190.90326952 97.10173208 190.89965084 94.7867817 190.89426994 92.47183609 C190.88705213 89.23918344 190.88600938 86.00658514 190.88647461 82.77392578 C190.88287933 81.80863953 190.87928406 80.84335327 190.87557983 79.84881592 C190.8769545 78.97099457 190.87832916 78.09317322 190.87974548 77.18875122 C190.87836279 76.04111896 190.87836279 76.04111896 190.87695217 74.8703022 C191 73 191 73 192 71 C191.01 71.33 190.02 71.66 189 72 C187.55500672 72.09064568 186.10618917 72.12627541 184.65835571 72.12698364 C183.32669876 72.13121338 183.32669876 72.13121338 181.96813965 72.13552856 C180.50978699 72.13249222 180.50978699 72.13249222 179.02197266 72.12939453 C177.9952243 72.13114685 176.96847595 72.13289917 175.91061401 72.13470459 C172.49507989 72.13912466 169.07959721 72.13617896 165.6640625 72.1328125 C163.27159617 72.13348683 160.87912991 72.13445794 158.48666382 72.13571167 C153.44764561 72.13718993 148.40864506 72.1350349 143.36962891 72.13037109 C136.99639664 72.12475255 130.62320685 72.12798796 124.24997616 72.13382244 C78.42649612 72.16925129 78.42649612 72.16925129 56.03125 71.22265625 C45.75444172 70.80246451 35.47069367 70.89272067 25.1875 70.9375 C23.10351675 70.9425436 21.01953226 70.94710127 18.93554688 70.95117188 C13.95699922 70.96190874 8.9785145 70.97900179 4 71 C3.67 74.63 3.34 78.26 3 82 C2.34 82 1.68 82 1 82 C0.505 83.98 0.505 83.98 0 86 C-0.99 86 -1.98 86 -3 86 C-3.268125 86.639375 -3.53625 87.27875 -3.8125 87.9375 C-5 90 -5 90 -8 91 C-13.00827619 91.65293082 -17.87707512 92.15205424 -22.42578125 89.68359375 C-27.19753849 85.66669076 -31.42586723 80.87328261 -32.36474609 74.53930664 C-32.50319899 71.70205172 -32.50178654 68.90236972 -32.4375 66.0625 C-32.4257373 65.04994141 -32.41397461 64.03738281 -32.40185547 62.99414062 C-31.97270955 44.03969574 -27.48871315 25.07971347 -14 11 C-13.34 11 -12.68 11 -12 11 C-11.67 10.01 -11.34 9.02 -11 8 C-8.8125 6.0625 -8.8125 6.0625 -6 4 C-4.96875 3.236875 -3.9375 2.47375 -2.875 1.6875 C-1.451875 0.8521875 -1.451875 0.8521875 0 0 Z " fill="#F0BBC7" transform="translate(53,54)"/>
<path d="M0 0 C5.93636187 1.97878729 9.30074701 9.0721326 12.33984375 14.30859375 C17.21356259 24.33190231 17.29299293 35.55581565 17.22705078 46.47949219 C17.22734283 47.76871582 17.22763489 49.05793945 17.22793579 50.38623047 C17.22850372 53.88133376 17.2168415 57.37629649 17.20278788 60.87136745 C17.19018584 64.53885094 17.18910262 68.20633854 17.18673706 71.87384033 C17.18054988 78.80083458 17.16417693 85.72776482 17.14403808 92.65473104 C17.12159251 100.54844138 17.110664 108.44215497 17.10064721 116.33588934 C17.07980787 132.55729688 17.04468631 148.77864024 17 165 C16.34 165 15.68 165 15 165 C14.9175 166.299375 14.835 167.59875 14.75 168.9375 C14.19661737 174.14094865 12.35320007 178.37021568 10 183 C9.34 183 8.68 183 8 183 C7.75507813 183.72445312 7.51015625 184.44890625 7.2578125 185.1953125 C3.94740075 192.57691386 -3.15625928 198.40452166 -9.2734375 203.52734375 C-11.02444338 204.97490008 -11.02444338 204.97490008 -12.5859375 206.62890625 C-14.51595089 208.50027282 -16.47722248 209.08262636 -19 210 C-20.03125 210.474375 -21.0625 210.94875 -22.125 211.4375 C-33.6917365 216.26441012 -44.44086445 216.41323427 -56.78125 216.328125 C-58.73666764 216.32547671 -60.6920873 216.32407084 -62.64750671 216.32382202 C-67.85766802 216.31904958 -73.06756747 216.29506482 -78.27764511 216.26630402 C-82.57933175 216.24453895 -86.88102196 216.23305676 -91.18274593 216.22139931 C-104.78876764 216.18357604 -118.39432766 216.10303378 -132 216 C-132.88725517 215.99336838 -133.77451035 215.98673676 -134.68865204 215.97990417 C-145.52222697 215.89761615 -156.35471793 215.77980441 -167.1875 215.625 C-168.4142041 215.6098938 -169.6409082 215.5947876 -170.90478516 215.57922363 C-174.28446413 215.5348996 -177.66359554 215.47719552 -181.04296875 215.4140625 C-182.01127121 215.40249115 -182.97957367 215.3909198 -183.97721863 215.3789978 C-184.85509537 215.35914825 -185.73297211 215.33929871 -186.63745117 215.31884766 C-187.39015793 215.30552399 -188.14286469 215.29220032 -188.91838074 215.2784729 C-191.29396792 214.96067384 -192.90277029 214.13252952 -195 213 C-196.69713048 212.59554367 -198.40722459 212.24259742 -200.125 211.9375 C-204.80555556 211.09722222 -204.80555556 211.09722222 -207 210 C-207 209.34 -207 208.68 -207 208 C-208.423125 207.8453125 -208.423125 207.8453125 -209.875 207.6875 C-213 207 -213 207 -215 204 C-205.84276938 206.55171841 -205.84276938 206.55171841 -202.0625 208.5625 C-193.00602354 212.81349915 -182.63888289 212.28894933 -172.84912109 212.25878906 C-171.35472952 212.26150503 -169.86033928 212.26506934 -168.36595154 212.26940918 C-164.33923363 212.27846191 -160.31261916 212.27501898 -156.28589964 212.26865101 C-152.05539407 212.26355579 -147.82489682 212.26829202 -143.59439087 212.27142334 C-136.49487736 212.27505198 -129.3954056 212.27029207 -122.29589844 212.26074219 C-114.10528517 212.24985137 -105.91477143 212.25339222 -97.72416055 212.264395 C-90.66992004 212.27348934 -83.61570939 212.27474292 -76.56146491 212.26951766 C-72.35773629 212.26641083 -68.15405438 212.26595324 -63.95032883 212.27259064 C-59.99889304 212.2783951 -56.04758489 212.27431085 -52.0961628 212.26280212 C-50.65185952 212.26017241 -49.20754539 212.26089153 -47.76324654 212.26532745 C-31.45630054 212.31077004 -17.89883455 208.88356947 -5.5625 197.8125 C7.29732668 183.69805608 13.28727328 171.21017974 13.31884766 152.17016602 C13.3281562 150.77013069 13.33832624 149.37010087 13.34928894 147.97007751 C13.37649871 144.1855004 13.39171145 140.40096032 13.40471697 136.61631131 C13.42038716 132.65512949 13.44716492 128.69402286 13.4727478 124.7328949 C13.5194669 117.23913771 13.55624418 109.74536627 13.58942068 102.25153822 C13.62769069 93.7170298 13.67708803 85.18259704 13.72740483 76.64815247 C13.83062249 59.0988231 13.91991583 41.54944988 14 24 C13.34 24 12.68 24 12 24 C12 23.34 12 22.68 12 22 C11.01 22 10.02 22 9 22 C9 21.34 9 20.68 9 20 C8.34 20 7.68 20 7 20 C6.94392578 19.00419922 6.94392578 19.00419922 6.88671875 17.98828125 C6.39660619 11.00716451 6.39660619 11.00716451 3 5 C2.01 4.34 1.02 3.68 0 3 C0 2.01 0 1.02 0 0 Z " fill="#F0D0D7" transform="translate(264,69)"/>
<path d="M0 0 C0.99 0.33 1.98 0.66 3 1 C1.71186658 1.83878455 0.41936744 2.67086783 -0.875 3.5 C-1.59429687 3.9640625 -2.31359375 4.428125 -3.0546875 4.90625 C-5 6 -5 6 -7 6 C-7.226875 6.70125 -7.45375 7.4025 -7.6875 8.125 C-9.27874832 11.61059155 -11.55352872 14.06423446 -14 17 C-14.33 17.928125 -14.66 18.85625 -15 19.8125 C-15.33 20.534375 -15.66 21.25625 -16 22 C-18.5625 22.63671875 -18.5625 22.63671875 -21 23 C-23.22836236 31.26028089 -23.22836236 31.26028089 -24.625 39.6875 C-25 43 -25 43 -26 44 C-26.09908783 45.78940972 -26.12970379 47.58285508 -26.125 49.375 C-26.12757812 50.35210937 -26.13015625 51.32921875 -26.1328125 52.3359375 C-26.11434035 55.10464416 -26.11434035 55.10464416 -25 58 C-24.92026524 59.33525717 -24.89228662 60.67412083 -24.90234375 62.01171875 C-24.90556641 62.76904297 -24.90878906 63.52636719 -24.91210938 64.30664062 C-24.92467773 65.48516602 -24.92467773 65.48516602 -24.9375 66.6875 C-24.94201172 67.48478516 -24.94652344 68.28207031 -24.95117188 69.10351562 C-24.9629415 71.06904257 -24.98087652 73.03453085 -25 75 C-24.01 75 -23.02 75 -22 75 C-21.67 75.99 -21.34 76.98 -21 78 C-20.01 78.33 -19.02 78.66 -18 79 C-15.9902452 82.71804639 -15.93515278 83.7406111 -17 88 C-11.555 87.505 -11.555 87.505 -6 87 C-6.66 88.32 -7.32 89.64 -8 91 C-18.041841 92.05439331 -18.041841 92.05439331 -22.4375 89.6875 C-27.1937508 85.65189326 -31.42546921 80.87596773 -32.36474609 74.53930664 C-32.50319899 71.70205172 -32.50178654 68.90236972 -32.4375 66.0625 C-32.4257373 65.04994141 -32.41397461 64.03738281 -32.40185547 62.99414062 C-31.97270955 44.03969574 -27.48871315 25.07971347 -14 11 C-13.34 11 -12.68 11 -12 11 C-11.67 10.01 -11.34 9.02 -11 8 C-8.8125 6.0625 -8.8125 6.0625 -6 4 C-4.96875 3.236875 -3.9375 2.47375 -2.875 1.6875 C-1.451875 0.8521875 -1.451875 0.8521875 0 0 Z " fill="#F1224F" transform="translate(53,54)"/>
<path d="M0 0 C0.99 0.66 1.98 1.32 3 2 C3.22107787 4.7885289 3.28107535 7.34653181 3.1875 10.125 C3.16719727 11.25615234 3.16719727 11.25615234 3.14648438 12.41015625 C3.11109985 14.27374127 3.05729167 16.13695978 3 18 C3.71996658 17.99777939 4.43993317 17.99555878 5.18171692 17.99327087 C11.96492087 17.97323834 18.7481204 17.95801071 25.53134632 17.94818783 C29.01871311 17.94296804 32.50605547 17.93588676 35.9934082 17.92456055 C40.00211828 17.91162246 44.01080267 17.90676431 48.01953125 17.90234375 C49.27272659 17.89718246 50.52592194 17.89202118 51.8170929 17.88670349 C53.55855843 17.88659019 53.55855843 17.88659019 55.33520508 17.88647461 C56.35890701 17.884254 57.38260895 17.88203339 58.43733215 17.87974548 C63.61597334 18.1227559 65.54543113 20.37691558 69 24 C69.763125 24.721875 70.52625 25.44375 71.3125 26.1875 C73 28 73 28 73 30 C73.66 30 74.32 30 75 30 C76.97891839 33.95783679 76.56132824 38.69648347 76 43 C73.75 45.9375 73.75 45.9375 71 48 C70.278125 48.763125 69.55625 49.52625 68.8125 50.3125 C67 52 67 52 65 52 C65 52.66 65 53.32 65 54 C60.9905112 54.74258321 57.16181633 55.1419273 53.08642578 55.20532227 C51.94569611 55.22526749 50.80496643 55.24521271 49.62966919 55.26576233 C47.80591263 55.29083107 47.80591263 55.29083107 45.9453125 55.31640625 C44.68862762 55.33718735 43.43194275 55.35796844 42.13717651 55.37937927 C38.81314299 55.43354612 35.48909743 55.48383793 32.16497803 55.53222656 C28.76618283 55.58266496 25.36747184 55.63823383 21.96875 55.69335938 C15.31256728 55.80028257 8.65632114 55.90209464 2 56 C2.01160156 57.04800781 2.02320312 58.09601563 2.03515625 59.17578125 C2.04453655 60.55468572 2.0536365 61.93359211 2.0625 63.3125 C2.07087891 64.00279297 2.07925781 64.69308594 2.08789062 65.40429688 C2.10307906 68.5483025 2.00193327 70.99420019 1 74 C0.01 74.495 0.01 74.495 -1 75 C-1.33 75.99 -1.66 76.98 -2 78 C-4.60919828 79.30459914 -6.58942615 79.1326594 -9.5 79.125 C-10.4796875 79.12757813 -11.459375 79.13015625 -12.46875 79.1328125 C-15 79 -15 79 -17 78 C-17 77.34 -17 76.68 -17 76 C-18.32 75.34 -19.64 74.68 -21 74 C-21 73.34 -21 72.68 -21 72 C-22.32 71.34 -23.64 70.68 -25 70 C-25 69.34 -25 68.68 -25 68 C-26.32 67.34 -27.64 66.68 -29 66 C-28.505 65.01 -28.505 65.01 -28 64 C-27.49210937 64.44730469 -26.98421875 64.89460938 -26.4609375 65.35546875 C-25.02824916 66.61376619 -23.5890669 67.86469629 -22.14453125 69.109375 C-20.87726131 70.22660387 -19.63334112 71.3731239 -18.44921875 72.578125 C-15.62174831 75.3498425 -13.29771991 76.42513001 -9.4375 76.75 C-6.07416881 76.51138529 -4.20190051 75.90958466 -1.9375 73.375 C0.93453806 68.62094382 0.3293286 63.38405035 0.078125 58.01171875 C0 55 0 55 1 53 C1.63147446 52.98969254 2.26294891 52.97938507 2.91355896 52.96876526 C9.51660374 52.86015145 16.11952705 52.74560204 22.72241211 52.62768555 C25.18299811 52.5845117 27.64361068 52.54282511 30.10424805 52.50268555 C33.65161125 52.44455558 37.19884281 52.38098651 40.74609375 52.31640625 C41.8370787 52.29969376 42.92806366 52.28298126 44.05210876 52.26576233 C57.30421971 52.33838267 57.30421971 52.33838267 69 47 C71.87838286 43.56808197 72.93335634 40.78639515 73.3125 36.3125 C73.04105265 32.55695106 73.04105265 32.55695106 72 29 C70.515 28.505 70.515 28.505 69 28 C67.31237149 26.3545622 65.6459651 24.68711423 64 23 C60.57674287 20.71782858 59.28812419 20.73701106 55.25927734 20.69702148 C54.08150726 20.68037949 52.90373718 20.66373749 51.6902771 20.64659119 C50.41834503 20.63817703 49.14641296 20.62976288 47.8359375 20.62109375 C45.84570499 20.595135 43.85547253 20.56917146 41.86524391 20.5429163 C39.07759058 20.50850672 36.28988286 20.4829326 33.50213623 20.45739746 C28.61498296 20.4116825 23.7279463 20.356615 18.8409729 20.29469299 C16.23798559 20.26260623 13.6349278 20.23575738 11.03182983 20.21446228 C9.86036407 20.20097244 8.68889832 20.1874826 7.48193359 20.17358398 C6.44507416 20.16407211 5.40821472 20.15456024 4.3399353 20.14476013 C2 20 2 20 1 19 C0.84379445 17.58672053 0.74943827 16.1664541 0.68359375 14.74609375 C0.64169922 13.89208984 0.59980469 13.03808594 0.55664062 12.15820312 C0.51732422 11.26037109 0.47800781 10.36253906 0.4375 9.4375 C0.39431641 8.53580078 0.35113281 7.63410156 0.30664062 6.70507812 C0.20021858 4.47021515 0.09820012 2.23523692 0 0 Z " fill="#FCF6F7" transform="translate(110,144)"/>
<path d="M0 0 C2 1 2 1 2 1 Z M-56 -4 C-54.43536936 -3.74175999 -52.8733355 -3.46776681 -51.3125 -3.1875 C-50.44238281 -3.03667969 -49.57226562 -2.88585937 -48.67578125 -2.73046875 C-46 -2 -46 -2 -43.5703125 -0.43359375 C-40.34164973 1.36719536 -38.23103907 1.2719144 -34.5625 1.125 C-30.20033768 0.97049602 -26.28962413 1.15889723 -22 2 C-21.67 1.34 -21.34 0.68 -21 0 C-21 0.66 -21 1.32 -21 2 C-19.98342316 1.83610275 -18.96684631 1.67220551 -17.91946411 1.50334167 C-14.30292144 1.03890149 -10.92926763 0.90169086 -7.28857422 0.9465332 C-5.98235611 0.96024963 -4.676138 0.97396606 -3.33033752 0.98809814 C-1.90511756 1.00876709 -0.47990096 1.02966874 0.9453125 1.05078125 C2.45178322 1.06948514 3.95825821 1.08784845 5.46473694 1.105896 C9.51282238 1.15630555 13.56075581 1.21466122 17.6086998 1.27528763 C20.12417382 1.31248778 22.63966939 1.34755635 25.15518188 1.38204956 C57.45262337 1.82912902 89.72346686 2.76678424 122 4 C122 4.33 122 4.66 122 5 C102.29309193 5.07026296 82.5862095 5.12307254 62.87920189 5.15543652 C53.72769341 5.17086699 44.57626302 5.19188296 35.42480469 5.22631836 C27.44296291 5.25633822 19.46117773 5.27560272 11.47928107 5.28226548 C7.25784838 5.28615654 3.03657752 5.29522022 -1.18480301 5.31719017 C-5.16895201 5.33775485 -9.15287457 5.34379406 -13.13707161 5.33932304 C-14.58895542 5.34013941 -16.04084787 5.34598497 -17.49268532 5.35761642 C-29.2812295 5.4473217 -40.43768881 4.58577124 -51 -1 C-52.65910004 -1.68528045 -54.32332564 -2.35891863 -56 -3 C-56 -3.33 -56 -3.66 -56 -4 Z " fill="#D44F6A" transform="translate(107,277)"/>
<path d="M0 0 C2.62725674 1.42351363 3.96016659 2.73964406 6 5 C6 5.66 6 6.32 6 7 C6.66 7 7.32 7 8 7 C9.35148541 11.30785975 10 14.41957592 10 19 C30.13 19 50.26 19 71 19 C71 17.02 71 15.04 71 13 C71.66 12.67 72.32 12.34 73 12 C73.09765625 18.15234375 73.09765625 18.15234375 73 20 C71.20903955 21.79096045 68.53667215 21.12766791 66.11914062 21.12939453 C64.86113647 21.13254669 63.60313232 21.13569885 62.30700684 21.13894653 C60.92342087 21.13715675 59.53983522 21.1351058 58.15625 21.1328125 C56.74759911 21.13348559 55.33894834 21.13445565 53.93029785 21.13571167 C50.97451677 21.13718842 48.01876586 21.13503483 45.06298828 21.13037109 C41.26625416 21.12467381 37.46959072 21.12795293 33.67285919 21.13394356 C30.76303572 21.13754979 27.85322912 21.1364103 24.94340515 21.13381577 C23.543106 21.13314667 22.14280533 21.13397432 20.74250793 21.13629532 C18.78862536 21.13882283 16.83473745 21.13429033 14.88085938 21.12939453 C13.76690796 21.12859894 12.65295654 21.12780334 11.50524902 21.12698364 C9 21 9 21 8 20 C7.86798654 18.60652455 7.76941967 17.20981548 7.6875 15.8125 C7.20977627 11.25964811 6.08682972 8.50396887 3 5 C-1.34692742 1.89505184 -5.44712242 1.41753314 -10.6640625 1.58203125 C-14.3547129 2.24239846 -15.83422105 4.04666507 -18 7 C-18.5775 7.763125 -19.155 8.52625 -19.75 9.3125 C-21.42366606 12.91088202 -21.66534009 16.05101304 -22 20 C-26.70461323 21.86132673 -30.8757696 22.2509496 -35.875 22.125 C-36.56335938 22.11597656 -37.25171875 22.10695313 -37.9609375 22.09765625 C-39.64077838 22.07432513 -41.32043746 22.03846326 -43 22 C-43.33 22.99 -43.66 23.98 -44 25 C-44.969375 25.12375 -45.93875 25.2475 -46.9375 25.375 C-47.948125 25.58125 -48.95875 25.7875 -50 26 C-50.33 26.66 -50.66 27.32 -51 28 C-52.32 27.34 -53.64 26.68 -55 26 C-52.77524902 23.77524902 -51.40264256 23.34655655 -48.4375 22.4375 C-45.4574868 21.66788364 -45.4574868 21.66788364 -43 20 C-36.69502258 18.98670006 -30.36939251 18.89726786 -24 19 C-24 16.36 -24 13.72 -24 11 C-23.34 11 -22.68 11 -22 11 C-21.79375 10.113125 -21.5875 9.22625 -21.375 8.3125 C-19.59133836 4.01549696 -17.76147182 2.68676558 -14 0 C-9.30042386 -1.56652538 -4.80848045 -1.0206034 0 0 Z " fill="#F6E1E7" transform="translate(111,27)"/>
<path d="M0 0 C9.07661358 2.52925398 9.07661358 2.52925398 13.1875 4.625 C16.46509541 6.22737998 19.3893724 6.63893724 23 7 C23 7.66 23 8.32 23 9 C76.13 9 129.26 9 184 9 C180.51637999 12.48362001 176.92918603 12.11670441 172.12925434 12.1355381 C171.34788703 12.13351072 170.56651972 12.13148335 169.76147461 12.12939453 C168.92799342 12.13111853 168.09451223 12.13284252 167.23577404 12.13461876 C164.4579442 12.13896961 161.68017442 12.13600849 158.90234375 12.1328125 C156.93691996 12.13391228 154.97149633 12.13534304 153.006073 12.13708496 C147.73837247 12.13999491 142.47070302 12.13568453 137.20300674 12.12897491 C133.9472987 12.12501193 130.69159225 12.12249343 127.43588257 12.12030029 C100.89333052 12.09969814 74.35238281 12.01926058 47.8125 11.625 C46.58643036 11.60971252 45.36036072 11.59442505 44.09713745 11.57867432 C40.71682319 11.53440216 37.33704487 11.47689565 33.95703125 11.4140625 C32.98869354 11.40250122 32.02035583 11.39093994 31.02267456 11.37902832 C30.14483307 11.3591687 29.26699158 11.33930908 28.36254883 11.31884766 C27.60984207 11.30552399 26.85713531 11.29220032 26.08161926 11.2784729 C23.70603208 10.96067384 22.09722971 10.13252952 20 9 C18.30286952 8.59554367 16.59277541 8.24259742 14.875 7.9375 C10.19444444 7.09722222 10.19444444 7.09722222 8 6 C8 5.34 8 4.68 8 4 C7.05125 3.896875 6.1025 3.79375 5.125 3.6875 C2 3 2 3 0 0 Z " fill="#F3EAEC" transform="translate(49,273)"/>
<path d="M0 0 C9.37984811 -0.02322631 18.75968623 -0.04096739 28.13955688 -0.05181217 C32.49555481 -0.05701855 36.85153298 -0.06407521 41.20751953 -0.07543945 C45.41558017 -0.08634839 49.62362186 -0.09229374 53.83169556 -0.09487724 C55.43275246 -0.09671711 57.03380839 -0.10030979 58.63485718 -0.10573006 C60.88680213 -0.11304691 63.13866997 -0.11398649 65.390625 -0.11352539 C67.3092334 -0.11685631 67.3092334 -0.11685631 69.26660156 -0.12025452 C72.50985479 -0.01578781 75.62059207 0.33300753 78.8318634 0.76813412 C83.08812207 1.22330893 87.36210203 1.17974742 91.63867188 1.20532227 C93.19124191 1.22017166 93.19124191 1.22017166 94.775177 1.23532104 C98.17301195 1.26673553 101.57086084 1.29161369 104.96875 1.31640625 C107.33386586 1.33699312 109.69897818 1.35799003 112.06408691 1.37937927 C118.27165859 1.43442102 124.47926248 1.48390886 130.68688965 1.53222656 C137.0282679 1.58257268 143.3695997 1.63819015 149.7109375 1.69335938 C162.14058526 1.80072189 174.57027346 1.90221503 187 2 C187 2.33 187 2.66 187 3 C173.15863564 3.0233969 159.31727615 3.04105205 145.47589588 3.05181217 C139.04552819 3.05698217 132.61517424 3.06396977 126.18481445 3.07543945 C76.0322917 3.16262135 76.0322917 3.16262135 54.0246582 2.22485352 C43.75020306 1.80019977 33.46848225 1.8927303 23.1875 1.9375 C21.10351675 1.9425436 19.01953226 1.94710127 16.93554688 1.95117188 C11.95699922 1.96190874 6.9785145 1.97900179 2 2 C1.67 5.63 1.34 9.26 1 13 C0.34 13 -0.32 13 -1 13 C-1.33 14.32 -1.66 15.64 -2 17 C-2.99 17 -3.98 17 -5 17 C-5.66 18.32 -6.32 19.64 -7 21 C-7.99 20.67 -8.98 20.34 -10 20 C-9.51789062 19.60167969 -9.03578125 19.20335937 -8.5390625 18.79296875 C-7.90742187 18.26316406 -7.27578125 17.73335937 -6.625 17.1875 C-5.99851562 16.66542969 -5.37203125 16.14335937 -4.7265625 15.60546875 C-1.2581774 12.38034143 -0.69678853 9.87117089 -0.375 5.3125 C-0.30023438 4.31863281 -0.22546875 3.32476562 -0.1484375 2.30078125 C-0.09945312 1.54152344 -0.05046875 0.78226562 0 0 Z " fill="#FBF0F2" transform="translate(55,123)"/>
<path d="M0 0 C3.3 0 6.6 0 10 0 C10 0.66 10 1.32 10 2 C10.721875 2.185625 11.44375 2.37125 12.1875 2.5625 C15.98700512 4.50446928 17.94979526 7.30090719 20 11 C20 11.66 20 12.32 20 13 C20.66 13 21.32 13 22 13 C22 15.31 22 17.62 22 20 C23.71896484 20.16435547 23.71896484 20.16435547 25.47265625 20.33203125 C27.00266527 20.49160274 28.53260995 20.65179195 30.0625 20.8125 C30.81466797 20.88275391 31.56683594 20.95300781 32.34179688 21.02539062 C37.44142256 21.57729817 41.36743183 22.80069996 46 25 C47.32276056 25.37308631 48.65232077 25.73046415 50 26 C50 26.66 50 27.32 50 28 C50.70125 28.268125 51.4025 28.53625 52.125 28.8125 C57.81848932 31.16415863 61.7803611 33.43822822 66 38 C66.598125 38.598125 67.19625 39.19625 67.8125 39.8125 C68.204375 40.204375 68.59625 40.59625 69 41 C68.505 41.99 68.505 41.99 68 43 C67.05640625 42.09507813 67.05640625 42.09507813 66.09375 41.171875 C60.99985567 36.41552789 56.43468733 32.6634876 50 30 C48.37436131 29.27225837 46.74936669 28.54307641 45.125 27.8125 C44.38507813 27.48894531 43.64515625 27.16539063 42.8828125 26.83203125 C41.57382265 26.25357723 40.28001984 25.64000992 39 25 C37.56486753 24.86094858 36.12435839 24.77476567 34.68359375 24.71875 C33.83732422 24.68136719 32.99105469 24.64398438 32.11914062 24.60546875 C30.32747998 24.53500285 28.53581328 24.46469102 26.74414062 24.39453125 C25.89916016 24.35714844 25.05417969 24.31976563 24.18359375 24.28125 C23.01654907 24.23581055 23.01654907 24.23581055 21.82592773 24.18945312 C20 24 20 24 19 23 C18.9210005 21.22982599 18.86176658 19.4587509 18.8125 17.6875 C18.47721684 12.88126319 18.47721684 12.88126319 15.125 9.375 C12.05740719 7.9676783 12.05740719 7.9676783 9 7 C9 6.67 9 6.34 9 6 C3.555 5.505 3.555 5.505 -2 5 C-2 5.66 -2 6.32 -2 7 C-4.90548882 9.04169485 -6.40142046 10 -10 10 C-10.33 10.99 -10.66 11.98 -11 13 C-10.74123708 9.20481045 -10.4461863 7.45858036 -7.75 4.6875 C-5.04695732 3.02881472 -3.12457142 2.35709388 0 2 C0 1.34 0 0.68 0 0 Z " fill="#CE6E89" transform="translate(195,26)"/>
<path d="M0 0 C3.78873641 1.26291214 4.6151319 2.79058535 6.9375 6 C7.60652344 6.9075 8.27554687 7.815 8.96484375 8.75 C14.4518899 17.51242303 15.57232644 24.34750439 15.45410156 34.68969727 C15.45297122 36.05061306 15.45361058 37.41153129 15.45587158 38.77244568 C15.45701241 42.44143479 15.43360672 46.10989359 15.40557575 49.77876019 C15.38045583 53.62241202 15.3782118 57.46607795 15.37347412 61.30979919 C15.36107528 68.57697234 15.32829595 75.84390285 15.28807616 83.11096948 C15.24326175 91.38909999 15.22134719 99.6672425 15.20129442 107.94546425 C15.15956024 124.96378284 15.08926888 141.98186571 15 159 C14.67 159 14.34 159 14 159 C14 114.45 14 69.9 14 24 C13.34 24 12.68 24 12 24 C12 23.34 12 22.68 12 22 C11.01 22 10.02 22 9 22 C9 21.34 9 20.68 9 20 C8.34 20 7.68 20 7 20 C6.96261719 19.33613281 6.92523438 18.67226562 6.88671875 17.98828125 C6.39660619 11.00716451 6.39660619 11.00716451 3 5 C2.01 4.34 1.02 3.68 0 3 C0 2.01 0 1.02 0 0 Z " fill="#E2B0BB" transform="translate(264,69)"/>
<path d="M0 0 C0.33 0 0.66 0 1 0 C1 45.87 1 91.74 1 139 C0.34 139 -0.32 139 -1 139 C-1.16930979 133.3809113 -1.32966431 127.76165956 -1.48217773 122.14208984 C-1.53513111 120.23544659 -1.59041555 118.32886644 -1.64819336 116.42236328 C-1.73142637 113.66192238 -1.80591714 110.90135363 -1.87890625 108.140625 C-1.90594131 107.30573547 -1.93297638 106.47084595 -1.96083069 105.61065674 C-2.06814301 101.2322281 -1.9467811 96.97581585 -1.52734375 92.61523438 C-0.71801601 83.76623207 -0.76472043 74.89477943 -0.68359375 66.015625 C-0.66298089 64.10463049 -0.64198343 62.19364009 -0.62062073 60.28265381 C-0.56584677 55.2917009 -0.51624353 50.30070996 -0.46777344 45.30969238 C-0.4172288 40.20121948 -0.36171611 35.09280071 -0.30664062 29.984375 C-0.19960688 19.98962976 -0.09804401 9.99483719 0 0 Z " fill="#B22341" transform="translate(276,100)"/>
<path d="M0 0 C1.485 0.99 1.485 0.99 3 2 C3.22107787 4.7885289 3.28107535 7.34653181 3.1875 10.125 C3.17396484 10.87910156 3.16042969 11.63320312 3.14648438 12.41015625 C3.11109985 14.27374127 3.05729167 16.13695978 3 18 C3.71996658 17.99777939 4.43993317 17.99555878 5.18171692 17.99327087 C11.96492087 17.97323834 18.7481204 17.95801071 25.53134632 17.94818783 C29.01871311 17.94296804 32.50605547 17.93588676 35.9934082 17.92456055 C40.00211828 17.91162246 44.01080267 17.90676431 48.01953125 17.90234375 C49.27272659 17.89718246 50.52592194 17.89202118 51.8170929 17.88670349 C53.55855843 17.88659019 53.55855843 17.88659019 55.33520508 17.88647461 C56.35890701 17.884254 57.38260895 17.88203339 58.43733215 17.87974548 C63.61597334 18.1227559 65.54543113 20.37691558 69 24 C69.763125 24.721875 70.52625 25.44375 71.3125 26.1875 C73 28 73 28 73 30 C73.66 30 74.32 30 75 30 C76.32229189 32.64458379 76.09677194 34.67761301 76.0625 37.625 C76.05347656 38.62789062 76.04445313 39.63078125 76.03515625 40.6640625 C76.02355469 41.43492187 76.01195312 42.20578125 76 43 C75.34 43 74.68 43 74 43 C74.495 38.05 74.495 38.05 75 33 C73.515 32.505 73.515 32.505 72 32 C72 31.01 72 30.02 72 29 C70.515 28.505 70.515 28.505 69 28 C67.31237149 26.3545622 65.6459651 24.68711423 64 23 C60.57674287 20.71782858 59.28812419 20.73701106 55.25927734 20.69702148 C54.08150726 20.68037949 52.90373718 20.66373749 51.6902771 20.64659119 C50.41834503 20.63817703 49.14641296 20.62976288 47.8359375 20.62109375 C45.84570499 20.595135 43.85547253 20.56917146 41.86524391 20.5429163 C39.07759058 20.50850672 36.28988286 20.4829326 33.50213623 20.45739746 C28.61498296 20.4116825 23.7279463 20.356615 18.8409729 20.29469299 C16.23798559 20.26260623 13.6349278 20.23575738 11.03182983 20.21446228 C9.86036407 20.20097244 8.68889832 20.1874826 7.48193359 20.17358398 C6.44507416 20.16407211 5.40821472 20.15456024 4.3399353 20.14476013 C2 20 2 20 1 19 C0.84379445 17.58672053 0.74943827 16.1664541 0.68359375 14.74609375 C0.64169922 13.89208984 0.59980469 13.03808594 0.55664062 12.15820312 C0.51732422 11.26037109 0.47800781 10.36253906 0.4375 9.4375 C0.39431641 8.53580078 0.35113281 7.63410156 0.30664062 6.70507812 C0.20021858 4.47021515 0.09820012 2.23523692 0 0 Z " fill="#F9F7F8" transform="translate(110,144)"/>
<path d="M0 0 C2.60376018 1.74091567 4.93754832 3.63664352 7 6 C7 6.66 7 7.32 7 8 C7.66 8 8.32 8 9 8 C9.33 9.65 9.66 11.3 10 13 C8.62437146 11.71034824 7.29233607 10.37310707 6 9 C6 8.34 6 7.68 6 7 C5.401875 6.71125 4.80375 6.4225 4.1875 6.125 C2 5 2 5 -1 3 C-1 2.34 -1 1.68 -1 1 C-4.3 1.33 -7.6 1.66 -11 2 C-11 2.66 -11 3.32 -11 4 C-11.8971875 4.2784375 -11.8971875 4.2784375 -12.8125 4.5625 C-16.09478893 6.71943272 -17.14470323 9.2999118 -18 13 C-18.62657901 19.88390183 -18.95425143 25.14332534 -15 31 C-14.4121875 32.546875 -14.4121875 32.546875 -13.8125 34.125 C-10.10241191 42.97510596 -3.48075474 50.17058208 4 56 C0.07290865 56 -0.8189713 54.72099538 -3.6875 52.125 C-4.49574219 51.40570313 -5.30398437 50.68640625 -6.13671875 49.9453125 C-8 48 -8 48 -8 46 C-8.99 45.67 -9.98 45.34 -11 45 C-12.38671875 42.78515625 -12.38671875 42.78515625 -13.6875 40.0625 C-14.12449219 39.16660156 -14.56148437 38.27070313 -15.01171875 37.34765625 C-16 35 -16 35 -16 33 C-16.66 33 -17.32 33 -18 33 C-21.07708804 27.06561592 -22.48736475 22.70126536 -22 16 C-21.34 16 -20.68 16 -20 16 C-20.00902344 15.41992188 -20.01804687 14.83984375 -20.02734375 14.2421875 C-19.8929927 10.70232947 -19.77507615 7.99652648 -17.55078125 5.13671875 C-11.98565045 0.27175625 -7.43689786 -2.05155803 0 0 Z " fill="#F5CDD4" transform="translate(45,216)"/>
<path d="M0 0 C0.99 0.495 0.99 0.495 2 1 C2 1.66 2 2.32 2 3 C2.61875 3.20625 3.2375 3.4125 3.875 3.625 C6.84653645 5.54775888 7.13024659 7.66594527 8 11 C8.66 11 9.32 11 10 11 C11.04296875 12.609375 11.04296875 12.609375 12.1875 14.75 C14.80940074 19.17740126 17.38987383 20.83052886 22 23 C21.34 23.66 20.68 24.32 20 25 C19.34 24.67 18.68 24.34 18 24 C17.67 24.66 17.34 25.32 17 26 C14.03 25.01 11.06 24.02 8 23 C8 22.01 8 21.02 8 20 C8.66 20 9.32 20 10 20 C10.33 19.34 10.66 18.68 11 18 C10.01 18.33 9.02 18.66 8 19 C7.566875 18.195625 7.13375 17.39125 6.6875 16.5625 C5.19525998 13.72153646 5.19525998 13.72153646 2 13 C1.34 8.71 0.68 4.42 0 0 Z " fill="#E82148" transform="translate(52,226)"/>
<path d="M0 0 C0.33 0 0.66 0 1 0 C1.15105778 3.70091564 1.0920417 6.69405018 0.01977539 10.25830078 C-1.04448255 14.16321273 -1.37261364 17.78863963 -1.44140625 21.8046875 C-1.45517807 22.52810333 -1.46894989 23.25151917 -1.48313904 23.99685669 C-1.50626696 25.51784791 -1.52360499 27.03893727 -1.53540039 28.56005859 C-1.56236609 30.86356136 -1.63739155 33.16249093 -1.71289062 35.46484375 C-1.85341189 43.26237467 -1.6406408 49.53419518 4.02416992 55.49609375 C6.93433128 57.71116776 9.3144196 58.30104059 12.9375 58.5625 C14.08089844 58.66691406 15.22429688 58.77132812 16.40234375 58.87890625 C17.25957031 58.91886719 18.11679687 58.95882812 19 59 C19 59.33 19 59.66 19 60 C8.958159 61.05439331 8.958159 61.05439331 4.5625 58.6875 C-0.1937508 54.65189326 -4.42546921 49.87596773 -5.36474609 43.53930664 C-5.50319899 40.70205172 -5.50178654 37.90236972 -5.4375 35.0625 C-5.4257373 34.04994141 -5.41397461 33.03738281 -5.40185547 31.99414062 C-5.15082778 20.90679191 -3.11658379 10.62348563 0 0 Z " fill="#F7E1E7" transform="translate(26,85)"/>
<path d="M0 0 C0.33 0 0.66 0 1 0 C1.32467371 8.96460194 -0.34161454 15.85177785 -4 24 C-4.66 24 -5.32 24 -6 24 C-6.24492187 24.72445312 -6.48984375 25.44890625 -6.7421875 26.1953125 C-10.05259925 33.57691386 -17.15625928 39.40452166 -23.2734375 44.52734375 C-25.02444338 45.97490008 -25.02444338 45.97490008 -26.5859375 47.62890625 C-28.51595089 49.50027282 -30.47722248 50.08262636 -33 51 C-34.051875 51.515625 -35.10375 52.03125 -36.1875 52.5625 C-40.61952352 54.50396163 -45.21799979 54.72096981 -50 55 C-49.67 54.34 -49.34 53.68 -49 53 C-46.89158173 52.5579123 -44.78274265 52.11774054 -42.671875 51.6875 C-27.06518778 47.67174422 -15.54599515 36.61155715 -7.2578125 23.17578125 C-3.22322007 15.65859287 -1.4134562 8.38154727 0 0 Z " fill="#E8CDD2" transform="translate(278,228)"/>
<path d="M0 0 C13.38669049 -0.52496825 22.7607747 -0.02801807 34 8 C35.3191582 8.69429379 36.64649406 9.37530495 38 10 C37.39816251 12.02045442 36.72693904 14.02111039 36 16 C34 17 34 17 31.984375 16.3828125 C29.32281471 14.52810317 29.04591005 12.97904918 28.25 9.875 C27.88648438 8.50988281 27.88648438 8.50988281 27.515625 7.1171875 C27.34546875 6.41851562 27.1753125 5.71984375 27 5 C25.865625 4.87625 24.73125 4.7525 23.5625 4.625 C19.62508926 4.15642714 15.89442645 3.27092824 12.078125 2.20703125 C9.44697489 1.94490539 8.23998247 2.66067715 6 4 C4.66666667 4.66666667 3.33333333 5.33333333 2 6 C1.34 4.02 0.68 2.04 0 0 Z " fill="#B52A4A" transform="translate(216,50)"/>
<path d="M0 0 C3.90312892 0.67379053 6.30792096 2.1159528 9.51171875 4.43359375 C9.84171875 5.09359375 10.17171875 5.75359375 10.51171875 6.43359375 C8.03671875 5.93859375 8.03671875 5.93859375 5.51171875 5.43359375 C5.18171875 6.09359375 4.85171875 6.75359375 4.51171875 7.43359375 C3.70734375 7.57796875 2.90296875 7.72234375 2.07421875 7.87109375 C-0.83268783 8.19862092 -0.83268783 8.19862092 -2.48828125 11.43359375 C-3.80828125 11.43359375 -5.12828125 11.43359375 -6.48828125 11.43359375 C-6.81828125 10.11359375 -7.14828125 8.79359375 -7.48828125 7.43359375 C-11.53450627 7.06379362 -11.53450627 7.06379362 -14.48828125 9.43359375 C-11.56372142 2.25512871 -7.56506876 -0.37316483 0 0 Z " fill="#E71D47" transform="translate(105.48828125,27.56640625)"/>
<path d="M0 0 C-0.375 1.9375 -0.375 1.9375 -1 4 C-1.99 4.495 -1.99 4.495 -3 5 C-3.66 4.67 -4.32 4.34 -5 4 C-5.433125 5.11375 -5.433125 5.11375 -5.875 6.25 C-6.24625 7.1575 -6.6175 8.065 -7 9 C-7.2475 9.680625 -7.495 10.36125 -7.75 11.0625 C-9.56557838 13.87664649 -12.23670609 15.15780406 -15 17 C-16.38868516 19.10039331 -16.38868516 19.10039331 -17 21 C-17.66 19.68 -18.32 18.36 -19 17 C-19.99 17.66 -20.98 18.32 -22 19 C-17.46865522 9.72752596 -11.48380498 0 0 0 Z " fill="#F12047" transform="translate(60,54)"/>
<path d="M0 0 C0.33 0 0.66 0 1 0 C1.37462245 7.24270068 0.41417197 11.29141681 -4.5625 16.875 C-7 19 -7 19 -9 19 C-9 19.66 -9 20.32 -9 21 C-30.12 21 -51.24 21 -73 21 C-73 20.67 -73 20.34 -73 20 C-72.36852554 19.98969254 -71.73705109 19.97938507 -71.08644104 19.96876526 C-64.48339626 19.86015145 -57.88047295 19.74560204 -51.27758789 19.62768555 C-48.81700189 19.5845117 -46.35638932 19.54282511 -43.89575195 19.50268555 C-40.34838875 19.44455558 -36.80115719 19.38098651 -33.25390625 19.31640625 C-32.1629213 19.29969376 -31.07193634 19.28298126 -29.94789124 19.26576233 C-16.69578029 19.33838267 -16.69578029 19.33838267 -5 14 C-1.49418899 9.70564791 -0.44385653 5.43724246 0 0 Z " fill="#F5E2E7" transform="translate(184,177)"/>
<path d="M0 0 C2 1 2 1 2 1 Z M-56 -4 C-54.43536936 -3.74175999 -52.8733355 -3.46776681 -51.3125 -3.1875 C-50.44238281 -3.03667969 -49.57226562 -2.88585937 -48.67578125 -2.73046875 C-46 -2 -46 -2 -43.5703125 -0.43359375 C-40.34164973 1.36719536 -38.23103907 1.2719144 -34.5625 1.125 C-30.20033768 0.97049602 -26.28962413 1.15889723 -22 2 C-21.67 1.34 -21.34 0.68 -21 0 C-21 0.66 -21 1.32 -21 2 C-20.13375 1.835 -19.2675 1.67 -18.375 1.5 C-3.57247595 -0.53171899 12.13831628 1.39536972 27 2 C27 2.33 27 2.66 27 3 C19.77551104 3.15499493 12.55091434 3.30315139 5.32611465 3.4429636 C1.970092 3.50811507 -1.3858133 3.57614957 -4.74169922 3.64819336 C-8.61416531 3.73093836 -12.48671913 3.80565068 -16.359375 3.87890625 C-17.544245 3.90594131 -18.72911499 3.93297638 -19.94989014 3.96083069 C-31.12664069 4.15781023 -40.93645908 4.19607317 -51 -1 C-52.66194738 -1.67834587 -54.32598903 -2.35199575 -56 -3 C-56 -3.33 -56 -3.66 -56 -4 Z " fill="#DF2D52" transform="translate(107,277)"/>
<path d="M0 0 C0.66 0 1.32 0 2 0 C1.1875 1.9375 1.1875 1.9375 0 4 C-0.99 4.33 -1.98 4.66 -3 5 C-3.33 5.99 -3.66 6.98 -4 8 C-9.88414207 14.04942696 -19.470777 18.74629746 -27.89453125 19.1328125 C-28.58933594 19.08898437 -29.28414062 19.04515625 -30 19 C-29.2575 18.319375 -29.2575 18.319375 -28.5 17.625 C-26.77390663 16.12364481 -26.77390663 16.12364481 -27 14 C-26.30132812 13.93941406 -25.60265625 13.87882812 -24.8828125 13.81640625 C-23.51769531 13.69072266 -23.51769531 13.69072266 -22.125 13.5625 C-21.22007812 13.48128906 -20.31515625 13.40007812 -19.3828125 13.31640625 C-16.98889139 13.13010715 -16.98889139 13.13010715 -15 12 C-14.26924352 9.6859378 -13.59861742 7.35171131 -13 5 C-12.2575 5.20625 -11.515 5.4125 -10.75 5.625 C-7.67669159 6.04408751 -6.57213134 5.61949011 -4 4 C-4 3.34 -4 2.68 -4 2 C-2.68 2 -1.36 2 0 2 C0 1.34 0 0.68 0 0 Z " fill="#A42D45" transform="translate(260,262)"/>
<path d="M0 0 C2.79363893 1.12820034 5.39758812 2.48586945 8 4 C7.67 4.99 7.34 5.98 7 7 C6.071875 6.2575 6.071875 6.2575 5.125 5.5 C0.72403407 3.38753635 -3.19998149 3.15900502 -8 4 C-10.93714781 6.02041215 -10.93714781 6.02041215 -13 9 C-16.3844609 13.20770815 -19.81962128 16.63433901 -23.94140625 20.125 C-26.72640869 22.66162461 -29.08421212 25.47891183 -31.45703125 28.3984375 C-33 30 -33 30 -36 31 C-33.3486205 25.16436571 -28.8530019 20.35998079 -23.875 16.375 C-20.89610253 14.06294649 -20.89610253 14.06294649 -18.5 11 C-15.85927219 7.83112663 -13.20461037 5.57762138 -10 3 C-9.525625 2.401875 -9.05125 1.80375 -8.5625 1.1875 C-5.77533068 -0.93074868 -3.37206343 -0.3869581 0 0 Z " fill="#F7E8EC" transform="translate(102,137)"/>
<path d="M0 0 C2 3.75 2 3.75 2 6 C1.67 6.33 1.34 6.66 1 7 C1 7.99 1 8.98 1 10 C-1.56969002 12.77526522 -2.9124411 12.99562206 -6.75 13.1875 C-7.8225 13.125625 -8.895 13.06375 -10 13 C-10.33 14.65 -10.66 16.3 -11 18 C-12.98 18.66 -14.96 19.32 -17 20 C-16.34 18.35 -15.68 16.7 -15 15 C-16.0828125 15.7734375 -16.0828125 15.7734375 -17.1875 16.5625 C-20 18 -20 18 -22.75 17.8125 C-25 17 -25 17 -26 15 C-25.01 14.67 -24.02 14.34 -23 14 C-22.67 13.34 -22.34 12.68 -22 12 C-19.57644958 11.71013022 -17.24499131 11.53203284 -14.8125 11.4375 C-10.12545044 11.21211685 -5.61420455 10.86830288 -1 10 C-1.020625 8.72125 -1.04125 7.4425 -1.0625 6.125 C-1.125 2.25 -1.125 2.25 0 0 Z " fill="#D73156" transform="translate(90,37)"/>
<path d="M0 0 C0.66 0 1.32 0 2 0 C2 2.31 2 4.62 2 7 C3.14597656 7.10957031 4.29195312 7.21914063 5.47265625 7.33203125 C7.00266527 7.49160274 8.53260995 7.65179195 10.0625 7.8125 C10.81466797 7.88275391 11.56683594 7.95300781 12.34179688 8.02539062 C17.44142256 8.57729817 21.36743183 9.80069996 26 12 C27.32276056 12.37308631 28.65232077 12.73046415 30 13 C30 13.66 30 14.32 30 15 C30.70125 15.268125 31.4025 15.53625 32.125 15.8125 C37.81848932 18.16415863 41.7803611 20.43822822 46 25 C46.598125 25.598125 47.19625 26.19625 47.8125 26.8125 C48.204375 27.204375 48.59625 27.59625 49 28 C48.67 28.66 48.34 29.32 48 30 C47.3709375 29.39671875 46.741875 28.7934375 46.09375 28.171875 C40.99475621 23.41076634 36.43214148 19.67900588 30 17 C28.93845703 16.49726562 28.93845703 16.49726562 27.85546875 15.984375 C18.73191179 11.70221517 10.06697019 9.55502307 0 9 C0 6.03 0 3.06 0 0 Z " fill="#F0E5E8" transform="translate(215,39)"/>
<path d="M0 0 C0.99 0.33 1.98 0.66 3 1 C1.71186658 1.83878455 0.41936744 2.67086783 -0.875 3.5 C-1.59429687 3.9640625 -2.31359375 4.428125 -3.0546875 4.90625 C-5 6 -5 6 -7 6 C-7.226875 6.70125 -7.45375 7.4025 -7.6875 8.125 C-9.27874832 11.61059155 -11.55352872 14.06423446 -14 17 C-14.33 17.928125 -14.66 18.85625 -15 19.8125 C-15.33 20.534375 -15.66 21.25625 -16 22 C-18.625 22.8125 -18.625 22.8125 -21 23 C-21.66 24.98 -22.32 26.96 -23 29 C-23.66 29 -24.32 29 -25 29 C-25.33 29.66 -25.66 30.32 -26 31 C-24.54983437 23.50747758 -19.16663519 16.45367047 -14 11 C-13.34 11 -12.68 11 -12 11 C-11.67 10.01 -11.34 9.02 -11 8 C-8.8125 6.0625 -8.8125 6.0625 -6 4 C-4.96875 3.236875 -3.9375 2.47375 -2.875 1.6875 C-1.451875 0.8521875 -1.451875 0.8521875 0 0 Z " fill="#F4A4B5" transform="translate(53,54)"/>
<path d="M0 0 C1.485 0.99 1.485 0.99 3 2 C3 7.28 3 12.56 3 18 C21.15 18.33 39.3 18.66 58 19 C58 19.33 58 19.66 58 20 C50.71578452 20.02312916 43.4315769 20.04091801 36.14733219 20.05181217 C32.76528187 20.05703975 29.3832566 20.06413511 26.0012207 20.07543945 C22.11670223 20.08834267 18.23219403 20.09322924 14.34765625 20.09765625 C13.12788589 20.10281754 11.90811554 20.10797882 10.65138245 20.11329651 C8.96975258 20.11340981 8.96975258 20.11340981 7.25415039 20.11352539 C6.26153702 20.115746 5.26892365 20.11796661 4.24623108 20.12025452 C2 20 2 20 1 19 C0.84379445 17.58672053 0.74943827 16.1664541 0.68359375 14.74609375 C0.64169922 13.89208984 0.59980469 13.03808594 0.55664062 12.15820312 C0.51732422 11.26037109 0.47800781 10.36253906 0.4375 9.4375 C0.39431641 8.53580078 0.35113281 7.63410156 0.30664062 6.70507812 C0.20021858 4.47021515 0.09820012 2.23523692 0 0 Z " fill="#F5E3E8" transform="translate(110,144)"/>
<path d="M0 0 C0.33 0 0.66 0 1 0 C1 2.64 1 5.28 1 8 C-3.70461323 9.86132673 -7.8757696 10.2509496 -12.875 10.125 C-13.56335938 10.11597656 -14.25171875 10.10695313 -14.9609375 10.09765625 C-16.64077838 10.07432513 -18.32043746 10.03846326 -20 10 C-20.33 10.99 -20.66 11.98 -21 13 C-21.969375 13.12375 -22.93875 13.2475 -23.9375 13.375 C-24.948125 13.58125 -25.95875 13.7875 -27 14 C-27.33 14.66 -27.66 15.32 -28 16 C-29.32 15.34 -30.64 14.68 -32 14 C-29.77524902 11.77524902 -28.40264256 11.34655655 -25.4375 10.4375 C-22.4574868 9.66788364 -22.4574868 9.66788364 -20 8 C-13.37811792 6.9164193 -6.69129449 6.87186883 0 7 C0 4.69 0 2.38 0 0 Z " fill="#E8BEC8" transform="translate(88,39)"/>
<path d="M0 0 C3.4375 1.3125 3.4375 1.3125 7 3 C7.33 3.99 7.66 4.98 8 6 C8.99 6.33 9.98 6.66 11 7 C11.80967438 9.91482778 12.21845993 11.46113217 11.0625 14.3125 C10.711875 14.869375 10.36125 15.42625 10 16 C7.10532822 14.95693064 6.12170007 14.20961279 4.55078125 11.50390625 C4.14214844 10.53324219 3.73351562 9.56257812 3.3125 8.5625 C2.89613281 7.59441406 2.47976562 6.62632812 2.05078125 5.62890625 C1.30960766 3.77459462 0.63149109 1.89447326 0 0 Z " fill="#EC213F" transform="translate(26,240)"/>
<path d="M0 0 C0.33 0 0.66 0 1 0 C1.09765625 6.15234375 1.09765625 6.15234375 1 8 C0 9 0 9 -2.51197815 9.12025452 C-3.62894577 9.11803391 -4.74591339 9.11581329 -5.89672852 9.11352539 C-7.15796036 9.11344986 -8.4191922 9.11337433 -9.71864319 9.11329651 C-11.10539794 9.1081891 -12.49215229 9.10297309 -13.87890625 9.09765625 C-15.28995209 9.09579201 -16.70099857 9.09436814 -18.11204529 9.09336853 C-21.83240535 9.08954379 -25.5527266 9.0797139 -29.27307129 9.06866455 C-33.06680781 9.05844948 -36.86055058 9.05387071 -40.65429688 9.04882812 C-48.10288231 9.03809158 -55.55143572 9.0210157 -63 9 C-63 8.67 -63 8.34 -63 8 C-32.31 7.505 -32.31 7.505 -1 7 C-1 5.02 -1 3.04 -1 1 C-0.67 0.67 -0.34 0.34 0 0 Z " fill="#E1CED2" transform="translate(183,39)"/>
<path d="M0 0 C5.40244208 1.80081403 8.09567967 7.30551671 11 12 C12.76531365 16.17882841 13.30269218 19.60944487 12 24 C12 23.34 12 22.68 12 22 C11.01 22 10.02 22 9 22 C9 21.34 9 20.68 9 20 C8.34 20 7.68 20 7 20 C6.96261719 19.33613281 6.92523438 18.67226562 6.88671875 17.98828125 C6.39660619 11.00716451 6.39660619 11.00716451 3 5 C2.01 4.34 1.02 3.68 0 3 C0 2.01 0 1.02 0 0 Z " fill="#B93D60" transform="translate(264,69)"/>
<path d="M0 0 C2.60376018 1.74091567 4.93754832 3.63664352 7 6 C7 6.66 7 7.32 7 8 C7.66 8 8.32 8 9 8 C9.33 9.65 9.66 11.3 10 13 C8.62437146 11.71034824 7.29233607 10.37310707 6 9 C6 8.34 6 7.68 6 7 C5.401875 6.71125 4.80375 6.4225 4.1875 6.125 C2 5 2 5 -1 3 C-1 2.34 -1 1.68 -1 1 C-4.3 1.33 -7.6 1.66 -11 2 C-11 2.66 -11 3.32 -11 4 C-11.8971875 4.2784375 -11.8971875 4.2784375 -12.8125 4.5625 C-16.03544783 6.68043714 -16.63811265 9.47147369 -18 13 C-18.66 13.99 -19.32 14.98 -20 16 C-20.06234033 11.99240706 -20.08486324 8.39482417 -17.55078125 5.13671875 C-11.98565045 0.27175625 -7.43689786 -2.05155803 0 0 Z " fill="#FAE4E9" transform="translate(45,216)"/>
<path d="M0 0 C4.58218812 2.29109406 7.73186092 5.6053462 11.23046875 9.2578125 C14.47053424 12.44781075 17.3617347 12.38129279 21.734375 12.3671875 C25.28011109 11.79253372 26.87153111 9.74641147 29 7 C28.40138258 9.35171131 27.73075648 11.6859378 27 14 C24.39080172 15.30459914 22.41057385 15.1326594 19.5 15.125 C18.5203125 15.12757813 17.540625 15.13015625 16.53125 15.1328125 C14 15 14 15 12 14 C12 13.34 12 12.68 12 12 C10.68 11.34 9.36 10.68 8 10 C8 9.34 8 8.68 8 8 C6.68 7.34 5.36 6.68 4 6 C4 5.34 4 4.68 4 4 C2.68 3.34 1.36 2.68 0 2 C0 1.34 0 0.68 0 0 Z " fill="#F3DCE1" transform="translate(81,208)"/>
<path d="M0 0 C0 0.66 0 1.32 0 2 C-1.98 2 -3.96 2 -6 2 C-6.66 3.98 -7.32 5.96 -8 8 C-8.804375 8.12375 -9.60875 8.2475 -10.4375 8.375 C-11.283125 8.58125 -12.12875 8.7875 -13 9 C-13.33 9.66 -13.66 10.32 -14 11 C-14.66 11 -15.32 11 -16 11 C-16.33 12.32 -16.66 13.64 -17 15 C-18 12 -18 12 -16.875 8.4375 C-15 5 -15 5 -12.3125 3.5625 C-11.549375 3.376875 -10.78625 3.19125 -10 3 C-10 2.34 -10 1.68 -10 1 C-6.61981469 -0.04005702 -3.5219721 -0.08004482 0 0 Z " fill="#F1547B" transform="translate(44,217)"/>
<path d="M0 0 C2.83392926 -0.08174796 5.66544819 -0.14084985 8.5 -0.1875 C9.29148438 -0.21263672 10.08296875 -0.23777344 10.8984375 -0.26367188 C16.62130318 -0.33403498 20.75203857 0.70702602 26 3 C26 3.33 26 3.66 26 4 C21.00885593 4.21238911 16.91830328 3.62480485 12.11328125 2.2421875 C9.44619613 1.93653264 8.26919579 2.63564011 6 4 C4.66666667 4.66666667 3.33333333 5.33333333 2 6 C1.34 4.02 0.68 2.04 0 0 Z " fill="#BD244A" transform="translate(216,50)"/>
<path d="M0 0 C7.11271851 -0.4822182 7.11271851 -0.4822182 10.875 1.5625 C13.48167453 4.55250902 14.18652179 7.15446665 15 11 C14.01 11.33 13.02 11.66 12 12 C12 11.01 12 10.02 12 9 C11.01 8.67 10.02 8.34 9 8 C8.67 6.35 8.34 4.7 8 3 C6.8553125 3.2784375 6.8553125 3.2784375 5.6875 3.5625 C3 4 3 4 0 3 C-0.33 3.66 -0.66 4.32 -1 5 C-1 2 -1 2 0 0 Z " fill="#F52A5E" transform="translate(38,219)"/>
<path d="M0 0 C0.66 0 1.32 0 2 0 C1.7178711 2.27203802 1.42397144 4.54261684 1.125 6.8125 C0.96257813 8.07707031 0.80015625 9.34164062 0.6328125 10.64453125 C0 14 0 14 -2 17 C-2.23993655 19.53586848 -2.37253219 21.97216031 -2.4140625 24.51171875 C-2.43342865 25.23994339 -2.4527948 25.96816803 -2.4727478 26.71846008 C-2.53246376 29.04135475 -2.57889617 31.36429919 -2.625 33.6875 C-2.66318721 35.26369332 -2.70223938 36.83986595 -2.7421875 38.41601562 C-2.83815848 42.27717535 -2.92221849 46.13843276 -3 50 C-3.33 50 -3.66 50 -4 50 C-4.10071218 45.45090828 -4.17231139 40.90249899 -4.21972656 36.35253906 C-4.23954171 34.81271023 -4.2666021 33.27295342 -4.30175781 31.73339844 C-4.55075813 20.52838414 -3.2434252 10.7358471 0 0 Z " fill="#EE6284" transform="translate(28,83)"/>
<path d="M0 0 C0.99 0.495 0.99 0.495 2 1 C2 1.66 2 2.32 2 3 C2.61875 3.20625 3.2375 3.4125 3.875 3.625 C6.84653645 5.54775888 7.13024659 7.66594527 8 11 C8.66 11 9.32 11 10 11 C11.625 13 11.625 13 13 15 C12.67 15.66 12.34 16.32 12 17 C7.125 13.125 7.125 13.125 6 12 C5.67 12.66 5.34 13.32 5 14 C4.01 13.67 3.02 13.34 2 13 C1.34 8.71 0.68 4.42 0 0 Z " fill="#EE7F97" transform="translate(52,226)"/>
<path d="M0 0 C1.65 0 3.3 0 5 0 C4.01 0.495 4.01 0.495 3 1 C3 2.32 3 3.64 3 5 C4.32 5.33 5.64 5.66 7 6 C6.34 6.66 5.68 7.32 5 8 C4.01 8 3.02 8 2 8 C2.33 8.99 2.66 9.98 3 11 C2.91538508 12.73324119 2.76395645 14.46392812 2.5625 16.1875 C2.46066406 17.08855469 2.35882813 17.98960937 2.25390625 18.91796875 C2.17011719 19.60503906 2.08632812 20.29210937 2 21 C2.66 21 3.32 21 4 21 C4.33 22.65 4.66 24.3 5 26 C3.02 26.99 3.02 26.99 1 28 C0.67 18.76 0.34 9.52 0 0 Z " fill="#BB1F3F" transform="translate(247,123)"/>
<path d="M0 0 C0.33 0 0.66 0 1 0 C0.88590407 1.45922693 0.75834456 2.91740598 0.625 4.375 C0.55539063 5.18710938 0.48578125 5.99921875 0.4140625 6.8359375 C0 9 0 9 -2 11 C-1.67 11.99 -1.34 12.98 -1 14 C-2.75 16.0625 -2.75 16.0625 -5 18 C-7.25 17.75 -7.25 17.75 -9 17 C-8.44889998 13.14229986 -6.73689031 11.65639353 -4 9 C-2.00764386 6.04836127 -0.65006646 3.5103589 0 0 Z " fill="#B02445" transform="translate(244,232)"/>
<path d="M0 0 C-1.46818668 3.10742423 -3.20025 5.90471739 -5.125 8.75 C-5.93324219 9.94882813 -5.93324219 9.94882813 -6.7578125 11.171875 C-7.16773438 11.77515625 -7.57765625 12.3784375 -8 13 C-6.67645209 15.96834532 -5.25785334 17.92632856 -2.875 20.125 C-1.2421875 21.6328125 -1.2421875 21.6328125 0 23 C0 23.66 0 24.32 0 25 C-3.43707058 23.85430981 -4.59565793 22.27598082 -6.7890625 19.484375 C-8.02012986 17.8886738 -8.02012986 17.8886738 -9.875 16.375 C-11 15 -11 15 -10.9375 13.25 C-5.41666667 0 -5.41666667 0 0 0 Z " fill="#F8EDF0" transform="translate(66,168)"/>
<path d="M0 0 C-0.375 1.9375 -0.375 1.9375 -1 4 C-1.99 4.495 -1.99 4.495 -3 5 C-3.66 4.67 -4.32 4.34 -5 4 C-5 4.66 -5 5.32 -5 6 C-8.44450737 8.29633824 -10.93812283 8.54016485 -15 9 C-13.74990946 5.24972838 -12.52798171 4.79331273 -9.1875 2.8125 C-8.31480469 2.28269531 -7.44210938 1.75289062 -6.54296875 1.20703125 C-4 0 -4 0 0 0 Z " fill="#E8325D" transform="translate(60,54)"/>
<path d="M0 0 C0 3 0 3 -1.1875 4.5625 C-3.36715599 6.29119268 -5.38315701 7.04842073 -8 8 C-9.051875 8.515625 -10.10375 9.03125 -11.1875 9.5625 C-15.61952352 11.50396163 -20.21799979 11.72096981 -25 12 C-24.67 11.34 -24.34 10.68 -24 10 C-21.89584208 9.5588056 -19.79110756 9.12018728 -17.68359375 8.6953125 C-11.27876305 7.03583671 -5.16766304 4.13172127 0 0 Z " fill="#E5C1C9" transform="translate(253,271)"/>
<path d="M0 0 C0.66 0.66 1.32 1.32 2 2 C1.67 2.33 1.34 2.66 1 3 C0.76518307 5.18292774 0.58636677 7.37203174 0.4375 9.5625 C0.35371094 10.76003906 0.26992187 11.95757812 0.18359375 13.19140625 C0.12300781 14.11824219 0.06242188 15.04507813 0 16 C0.66 16.33 1.32 16.66 2 17 C1.34 17 0.68 17 0 17 C0.66 18.32 1.32 19.64 2 21 C2.66 21 3.32 21 4 21 C4.33 21.99 4.66 22.98 5 24 C3.02 24.66 1.04 25.32 -1 26 C-1.02886751 21.85418113 -1.04675327 17.70838784 -1.0625 13.5625 C-1.07087891 12.37849609 -1.07925781 11.19449219 -1.08789062 9.97460938 C-1.09111328 8.84990234 -1.09433594 7.72519531 -1.09765625 6.56640625 C-1.10289307 5.52427979 -1.10812988 4.48215332 -1.11352539 3.40844727 C-1 1 -1 1 0 0 Z " fill="#B01C38" transform="translate(248,206)"/>
<path d="M0 0 C0.33 0 0.66 0 1 0 C1.37169804 7.18616203 0.41573018 11.21261903 -4.4375 16.8125 C-8.26574549 20.08051445 -11.32067195 20.12735958 -16.25 20.0625 C-17.14203125 20.05347656 -18.0340625 20.04445312 -18.953125 20.03515625 C-19.62859375 20.02355469 -20.3040625 20.01195312 -21 20 C-21 19.67 -21 19.34 -21 19 C-20.43152344 18.97421875 -19.86304688 18.9484375 -19.27734375 18.921875 C-13.45736927 18.49436435 -9.71314826 17.51175753 -5 14 C-1.49418899 9.70564791 -0.44385653 5.43724246 0 0 Z " fill="#F2D2DA" transform="translate(184,177)"/>
<path d="M0 0 C0.33 0.66 0.66 1.32 1 2 C1.66 2.33 2.32 2.66 3 3 C4.125 5.0625 4.125 5.0625 5 7 C2.60490662 9.89932357 0.68754757 10.50168276 -3 11 C-2.69078116 9.54096742 -2.37751201 8.08279278 -2.0625 6.625 C-1.88847656 5.81289062 -1.71445312 5.00078125 -1.53515625 4.1640625 C-1 2 -1 2 0 0 Z " fill="#F21D44" transform="translate(32,77)"/>
<path d="M0 0 C-6.37295696 3.17476348 -11.84937514 5.59524765 -19 6 C-18.505 5.54625 -18.01 5.0925 -17.5 4.625 C-15.77390663 3.12364481 -15.77390663 3.12364481 -16 1 C-14.95199219 0.90912109 -14.95199219 0.90912109 -13.8828125 0.81640625 C-12.97273437 0.73261719 -12.06265625 0.64882813 -11.125 0.5625 C-10.22007812 0.48128906 -9.31515625 0.40007812 -8.3828125 0.31640625 C-1.84090909 -0.55227273 -1.84090909 -0.55227273 0 0 Z " fill="#B02443" transform="translate(249,275)"/>
<path d="M0 0 C4.39381209 0.50214995 6.83419795 1.92213689 10 5 C10.8125 7.25 10.8125 7.25 11 9 C11.66 9 12.32 9 13 9 C14.32229189 11.64458379 14.09677194 13.67761301 14.0625 16.625 C14.05347656 17.62789062 14.04445312 18.63078125 14.03515625 19.6640625 C14.02355469 20.43492187 14.01195312 21.20578125 14 22 C13.34 22 12.68 22 12 22 C12.33 18.7 12.66 15.4 13 12 C12.01 11.67 11.02 11.34 10 11 C10 10.01 10 9.02 10 8 C9.01 7.67 8.02 7.34 7 7 C5.29220027 5.37550757 3.62449243 3.70779973 2 2 C1.34 1.34 0.68 0.68 0 0 Z " fill="#F8ECEE" transform="translate(172,165)"/>
<path d="M0 0 C3.3 0 6.6 0 10 0 C10 0.66 10 1.32 10 2 C9.27554688 2.09796875 8.55109375 2.1959375 7.8046875 2.296875 C1.79128815 3.22694743 -2.18404536 4.29541951 -7 8 C-7.66 8 -8.32 8 -9 8 C-9.33 9.65 -9.66 11.3 -10 13 C-10.8125 11.3125 -10.8125 11.3125 -11 9 C-7.82576264 4.96006154 -4.94229987 3.26430927 0 2 C0 1.34 0 0.68 0 0 Z " fill="#F1DBE1" transform="translate(195,26)"/>
<path d="M0 0 C0.33 0 0.66 0 1 0 C1.4382634 8.32700469 -0.75112506 14.36171698 -6 21 C-8.75 22.375 -8.75 22.375 -11 23 C-10.360625 22.401875 -9.72125 21.80375 -9.0625 21.1875 C-6.79689611 19.09189663 -6.79689611 19.09189663 -6 16 C-5.34 16 -4.68 16 -4 16 C-3.34 13.03 -2.68 10.06 -2 7 C-1.34 7 -0.68 7 0 7 C0 4.69 0 2.38 0 0 Z " fill="#F2DEE3" transform="translate(244,224)"/>
<path d="M0 0 C1.485 0.99 1.485 0.99 3 2 C3.17891839 5.45908894 3.06386228 8.78235916 2.8828125 12.234375 C2.81970621 14.1556108 2.90070488 16.08029433 3 18 C3.99 18.66 4.98 19.32 6 20 C4.35 19.67 2.7 19.34 1 19 C0.67 12.73 0.34 6.46 0 0 Z " fill="#FAEEF2" transform="translate(110,144)"/>
<path d="M0 0 C0.33 0 0.66 0 1 0 C1 10.23 1 20.46 1 31 C1.66 31 2.32 31 3 31 C2.505 33.475 2.505 33.475 2 36 C0 34 0 34 -0.22705078 30.65185547 C-0.22673375 29.22359367 -0.21541361 27.79530788 -0.1953125 26.3671875 C-0.1924826 25.61535187 -0.18965271 24.86351624 -0.18673706 24.08889771 C-0.17552874 21.68410422 -0.15042352 19.27968119 -0.125 16.875 C-0.11497102 15.24609912 -0.10584503 13.61719242 -0.09765625 11.98828125 C-0.07558735 7.99204444 -0.04105351 3.99608506 0 0 Z " fill="#F13866" transform="translate(25,100)"/>
<path d="M0 0 C5.16282469 0.14362177 8.09108182 1.42892089 12.25 4.4375 C12.58 5.0975 12.91 5.7575 13.25 6.4375 C10.9068787 6.18188677 8.57156597 5.84479228 6.25 5.4375 C5.92 4.7775 5.59 4.1175 5.25 3.4375 C0.96 3.4375 -3.33 3.4375 -7.75 3.4375 C-4.5231876 0.2106876 -4.23643489 0.00657832 0 0 Z " fill="#ED4874" transform="translate(102.75,27.5625)"/>
<path d="M0 0 C0.556875 0.70125 1.11375 1.4025 1.6875 2.125 C2.8321875 3.548125 2.8321875 3.548125 4 5 C4.639375 6.051875 5.27875 7.10375 5.9375 8.1875 C9.27278391 12.31942815 14.36775803 12.21144431 19.33203125 12.7734375 C20.21246094 12.84820312 21.09289062 12.92296875 22 13 C22 13.33 22 13.66 22 14 C11.8794173 15.06266118 11.8794173 15.06266118 7.4921875 12.58203125 C4.20052911 9.73371431 1.647825 7.07877475 0 3 C0 2.01 0 1.02 0 0 Z " fill="#F4DAE0" transform="translate(23,131)"/>
<path d="M0 0 C0.33 1.32 0.66 2.64 1 4 C-0.98 4.66 -2.96 5.32 -5 6 C-4.34 4.35 -3.68 2.7 -3 1 C-4.0828125 1.7734375 -4.0828125 1.7734375 -5.1875 2.5625 C-8.4195366 4.21442982 -9.61608307 4.06351675 -13 3 C-8.38322418 -0.07785055 -5.48548106 -1.5672803 0 0 Z " fill="#F22452" transform="translate(78,51)"/>
<path d="M0 0 C9.07661358 2.52925398 9.07661358 2.52925398 13.1875 4.625 C16.46509541 6.22737998 19.3893724 6.63893724 23 7 C23 7.33 23 7.66 23 8 C12.44191344 8.3690205 12.44191344 8.3690205 8 6 C8 5.34 8 4.68 8 4 C7.05125 3.896875 6.1025 3.79375 5.125 3.6875 C2 3 2 3 0 0 Z " fill="#F5D0D7" transform="translate(49,273)"/>
<path d="M0 0 C3.83678069 1.2789269 4.75561265 2.94817154 7.125 6.1875 C7.82882812 7.12980469 8.53265625 8.07210937 9.2578125 9.04296875 C11.08026491 12.13623439 11.65330157 14.45422058 12 18 C10 16 10 16 9 13 C8.175 12.175 7.35 11.35 6.5 10.5 C4 8 4 8 3 5 C2.01 4.34 1.02 3.68 0 3 C0 2.01 0 1.02 0 0 Z " fill="#E1BBC5" transform="translate(264,69)"/>
<path d="M0 0 C7.23647555 0.87714855 12.20383184 4.80415116 17 10 C17.598125 10.598125 18.19625 11.19625 18.8125 11.8125 C19.204375 12.204375 19.59625 12.59625 20 13 C19.67 13.66 19.34 14.32 19 15 C18.3709375 14.39671875 17.741875 13.7934375 17.09375 13.171875 C11.94943848 8.36845159 7.39026362 4.90466528 1 2 C0.67 1.34 0.34 0.68 0 0 Z " fill="#E7CDD4" transform="translate(244,54)"/>
<path d="M0 0 C0.33 0.66 0.66 1.32 1 2 C0.34 2.66 -0.32 3.32 -1 4 C-1.99 3.67 -2.98 3.34 -4 3 C-4 2.34 -4 1.68 -4 1 C-4.66 1 -5.32 1 -6 1 C-6.66 2.65 -7.32 4.3 -8 6 C-8.33 5.01 -8.66 4.02 -9 3 C-10.32 3.33 -11.64 3.66 -13 4 C-13 3.34 -13 2.68 -13 2 C-12.34 2 -11.68 2 -11 2 C-11 1.34 -11 0.68 -11 0 C-7.17907588 -1.37553268 -3.91765889 -0.81309902 0 0 Z " fill="#CE1D4C" transform="translate(204,31)"/>
<path d="M0 0 C0.99 0.33 1.98 0.66 3 1 C2.67 1.66 2.34 2.32 2 3 C1.34 3 0.68 3 0 3 C0 3.99 0 4.98 0 6 C-7.26 6 -14.52 6 -22 6 C-22 5.67 -22 5.34 -22 5 C-12.1 4.505 -12.1 4.505 -2 4 C-1.34 2.68 -0.68 1.36 0 0 Z " fill="#C22B48" transform="translate(225,275)"/>
<path d="M0 0 C0.33 0.99 0.66 1.98 1 3 C-0.61083037 5.14777382 -2.18026704 7.05256648 -4 9 C-4.53625 9.61875 -5.0725 10.2375 -5.625 10.875 C-7 12 -7 12 -10 12 C-8.55922954 8.63820226 -6.75249979 6.40843732 -4 4 C-3.34 4 -2.68 4 -2 4 C-1.34 2.68 -0.68 1.36 0 0 Z " fill="#E195A9" transform="translate(94,140)"/>
<path d="M0 0 C0.66 0.33 1.32 0.66 2 1 C2 4.63 2 8.26 2 12 C1.67 12 1.34 12 1 12 C1 10.35 1 8.7 1 7 C0.01 7.33 -0.98 7.66 -2 8 C-3 7 -3 7 -3.25 4.5625 C-3.1675 3.716875 -3.085 2.87125 -3 2 C-2.01 1.34 -1.02 0.68 0 0 Z " fill="#E42856" transform="translate(117,37)"/>
<path d="M0 0 C6.875 2.75 6.875 2.75 8 5 C7.34 5 6.68 5 6 5 C6.33 7.97 6.66 10.94 7 14 C4.2065758 12.6032879 4.03557041 11.00586915 2.9375 8.125 C2.59589844 7.24070313 2.25429688 6.35640625 1.90234375 5.4453125 C1.2367278 3.64152209 0.6080053 1.8240159 0 0 Z " fill="#F24260" transform="translate(26,240)"/>
<path d="M0 0 C4.3694206 0.25702474 6.51822991 0.60023333 9.9375 3.4375 C12 6 12 6 12 8 C12.66 8 13.32 8 14 8 C14.33 9.65 14.66 11.3 15 13 C13.62437146 11.71034824 12.29233607 10.37310707 11 9 C11 8.34 11 7.68 11 7 C10.401875 6.71125 9.80375 6.4225 9.1875 6.125 C7 5 7 5 4 3 C4 2.34 4 1.68 4 1 C2.68 0.67 1.36 0.34 0 0 Z " fill="#F6D0DB" transform="translate(40,216)"/>
<path d="M0 0 C2.625 0.375 2.625 0.375 5 1 C5 3 5 5 5 7 C2.0625 6.1875 2.0625 6.1875 -1 5 C-1.33 4.01 -1.66 3.02 -2 2 C-1.34 1.34 -0.68 0.68 0 0 Z " fill="#B01636" transform="translate(247,60)"/>
<path d="M0 0 C1.65 0 3.3 0 5 0 C4.8125 1.8125 4.8125 1.8125 4 4 C1.625 5.5625 1.625 5.5625 -1 7 C-2.75149165 8.58245275 -2.75149165 8.58245275 -4 10 C-3.42415568 7.61435923 -2.77772405 5.33317216 -2 3 C-1.34 3 -0.68 3 0 3 C0 2.01 0 1.02 0 0 Z " fill="#F12047" transform="translate(30,225)"/>
<path d="M0 0 C1.8871875 0.0309375 1.8871875 0.0309375 3.8125 0.0625 C3.8125 0.3925 3.8125 0.7225 3.8125 1.0625 C2.2346875 1.2790625 2.2346875 1.2790625 0.625 1.5 C-2.34210549 1.93776966 -5.25544366 2.44054866 -8.1875 3.0625 C-8.1875 3.7225 -8.1875 4.3825 -8.1875 5.0625 C-12.57211538 8.0625 -12.57211538 8.0625 -15.1875 8.0625 C-15.1875 7.4025 -15.1875 6.7425 -15.1875 6.0625 C-13.54296875 4.80859375 -13.54296875 4.80859375 -11.375 3.5 C-10.66730469 3.06558594 -9.95960938 2.63117187 -9.23046875 2.18359375 C-6.0629979 0.44542141 -3.5512493 -0.0582172 0 0 Z " fill="#D55174" transform="translate(201.1875,27.9375)"/>
<path d="M0 0 C5.66779363 0.93546108 10.11070683 1.87628492 15 5 C18.19395026 5.71401232 18.19395026 5.71401232 21 6 C21 6.33 21 6.66 21 7 C14.68730804 7.53725038 10.61259583 5.74859833 5 3 C3.33805262 2.32165413 1.67401097 1.64800425 0 1 C0 0.67 0 0.34 0 0 Z " fill="#E84D6D" transform="translate(51,273)"/>
<path d="M0 0 C1.32 0 2.64 0 4 0 C4 1.98 4 3.96 4 6 C2.35 6.33 0.7 6.66 -1 7 C-0.67 4.69 -0.34 2.38 0 0 Z " fill="#A11834" transform="translate(247,267)"/>
<path d="M0 0 C0.99 0.495 0.99 0.495 2 1 C2 1.99 2 2.98 2 4 C2.598125 4.2475 3.19625 4.495 3.8125 4.75 C6.28647521 6.16370012 7.43370255 7.65055383 9 10 C8.01 10.495 8.01 10.495 7 11 C7 10.34 7 9.68 7 9 C5.68 9.33 4.36 9.66 3 10 C0 3.375 0 3.375 0 0 Z " fill="#DD4265" transform="translate(57,235)"/>
<path d="M0 0 C-0.33 0.66 -0.66 1.32 -1 2 C-2.66666667 2.33333333 -4.33333333 2.66666667 -6 3 C-6.33 3.66 -6.66 4.32 -7 5 C-7.66 5 -8.32 5 -9 5 C-9.33 6.32 -9.66 7.64 -10 9 C-11 6 -11 6 -10.3125 3.4375 C-9 1 -9 1 -7.1875 -0.375 C-4.4719851 -1.1508614 -2.69201151 -0.74778098 0 0 Z " fill="#EE4266" transform="translate(37,223)"/>
<path d="M0 0 C4.49092377 2.37754788 7.52235713 5.3606063 11 9 C10.67 9.99 10.34 10.98 10 12 C9.7525 11.38125 9.505 10.7625 9.25 10.125 C7.79371361 7.64931313 6.62187494 7.04874998 4 6 C4 5.34 4 4.68 4 4 C2.68 3.34 1.36 2.68 0 2 C0 1.34 0 0.68 0 0 Z " fill="#F7E7EB" transform="translate(81,208)"/>
<path d="M0 0 C-0.99 1.485 -0.99 1.485 -2 3 C-4.27734375 3.36328125 -4.27734375 3.36328125 -6.9375 3.3125 C-7.81277344 3.30863281 -8.68804687 3.30476562 -9.58984375 3.30078125 C-12 3 -12 3 -15 1 C-13.43784452 0.83013455 -11.8752548 0.66426036 -10.3125 0.5 C-9.44238281 0.4071875 -8.57226562 0.314375 -7.67578125 0.21875 C-5.10276661 0.00840136 -2.58015636 -0.03719144 0 0 Z " fill="#EB5678" transform="translate(47,141)"/>
<path d="M0 0 C-0.33 0.66 -0.66 1.32 -1 2 C-3 2.33333333 -5 2.66666667 -7 3 C-7.33 3.66 -7.66 4.32 -8 5 C-9.32 4.34 -10.64 3.68 -12 3 C-8.48214012 -0.51785988 -4.80656342 -0.10924008 0 0 Z " fill="#EDA6B8" transform="translate(68,50)"/>
<path d="M0 0 C0.33 0.99 0.66 1.98 1 3 C-1.3125 6.1875 -1.3125 6.1875 -4 9 C-4.66 9 -5.32 9 -6 9 C-6.33 9.66 -6.66 10.32 -7 11 C-7 9.68 -7 8.36 -7 7 C-6.34 7 -5.68 7 -5 7 C-4.731875 6.401875 -4.46375 5.80375 -4.1875 5.1875 C-3.01506533 3.02775192 -1.80630718 1.64209744 0 0 Z " fill="#E099AD" transform="translate(74,160)"/>
<path d="M0 0 C0.66 0 1.32 0 2 0 C2 0.66 2 1.32 2 2 C2.66 2 3.32 2 4 2 C4 3.32 4 4.64 4 6 C1.6875 6.25 1.6875 6.25 -1 6 C-2.8125 4 -2.8125 4 -4 2 C-1.525 2.495 -1.525 2.495 1 3 C0.67 2.01 0.34 1.02 0 0 Z " fill="#E8335A" transform="translate(32,136)"/>
<path d="M0 0 C1.98 0.66 3.96 1.32 6 2 C6.33 3.65 6.66 5.3 7 7 C6.01 7.33 5.02 7.66 4 8 C4 7.01 4 6.02 4 5 C3.01 4.67 2.02 4.34 1 4 C0.3125 1.9375 0.3125 1.9375 0 0 Z " fill="#EF1E50" transform="translate(46,223)"/>
<path d="M0 0 C3 1 3 1 4.75 3.375 C6 6 6 6 5 9 C4.01 8.67 3.02 8.34 2 8 C0.5522078 5.10441559 0 3.25811062 0 0 Z " fill="#B22043" transform="translate(265,73)"/>
<path d="M0 0 C1.32 0.33 2.64 0.66 4 1 C3.67 1.33 3.34 1.66 3 2 C4.32 2.66 5.64 3.32 7 4 C7 4.33 7 4.66 7 5 C4.03 5 1.06 5 -2 5 C-1.34 3.35 -0.68 1.7 0 0 Z " fill="#EC204A" transform="translate(68,274)"/>
<path d="M0 0 C0.33 0 0.66 0 1 0 C1.33292585 4.24480464 1.43885872 6.35542625 -1 9.9375 C-1.66 10.618125 -2.32 11.29875 -3 12 C-3.66 10.68 -4.32 9.36 -5 8 C-4.0409375 7.13375 -4.0409375 7.13375 -3.0625 6.25 C-1.01776132 4.01937599 -0.41794801 2.92563609 0 0 Z " fill="#E697AA" transform="translate(110,206)"/>
<path d="M0 0 C4.46839215 -0.21278058 7.82262526 0.40861915 12 2 C11.34 2.66 10.68 3.32 10 4 C6.49064814 4 3.43515002 3.62457273 0 3 C0 2.01 0 1.02 0 0 Z " fill="#BD1B41" transform="translate(227,52)"/>
<path d="M0 0 C2 1.0625 2 1.0625 4 3 C4.25 6.6875 4.25 6.6875 4 10 C1 8 1 8 0.48828125 6.0546875 C0.32552083 4.03645833 0.16276042 2.01822917 0 0 Z " fill="#B51E4C" transform="translate(210,35)"/>
<path d="M0 0 C0 0.99 0 1.98 0 3 C-2.64 3 -5.28 3 -8 3 C-8.33 2.01 -8.66 1.02 -9 0 C-5.93109813 -1.53445094 -3.29905734 -0.54984289 0 0 Z " fill="#E32046" transform="translate(91,276)"/>
<path d="M0 0 C3.96 1.98 3.96 1.98 8 4 C7.34 4.66 6.68 5.32 6 6 C5.34 5.67 4.68 5.34 4 5 C3.67 5.66 3.34 6.32 3 7 C2.34 6.01 1.68 5.02 1 4 C1.33 3.34 1.66 2.68 2 2 C1.34 2 0.68 2 0 2 C0 1.34 0 0.68 0 0 Z " fill="#E2355E" transform="translate(66,245)"/>
<path d="M0 0 C0.5534764 2.07553648 1 3.84365964 1 6 C-1.31 6.33 -3.62 6.66 -6 7 C-5.34 5.68 -4.68 4.36 -4 3 C-3.34 3 -2.68 3 -2 3 C-1.34 2.01 -0.68 1.02 0 0 Z " fill="#F8234F" transform="translate(53,232)"/>
<path d="M0 0 C-0.33 1.65 -0.66 3.3 -1 5 C-2.98 4.34 -4.96 3.68 -7 3 C-7 2.01 -7 1.02 -7 0 C-3.86650268 -1.04449911 -3.01031744 -0.93423645 0 0 Z " fill="#AF1737" transform="translate(241,249)"/>
<path d="M0 0 C0.33 0 0.66 0 1 0 C0.88590407 1.45922693 0.75834456 2.91740598 0.625 4.375 C0.55539063 5.18710938 0.48578125 5.99921875 0.4140625 6.8359375 C0 9 0 9 -2 11 C-2.99 10.67 -3.98 10.34 -5 10 C-4.360625 9.0925 -3.72125 8.185 -3.0625 7.25 C-1.38571047 4.60778619 -0.46310002 3.0101501 0 0 Z " fill="#C44861" transform="translate(244,232)"/>
<path d="M0 0 C0.33 0.99 0.66 1.98 1 3 C0.67 3.66 0.34 4.32 0 5 C-0.99 5 -1.98 5 -3 5 C-3.66 6.32 -4.32 7.64 -5 9 C-5.99 8.67 -6.98 8.34 -8 8 C-7.50628906 7.59007812 -7.01257812 7.18015625 -6.50390625 6.7578125 C-5.86324219 6.21898437 -5.22257812 5.68015625 -4.5625 5.125 C-3.92441406 4.59132812 -3.28632812 4.05765625 -2.62890625 3.5078125 C-0.89194996 2.0777243 -0.89194996 2.0777243 0 0 Z " fill="#F8CDD7" transform="translate(53,135)"/>
<path d="M0 0 C4.19469571 0.59924224 8.00999834 1.57499941 12 3 C12 3.33 12 3.66 12 4 C7.01137151 4.29344873 4.03770942 4.05887078 0 1 C0 0.67 0 0.34 0 0 Z " fill="#CD5977" transform="translate(230,50)"/>
<path d="M0 0 C0.598125 0.20625 1.19625 0.4125 1.8125 0.625 C-0.55042656 3.15088702 -1.85212511 4.51320837 -5.1875 5.625 C-5.1875 4.305 -5.1875 2.985 -5.1875 1.625 C-2.1875 -0.375 -2.1875 -0.375 0 0 Z " fill="#EC1F49" transform="translate(90.1875,48.375)"/>
<path d="M0 0 C2.97 0 5.94 0 9 0 C0.75510204 4.12244898 0.75510204 4.12244898 -2.3125 3.625 C-2.869375 3.41875 -3.42625 3.2125 -4 3 C-3.01 2.67 -2.02 2.34 -1 2 C-0.67 1.34 -0.34 0.68 0 0 Z " fill="#E94670" transform="translate(68,49)"/>
<path d="M0 0 C2 3.75 2 3.75 2 6 C1.67 6.33 1.34 6.66 1 7 C1 7.99 1 8.98 1 10 C0.01 10.495 0.01 10.495 -1 11 C-1.0270043 9.54176788 -1.04639787 8.08339325 -1.0625 6.625 C-1.07410156 5.81289063 -1.08570312 5.00078125 -1.09765625 4.1640625 C-1 2 -1 2 0 0 Z " fill="#E62954" transform="translate(90,37)"/>
<path d="M0 0 C-2.86931716 2.33796213 -5.55896672 3.67652566 -9 5 C-9.99 5.66 -10.98 6.32 -12 7 C-9.52030127 1.00739475 -6.36870588 -0.43422995 0 0 Z " fill="#EB315D" transform="translate(103,30)"/>
<path d="M0 0 C0.33 0 0.66 0 1 0 C1.33 1.98 1.66 3.96 2 6 C0.68 6 -0.64 6 -2 6 C-3.75 4 -3.75 4 -5 2 C-3.68 2 -2.36 2 -1 2 C-0.67 1.34 -0.34 0.68 0 0 Z " fill="#E23B5C" transform="translate(45,262)"/>
<path d="M0 0 C0.99 0 1.98 0 3 0 C2.67 2.97 2.34 5.94 2 9 C1.34 9 0.68 9 0 9 C0 6.03 0 3.06 0 0 Z " fill="#EBACBB" transform="translate(108,197)"/>
<path d="M0 0 C-3.00617269 3.00617269 -5.82381598 2.59585316 -10 3 C-8.0130571 -0.97388579 -3.91761109 -0.08705802 0 0 Z " fill="#BA3050" transform="translate(240,278)"/>
<path d="M0 0 C0.99 0.33 1.98 0.66 3 1 C2.67 1.66 2.34 2.32 2 3 C1.34 3 0.68 3 0 3 C0 3.99 0 4.98 0 6 C-0.99 6 -1.98 6 -3 6 C-1.125 1.125 -1.125 1.125 0 0 Z " fill="#B71D3B" transform="translate(225,275)"/>
<path d="M0 0 C0.66 0 1.32 0 2 0 C2.33 1.65 2.66 3.3 3 5 C1.02 5.99 1.02 5.99 -1 7 C-0.67 4.69 -0.34 2.38 0 0 Z " fill="#B2193A" transform="translate(249,144)"/>
<path d="M0 0 C0.33 0.66 0.66 1.32 1 2 C1.66 2.33 2.32 2.66 3 3 C2.1875 4.9375 2.1875 4.9375 1 7 C0.01 7.33 -0.98 7.66 -2 8 C-1.125 2.25 -1.125 2.25 0 0 Z " fill="#F32C53" transform="translate(32,77)"/>
<path d="M0 0 C0.66 0 1.32 0 2 0 C0.55746343 3.36591866 -1.33264727 5.51047079 -4 8 C-4 4.06830895 -2.60580385 2.83572772 0 0 Z " fill="#FAF1F4" transform="translate(71,160)"/>
<path d="M0 0 C0.33 0.66 0.66 1.32 1 2 C-0.3125 3.5 -0.3125 3.5 -2 5 C-2.99 5 -3.98 5 -5 5 C-4.1875 3.0625 -4.1875 3.0625 -3 1 C-2.01 0.67 -1.02 0.34 0 0 Z " fill="#E189A1" transform="translate(89,147)"/>
<path d="M0 0 C0.66 0.66 1.32 1.32 2 2 C1.34 2 0.68 2 0 2 C0 1.34 0 0.68 0 0 Z " fill="#FFFFFF" transform="translate(225,288)"/>
<path d="M0 0 C0.33 0.66 0.66 1.32 1 2 C0.34 1.67 -0.32 1.34 -1 1 C-0.67 0.67 -0.34 0.34 0 0 Z " fill="#FFFFFF" transform="translate(14,220)"/>
<path d="M0 0 C0.99 0.495 0.99 0.495 2 1 C1.01 1.495 1.01 1.495 0 2 C0 1.34 0 0.68 0 0 Z " fill="#FFFFFF" transform="translate(148,205)"/>
<path d="M0 0 C0.66 0.66 1.32 1.32 2 2 C1.34 2 0.68 2 0 2 C0 1.34 0 0.68 0 0 Z " fill="#FFFFFF" transform="translate(243,42)"/>
<path d="M0 0 C0.33 0.66 0.66 1.32 1 2 C0.34 1.67 -0.32 1.34 -1 1 C-0.67 0.67 -0.34 0.34 0 0 Z " fill="#FFFFFF" transform="translate(105,18)"/>
<path d="" fill="#FFFFFF" transform="translate(0,0)"/>
<path d="" fill="#FFFFFF" transform="translate(0,0)"/>
<path d="M0 0 C2 1 2 1 2 1 Z " fill="#FFFFFF" transform="translate(107,231)"/>
<path d="M0 0 C2 1 2 1 2 1 Z " fill="#FFFFFF" transform="translate(66,217)"/>
<path d="M0 0 C2 1 2 1 2 1 Z " fill="#FFFFFF" transform="translate(71,130)"/>
<path d="" fill="#FFFFFF" transform="translate(0,0)"/>
<path d="M0 0 C2 1 2 1 2 1 Z " fill="#FFFFFF" transform="translate(259,54)"/>
<path d="" fill="#FFFFFF" transform="translate(0,0)"/>
<path d="" fill="#FEFEFE" transform="translate(0,0)"/>
<path d="" fill="#FEFEFE" transform="translate(0,0)"/>
<path d="" fill="#FEFEFE" transform="translate(0,0)"/>
<path d="" fill="#FEFEFE" transform="translate(0,0)"/>
<path d="" fill="#FEFEFE" transform="translate(0,0)"/>
<path d="" fill="#FEFEFE" transform="translate(0,0)"/>
<path d="" fill="#FEFEFE" transform="translate(0,0)"/>
<path d="" fill="#FEFEFE" transform="translate(0,0)"/>
<path d="" fill="#FEFEFE" transform="translate(0,0)"/>
<path d="" fill="#FEFEFE" transform="translate(0,0)"/>
<path d="" fill="#FEFEFE" transform="translate(0,0)"/>
<path d="" fill="#FEFEFE" transform="translate(0,0)"/>
<path d="" fill="#FEFEFE" transform="translate(0,0)"/>
<path d="" fill="#FFFFFF" transform="translate(0,0)"/>
<path d="" fill="#FEFEFE" transform="translate(0,0)"/>
<path d="" fill="#FEFEFE" transform="translate(0,0)"/>
<path d="" fill="#FEFEFE" transform="translate(0,0)"/>
<path d="" fill="#FEFEFE" transform="translate(0,0)"/>
<path d="" fill="#FEFEFE" transform="translate(0,0)"/>
<path d="" fill="#FEFEFE" transform="translate(0,0)"/>
<path d="" fill="#FEFEFE" transform="translate(0,0)"/>
<path d="" fill="#FEFEFE" transform="translate(0,0)"/>
<path d="" fill="#FEFEFE" transform="translate(0,0)"/>
<path d="" fill="#FEFEFE" transform="translate(0,0)"/>
<path d="" fill="#FEFEFE" transform="translate(0,0)"/>
<path d="" fill="#FEFEFE" transform="translate(0,0)"/>
<path d="" fill="#FFFFFF" transform="translate(0,0)"/>
<path d="" fill="#FEFEFE" transform="translate(0,0)"/>
<path d="" fill="#FEFEFE" transform="translate(0,0)"/>
<path d="" fill="#FEFEFE" transform="translate(0,0)"/>
<path d="" fill="#FEFEFE" transform="translate(0,0)"/>
<path d="" fill="#FEFEFE" transform="translate(0,0)"/>
<path d="" fill="#FEFEFE" transform="translate(0,0)"/>
<path d="" fill="#FEFEFE" transform="translate(0,0)"/>
<path d="" fill="#FEFEFE" transform="translate(0,0)"/>
<path d="" fill="#FEFEFE" transform="translate(0,0)"/>
<path d="" fill="#FEFEFE" transform="translate(0,0)"/>
<path d="" fill="#FEFEFE" transform="translate(0,0)"/>
<path d="" fill="#FEFEFE" transform="translate(0,0)"/>
<path d="" fill="#FEFEFE" transform="translate(0,0)"/>
<path d="" fill="#FEFEFE" transform="translate(0,0)"/>
<path d="" fill="#FEFEFE" transform="translate(0,0)"/>
<path d="" fill="#FEFEFE" transform="translate(0,0)"/>
<path d="" fill="#FEFEFE" transform="translate(0,0)"/>
<path d="" fill="#FEFEFE" transform="translate(0,0)"/>
<path d="" fill="#FEFEFE" transform="translate(0,0)"/>
</svg>
